<?xml version="1.0" encoding="utf-8"?>
<!-- Generator: Adobe Illustrator 26.0.2, SVG Export Plug-In . SVG Version: 6.00 Build 0)  -->
<svg id="svg" version="1.0" xmlns="http://www.w3.org/2000/svg" xmlns:xlink="http://www.w3.org/1999/xlink" x="0px" y="0px"
	 viewBox="0 0 1198.3 807.7" style="enable-background:new 0 0 1198.3 807.7;" xml:space="preserve">
<g id="Layer_4">
	<path id="XMLID_517_" d="M337,381.3c-0.1,7-6.2,13.6-11.8,13.2c-3.9-0.2-12.5-6.3-13.2-9.9c-1.4-7.3-6.1-10.6-13-11.2
		c-7.4-0.6-14.1-3.2-20.5-6.8c-1.2-0.7-3.1-3-4.2,0.4c-0.1,0.2-1.3,0.1-2,0c-3.6-0.4-7.2-0.9-10.6-1.4c-2.5-4.7-4.9-9.5-7.5-14.3
		c-0.6-1-1.3-2.4-2.2-2.8c-1.8-0.8-4.1-1.7-5.7-1.2c-1,0.3-1.6,3.3-1.5,5c0.2,2,1.8,3.9,2,6c0.2,1.9,0,4.4-1.1,5.8
		c-0.6,0.8-3.6,0.2-5.2-0.5c-4.4-2-7.2-5.5-7.9-10.4c-1.2-9.2-5-17.4-10.3-24.9c-2.9-4.1-5.3-8.5-8.2-12.6
		c-6.1-8.2-2.9-17.4,3.6-25.1c2-2.4,6.4-3.2,9.8-3.7c8.5-1.3,17.1-2,25.7-2.9c4.4-0.5,5.7-3.5,5.7-7.3c0-3.8-0.8-8,5.4-7.6
		c1.2,0.1,2.3-1.9,3.7-2.3c4.1-1.4,7.2,0,8.8,4.1c2.1,5.2,3.9,10.4,5.9,15.6c1,2.7,2.5,4.8,5.8,5c1.7,0.1,3.3,0.8,4.9,0.6
		c7.7-0.8,15.2,6.3,17.3,13.6c2.1,7.3,4.4,14.5,6.6,21.8c0.4,1.4,1,2.7,1.9,5.2c1.4-2,2.7-3.2,3.1-4.5c1.7-6.2,6-8.3,11.9-8.4
		c6.1-0.2,7-1,7.8-7.3c0.6-4.9,0.9-10,2.1-14.8c0.4-1.7,2.9-3.2,4.7-4.2c0.7-0.4,2.4,0.7,3.4,1.4c3.8,2.8,7.5,5.8,11.4,8.6
		c3.5,2.6,4.3,6.1,3.8,10.1c-0.4,3.7-1.1,7.3-5.7,8.2c-3,0.6-5.9,1.5-8.8,2.3c-4,1-4.8,2.7-3.4,6.6c2.9,7.8,1.5,12.4-5.4,17.4
		c-4.5,3.3-4.3,3.5-0.1,7.4c1.8,1.6,2.9,4.2,3.7,6.6c2.4,6.4,4.4,7.4,10.4,4.6c6.4-3,8.2-2.4,12.4,3.4c1.6,2.3,3.6,4.2,6.1,7.1
		c1.1-10.4,6.2-17,14.3-21.2c7-3.6,14.7-5.5,22.6-4.4c6.2,0.8,11,6.3,11,13.2c0.1,8.6,0.3,17.1,2.4,25.6c1,4.1-1.1,9.2-2.5,13.5
		c-1,3.1-7.7,5.7-11,4.5c-3.7-1.3-6.4-3.9-6.7-8.3c-0.1-1.9-0.5-3.9-0.9-5.8c-0.7-3.7-3-5.7-6.8-5.3c-4.7,0.5-9.5,1.1-14.1,2.2
		c-3.9,0.9-7.3,0.9-9.9-2.2c-2.1-2.4-4.3-3.1-7.5-2.8c-8.7,0.9-17.2-1.1-25.5-3.7C340.9,382,339,381.7,337,381.3z M321.7,340.8
		c-4.5,2.7-8.7,5-12.8,7.6c-3.4,2.2-3,8,0.5,9.9c5.2,3,6,5.3,5.3,11.6c-0.3,2.8,0.6,5.8,1,8.7c0.7,0.2,1.4,0.3,2,0.5
		c2-2.3,4.6-4.3,6-6.9c2.1-3.8,3.3-8,4.9-12.1c1.5-3.6,1.8-6.9-0.7-10.2C325.7,347,323.8,343.9,321.7,340.8z"/>
	<path id="XMLID_516_" d="M504.7,404.5c0.3,3.5,1.1,7,0.6,10.4c-0.4,2.9-1.8,6.6-3.9,7.9c-2,1.2-6.1,0.4-8.4-1
		c-11.9-6.8-15.8-17.5-10.8-30.1c1.1-2.9,4.7-4.8,7.3-7.1c1.2-1.1,3.2-1.5,4-2.7c0.8-1.2,1-3.2,0.6-4.6c-0.2-0.6-2.6-1-3.8-0.8
		c-6.2,1.1-11.9,0.7-17-3.8c-9.1-8.1-8.7-17.8-0.4-26.8c6.2-6.8,11.8-14.6,13.7-24.2c0.8-3.9,4-4.9,7-3.8c9.5,3.5,17.8,7.9,22.7,18
		c6.5,13.5,9,27.4,9.3,42.1c0.1,4,1.3,8,1.9,12.1c1.3,7.8-3.8,12.2-11.4,10c-1.7-0.5-3.5-1-5.3-1.3
		C505.5,398.4,504.6,399.2,504.7,404.5z"/>
	<path id="XMLID_515_" d="M712.4,490c-1.4,1.9-2.9,3.2-3.4,4.9c-2.6,7.8-8.3,11.2-16.2,8.8c-7.6-2.3-14.8-5.7-19.2-12.9
		c-1.9-3.2-3.8-6.7-4.4-10.2c-0.7-3.7-2.3-4.6-5.7-4.8c-6.3-0.5-12.7-0.9-18.8-2.5c-6.6-1.7-8.5-5.1-7.9-10.9
		c0.5-4.4,4.1-7.4,9.9-8.5c9.4-1.8,18.5-0.6,27.2,2.8c7,2.7,13.6,6.4,20.4,9.7c3.4,1.6,6.8,3.3,10,5.2c1.2,0.7,2.3,2.1,2.8,3.4
		C709.1,479.9,710.7,485,712.4,490z"/>
	<path id="XMLID_514_" d="M1084.2,579.4c-7.1,4.5-8.3,7.4-5.2,13.7c3.3,6.7,7.1,13.2,11.1,19.4c1,1.5,3.5,2.2,5.4,2.9
		c3,1.1,6.2,1.5,9.1,2.8c1.9,0.8,4.9,2.9,4.7,3.7c-0.7,2.7-2,6-4.1,7.5c-6.2,4.4-17.4,0.1-19.4-7.1c-1.3-4.8-3.8-8-8.5-10.3
		c-3.7-1.9-8-5.1-9.4-8.7c-4-10.6-11.7-18.3-18-27.1c-3.3-4.7-6.6-9.4-9.6-14.3c-2-3.3-2.6-7.1,0.6-10c3.1-2.7,6.8-2.3,10.1-0.1
		c2.1,1.4,4.6,2.9,5.8,5c4.7,8.3,12.3,12.6,20.3,16.7C1079.6,574.9,1081.6,577.2,1084.2,579.4z"/>
	<path id="XMLID_513_" d="M567.8,459.4c-9.7-1.1-15.8-7.7-15.4-16.8c0.2-4.5,0-9.1,0.6-13.5c0.4-2.4,1.6-6,3.3-6.7
		c2.6-1,6.6-0.7,8.9,0.7c9.1,5.5,8.9,5.8,16.4-2c7.6-7.8,9.8-7.4,13.9,2.7c2,5,4,10.1,6.4,15c1.9,4,1.8,7.8,0.3,11.8
		c-2.3,5.8-10.5,7-14.5,2.3c-5.8-6.9-5.6-6.7-11.6,0.4C574.1,456,570.7,457.4,567.8,459.4z"/>
	<path id="XMLID_512_" d="M692,333c0.3,2.9,0.7,5.8,1,8.8c2.6-0.6,5.2-1.4,7.9-1.9c5-1,8.7-2.6,8.4-9c-0.1-1.7,3.5-4.4,5.9-5.3
		c4.9-1.9,11.5,3.4,10.9,8.6c-0.8,6.6-1.9,13.2-3.5,19.6c-1.5,5.9-13.3,9.7-18,5.3c-5.6-5.3-10.1-7.8-17.3-2.4
		c-3.8,2.9-9.1,0-10-5.1c-1.2-6.8-1.7-13.8-1.9-20.7c-0.1-3.9,3-6,7.1-5.8c2.5,0.2,5.5-0.1,7.5,1.1c1.8,1.2,2.4,4.1,3.5,6.3
		C693,332.7,692.5,332.9,692,333z"/>
	<path id="XMLID_511_" d="M884.3,363.9c8.1-0.3,15.9,1.1,22.2,6.2c3.7,3,6.8,7.2,8.8,11.6c2.7,5.9-0.5,10.9-6.9,11
		c-7.8,0.1-14.3,2.1-20.1,7.5c-3.3,3.1-7.7,2.1-9.9-2.2c-3.4-6.6-6.3-13.4-8.6-20.4c-1.8-5.3,4.6-13,10.5-13.7
		C881.6,363.8,882.9,363.9,884.3,363.9z"/>
	<path id="XMLID_510_" d="M410,524.1c-1-0.9-3.2-2.5-5-4.4c-4.3-4.8-5.5-9.9-2.7-16.3c3.4-7.4,6-15.1,8.6-22.8
		c0.9-2.6,0.7-5.7,0.4-8.5c-0.4-3.6,1.2-4.8,4.4-4.6c7.5,0.4,12.8,4.4,16.2,10.8c2.2,4.3,3.5,9,5.4,13.5c1.5,3.6,0,6-3.3,6.5
		c-10.1,1.6-13,8.3-13.3,17.4C420.4,520.8,416.7,524,410,524.1z"/>
	<path id="XMLID_509_" d="M127,332.4c0.3,3.1,0.5,5.8,0.8,8.4c-10.1,2-16.2-1.9-15.9-11.8c0.2-6.9,1.9-14.2,4.8-20.5
		c1.7-3.6,6.8-5.9,10.8-8c3.1-1.6,6.9-2.1,10.5-2.8c1.2-0.2,2.9,0.1,3.9,0.9c6.5,4.8,7.6,14.5,6.8,21.1c-0.1,0.6-0.7,1.2-1.2,1.7
		c-3.2,3.1-6.8,5.9-9.4,9.4C134.8,335.2,131.2,334.2,127,332.4z"/>
	<path id="XMLID_508_" d="M544.8,505.8c-1.4,2.7-2,6.4-4.2,7.8c-3.4,2.2-7.1,0.5-10.2-2.3c-9.8-9-17.5-19.1-21.4-32.1
		c-1.7-5.5-0.6-10,3-13.8c1.3-1.4,4.8-1.9,6.9-1.3c8,2.3,12.6,8.7,15.9,15.8c3.4,7.4,6,15.1,8.9,22.8c0.3,0.8,0.3,1.8,0.4,2.7
		C544.3,505.5,544.6,505.6,544.8,505.8z"/>
	<path id="XMLID_507_" d="M273.3,728c1.8-6.4,3.5-12,5-17.7c3.4-12.8,8.3-24.7,18.6-33.6c2.5-2.2,5.2-4.2,8.1-5.7
		c3.8-1.9,6.1-0.2,6.1,4.1c0,0.6,0,1.3-0.2,1.8c-7,16.9-12.5,34.5-23.3,49.6c-1.5,2.1-3.2,4.2-5.4,5.5c-1.7,1-4.5,1.5-6.2,0.8
		C274.7,732.1,274.1,729.5,273.3,728z"/>
	<path id="XMLID_506_" d="M808,311.4c-3,0.6-6.1,1.2-9.1,1.8c-1.3,0.3-2.9,0.1-3.9,0.9c-1.2,0.9-2,2.4-2.9,3.6
		c1.4,1,2.7,2.7,4.1,2.8c5.2,0.1,9.3,2.1,12.9,4.7c-2.1,5.4-3.9,10.4-6,15.3c-1.9,4.3-8.8,6.6-15.7,5.6c-5-0.7-5.9-4.3-7.1-8.6
		c-1.4-4.9-4.4-9.5-7.1-14c-3.5-5.8-2-10.2,4.9-11.3c6-1,12-1,18.1-1.7c3.1-0.4,6.2-1.3,9.4-1.7c0.9-0.1,1.8,0.6,2.8,0.9
		C808.1,310.2,808.1,310.8,808,311.4z"/>
	<path id="XMLID_505_" d="M931.8,389.7c4.8,1.8,7.9,4.4,9.4,9.3c1,3.4,3.7,6.4,5.8,9.4c1.2,1.7,3.1,3,4.3,4.7
		c5.5,7.9,2,20.8-6.7,25.2c-3.2,1.6-8.8,0.5-10.2-3c-2.6-6.5-4.4-13.3-6.3-20.1c-0.8-3-0.7-6.3-1.4-9.4
		C925.1,399.4,927.9,394.5,931.8,389.7z"/>
	<path id="XMLID_504_" d="M406.1,308.9c3.4,1.6,6.7,3.3,10.1,4.7c3.6,1.5,7.2,3.2,11,4.1c4.6,1.1,6.2,4.3,7.2,8.3
		c0.9,3.7-1.5,5.5-4.1,7.2c-3.4,2.2-6.9,4.3-10.3,6.5c-6,3.8-13.2,1.9-16.7-4.2c-1.9-3.3-3.8-6.5-6.2-9.4c-2.6-3.2-5.7-6.8-2.9-10.4
		c2.2-2.9,6.5-4.2,9.9-6.1c0.5-0.3,1.2,0,1.8,0C405.9,309.4,406,309.2,406.1,308.9z"/>
	<path id="XMLID_503_" d="M868.2,511.6c-1.1,2.2-1.6,4.9-3.2,6.4c-4.8,4.5-9.8,8.7-15.1,12.6c-4,2.9-8,1.9-11.4-1.6
		c-3.3-3.3-3.5-7.3-2.1-11.4c0.7-1.9,2.2-3.5,3.4-5.3c3.6-5.2,7.4-10.2,10.8-15.5c1.6-2.6,3.1-5.5,6.3-4.6c2.8,0.8,6.5,2.4,7.5,4.7
		C866.5,501.4,867,506.5,868.2,511.6z"/>
	<path id="XMLID_502_" d="M487,478.5c-8.9,0-16.3-11.6-12.2-17.3c6.9-9.6,6.4-19.7,3.5-30.2c-0.4-1.3-1.1-2.7-0.9-4
		c0.4-2.2,1.5-4.3,2.3-6.4c2.4,0.9,5.7,1.2,7.1,3c2.5,3.3,3.9,7.4,5.7,11.3c0.2,0.5,0.3,1.5,0.1,1.7c-4.1,2.7-1.1,5.9-0.6,8.7
		c0.7,3.5,2.1,6.9,3.2,10.4c1.5,4.8,2.2,9.3-2.2,13.4c-1.5,1.4-1.5,4.3-2.7,6.1C489.4,476.8,487.6,477.9,487,478.5z"/>
	<path id="XMLID_501_" d="M431.5,404.3c0-7.5,4.7-13.8,10.5-14.5c3.8-0.4,6.2,0.8,6.8,4.8c0.6,4.4,3.2,7,7.2,8.6c4.9,2,7,6,6,11.3
		c0,0.1,0,0.3,0.1,0.4c0.8,6.2-1.8,10.4-7.7,12.1c-6.3,1.8-9.8-2-12.9-6.8c-1.3-2-3.6-3.3-4.9-5.3c-2.2-3.2-4.1-6.7-6.1-10
		C430.7,404.8,431.1,404.5,431.5,404.3z"/>
	<path id="XMLID_500_" d="M765.6,445.1c-0.5,1.3-0.8,4.1-2.4,5.7c-5,5-10.3,9.8-15.9,14c-3.6,2.7-6,1.4-7.3-3
		c-2.6-8.7-2.7-17.1,2.4-25.3c3.3-5.2,10.6-7.2,15.7-3.7C762,435.6,765.3,438.8,765.6,445.1z"/>
	<path id="XMLID_499_" d="M989.7,550c-0.4-4.7,1-8.4,5.5-10.5c4.5-2.2,8.9-1.9,12.6,1.5c3.7,3.3,7.2,6.9,10.2,10.8
		c5,6.4,0.7,15.9-7.5,16.9c-7.5,0.9-18.1-6.1-20.1-13.3C990,553.6,989.9,551.8,989.7,550z"/>
	<path id="XMLID_498_" d="M871.2,438.3c0,13.1-7.4,23.3-18.6,26c-3.2,0.8-6.1,0.1-7.5-2.7c-1.1-2.3-2.2-5.9-1.2-7.8
		c4.2-8.6,9-17,17.6-22.1c2.1-1.3,5.4-2.7,7.3-1.9c1.5,0.6,1.7,4.4,2.5,6.8C871.4,437.1,871.2,437.7,871.2,438.3z"/>
	<path id="XMLID_497_" d="M645.2,354.3c14.3,0.1,21.6,10.9,15.4,22.9c-2.1,4.1-5.1,5.7-9.3,4c-4.4-1.8-8.7-4.1-12.7-6.8
		c-3.8-2.5-5.2-9.9-3.3-15C636.6,355.6,639.1,354.3,645.2,354.3z"/>
	<path id="XMLID_496_" d="M53.3,389.5c-6.2-0.8-9.9-4.3-12.9-8.3c-3.8-5.1-7.1-10.5-10.3-16c-2.5-4.2,0.3-9.7,5.6-10.6
		c6.6-1.1,12.9,0,17.1,5.8c3.7,5.2,2.8,10.7,0.1,16.3c-1,2.1-0.7,4.9-0.7,7.4C52.3,385.7,52.9,387.3,53.3,389.5z"/>
	<path id="XMLID_495_" d="M465.9,308.5c0.6,6.3-2.8,10.8-6.1,15.4c-3.3,4.6-7.9,3.9-12.3,2.8c-3.9-0.9-5-4.7-4.8-7.9
		c0.3-5,1.3-10.2,2.8-15c1.1-3.6,16.4-6,18.6-2.9C465.5,302.8,465.4,305.9,465.9,308.5z"/>
	<path id="XMLID_494_" d="M919.3,426.3c4.7,0,11.2,7.3,11.1,12.6c0,5.7-7.7,14.1-12.8,14c-5.5-0.1-13.4-6.5-13.5-11
		C904,433.6,911.1,426.3,919.3,426.3z"/>
	<path id="XMLID_493_" d="M773,393.9c4.4-0.4,8.9-0.8,13.3-1.2c7-0.6,11.5,4.8,8.8,11.3c-1.4,3.4-3.6,6.8-6.3,9.2
		c-1.6,1.5-5.7,2.4-7.2,1.4c-5.2-3.4-10.1-7.5-14.6-11.8c-1.1-1.1-1.2-4.6-0.3-6.2c1.1-1.9,3.7-3,5.6-4.4
		C772.5,392.8,772.8,393.4,773,393.9z"/>
	<path id="XMLID_492_" d="M841.8,323.9c9.5,0.3,14,5.3,11.4,13c-1.7,5.1-9.9,9-16.4,7.7c-5.3-1-9.9-6.8-9.7-12.1
		c0.2-4.3,3.6-5.8,6.7-7.1C836.2,324.4,839.1,324.4,841.8,323.9z"/>
	<path id="XMLID_491_" d="M643.1,329.2c5.4,0,10.8,0,16.2,0c3.9,0,7.2,1.6,8.6,5.4c1.1,3-2.2,6.4-6.1,8.4
		c-8.2,4.2-15.8,1.9-23.4-1.6c-3.2-1.5-5.1-4.3-4.2-7.7C635.4,329.4,639.4,329.1,643.1,329.2z"/>
	<path id="XMLID_490_" d="M497.2,513.5c-4.9,0.2-8.6-1.4-10.2-6.4c-0.5-1.4-1.4-2.7-2.1-4c-2.5-4.6-2.1-11.3,1.5-15
		c1-1,3.4-1.4,4.8-1c4.6,1.3,8.7,3.8,10,8.9c1.1,4.2,2.4,8.6,2.5,12.9C503.6,512.2,500.8,514.1,497.2,513.5z"/>
	<path id="XMLID_489_" d="M969.8,444c2.3-5.4,4.6-11.2,7.4-16.7c0.6-1.3,3.4-2.4,4.8-2.1c1.4,0.3,2.9,2.4,3.4,4
		c1.2,3.9,1.9,7.9,2.6,11.9c1,5.8-1.7,10.3-5.5,14.1c-2.7,2.7-7.2,1.9-9.3-1.7C971.7,450.9,971.1,447.8,969.8,444z"/>
	<path id="XMLID_488_" d="M757.5,315.9c2.2,1.7,4.8,3,6.5,5.1c2.3,2.6,2.1,5.8,0.1,8.8c-2.8,4-5.7,8-11,8.7c-4.4,0.6-8-0.7-10.6-4.5
		c-2.6-3.9-0.5-7,1.7-9.9C747.3,320,751.3,317.2,757.5,315.9z"/>
	<path id="XMLID_487_" d="M863.7,541.2c2.9,2.8,5.8,4.5,6.9,7c0.8,1.9-0.1,5.1-1.2,7.3c-1.9,3.6-4.6,6.7-6.8,10.1
		c-2.6,3.9-6.3,5.3-9.5,3.4c-3.4-2-4.5-7.2-2.6-10.8c1.9-3.6,3.2-7.5,5.5-10.8C857.6,545,860.5,543.7,863.7,541.2z"/>
	<path id="XMLID_486_" d="M830,728.3c-2.6-1.6-6.1-2.7-7.5-5c-2.4-4.2-4.2-9-4.9-13.8c-0.7-5.1,3-7.8,7.4-5.2
		c4.8,2.8,9.3,6.8,12.5,11.3C841,720.4,836.3,727.4,830,728.3z"/>
	<path id="XMLID_485_" d="M600.5,513.9c-3-0.7-7.5,0-9.1-4.7c-1.1-3,2.5-8.9,6.5-10.4c3.7-1.4,7.8-2.8,11.7-2.8
		c6.2,0,8.4,4.8,5.2,10.1C612.4,510.2,605.9,513.9,600.5,513.9z"/>
	<path id="XMLID_484_" d="M531.2,316.1c-1.7,0-3.3-0.1-5,0c-4.5,0.3-6.7-2.2-7.6-6.2c-0.9-4.1,1.3-6.6,4.8-7.6
		c6.1-1.7,12.4-2.1,17.9,1.8c1.7,1.2,3.7,4.8,3,6.1c-1.1,2.4-3.8,4.5-6.4,5.7C536.1,316.8,533.5,316.1,531.2,316.1z"/>
	<path id="XMLID_483_" d="M842.4,382.1c-3.7,0-9.4-5.4-9.5-9.1c-0.1-4.3,5.5-11.7,9.1-11.8c5.5-0.2,12.4,6.2,12.3,11.3
		C854.3,376.3,847.1,382.1,842.4,382.1z"/>
	<path id="XMLID_482_" d="M588.5,486.6c-5.4,0-8.1-5-6-11.6c1.6-5.1,5.4-8,10.2-9.5c4.2-1.3,9.5,5.6,8.4,10.8
		C600,482,594.3,486.6,588.5,486.6z"/>
	<path id="XMLID_481_" d="M931.2,380c-7.4-0.5-13.6-11.7-12.1-17.7c0.8-3,5.1-5,8.3-3.2c3.7,2.1,7.3,4.9,9.9,8.2
		c1.5,1.9,2,6,0.9,8.2C937.2,377.6,933.7,378.5,931.2,380z"/>
	<path id="XMLID_480_" d="M518.3,418.1c0.9-1.2,2.3-4.4,4.4-5.1c3.6-1.2,7.5,0.4,9.1,4.1c1.9,4.2,3.3,8.7,4.5,13.3
		c1.1,4.1-3,7.4-7,5.9C525.2,434.8,518.3,424.4,518.3,418.1z"/>
	<path id="XMLID_479_" d="M1117.5,147.3c-1.4,2-2.4,5-4.4,5.9c-3.1,1.5-5.8-1.1-6.8-3.8c-2.1-5.6-3.6-11.5-5-17.3
		c-0.3-1.3,0.4-4,1.3-4.3c1.4-0.5,3.7-0.1,4.9,0.9C1113.4,133.1,1116.5,139.2,1117.5,147.3z"/>
	<path id="XMLID_478_" d="M572.3,541.8c-0.7-0.3-2.7-0.9-4.3-2c-3.7-2.6-6.4-11.3-5.3-15.5c0.9-3.4,2.9-4.6,6-3.3
		c5.7,2.4,9.6,6.9,11.5,12.7C581.6,538.2,578.5,541.7,572.3,541.8z"/>
	<path id="XMLID_477_" d="M626.1,329.9c-10-2-16.7-7.6-22.6-14.2c-2.1-2.3-0.2-5.4,3-5c2.5,0.3,5.1,1,7.2,2.3
		c5,3.1,9.7,6.7,14.4,10.3c1.1,0.9,2.4,3.3,2,3.9C629.2,328.5,627.3,329.2,626.1,329.9z"/>
	<path id="XMLID_476_" d="M374.7,357.1c-3.7-0.2-9.8-5.9-9.6-9.1c0.2-4.2,5.7-9.8,9.4-9.6c4.2,0.3,9.6,6,9.6,10.2
		C383.9,352.5,378.6,357.3,374.7,357.1z"/>
	<path id="XMLID_475_" d="M835.6,673c0.3,6-8.8,14.2-12.8,12.1c-2.3-1.2-5.2-5.9-4.5-7.6c1.8-4.2,5.3-7.7,8.5-11.2
		c0.6-0.6,3.5-0.2,4.4,0.7C833.1,668.9,834.5,671.4,835.6,673z"/>
	<path id="XMLID_474_" d="M567.2,479.8c-0.3,3.7-0.2,7.5-1,11.1c-0.5,2-2.6,3.6-4,5.4c-1.4-1.4-3.6-2.6-4.1-4.3
		c-1.4-3.9-2.5-8.1-2.6-12.2c-0.1-2.5,1.6-5.4,3.3-7.4c1-1.1,4.1-1.4,5.7-0.8c1.3,0.5,2,2.9,2.5,4.6c0.4,1.1,0.1,2.4,0.1,3.5
		C567.1,479.8,567.1,479.8,567.2,479.8z"/>
	<path id="XMLID_473_" d="M846.7,600.2c-4.8,0-8.1-3.4-8.1-8.4c0-4,5.1-8.5,9.7-8.5c3,0,8.2,4.9,8.3,7.8
		C856.6,595.1,851.1,600.2,846.7,600.2z"/>
	<path id="XMLID_472_" d="M968.5,395.6c7.5,2.8,8.8,9.1,11.3,14.4c0.5,1.1,1,2.3,1,3.4c0,1.9,0.2,5.1-0.7,5.5
		c-1.9,0.9-5.9,1.1-6.5,0.2c-2.9-5-5.4-10.3-7.1-15.8C965.9,401.3,967.7,398.6,968.5,395.6z"/>
	<path id="XMLID_471_" d="M903.6,540.8c-1.3,5.9-3.1,10.5-7.8,12.6c-1.6,0.7-4.7,0.3-6-0.9c-1.4-1.3-2.7-4.4-2.1-6
		c1.2-3.6,3.4-7,5.8-9.8c1-1.1,4.2-1.5,5.6-0.8C901.1,536.9,902.4,539.3,903.6,540.8z"/>
	<path id="XMLID_470_" d="M970.9,339.7c5.4,0.1,7.3,2.5,5.4,7.5c-1.4,3.8-3.4,7.4-5.4,10.9c-0.6,1.1-2.3,1.9-3.6,2
		c-0.5,0.1-1.6-1.9-1.9-3c-0.7-2.8-1.2-5.6-1.6-8.4C963.1,343.8,966.5,339.6,970.9,339.7z"/>
	<path id="XMLID_469_" d="M309.5,574.2c-5,0-7.6-2.7-7.7-7.9c-0.1-3.8,3.3-6.3,8.2-6.3c4.7,0.1,7.2,2.5,7.2,6.8
		C317.2,571.7,314.6,574.2,309.5,574.2z"/>
	<path id="XMLID_468_" d="M870.5,315.3c8.3-1.6,15.1,1.8,22.2,2.8c1.3,7.3-1.4,9.7-8.1,7.2c-3.8-1.4-7.5-3.1-11-5.2
		C872.3,319.5,871.7,317.4,870.5,315.3z"/>
	<path id="XMLID_467_" d="M430.7,514.9c5.1,0,10.6,5,9.8,8.4c-0.4,1.9-3.4,4.6-5,4.5c-2.7-0.2-5.7-2-7.8-3.9c-1.2-1-1.9-4.1-1.3-5.5
		C427.3,516.7,429.8,515.6,430.7,514.9z"/>
	<path id="XMLID_466_" d="M1040.9,64.1c-1,1.2-2.3,3.9-4.5,5.3c-0.9,0.6-3.7-1.5-5.4-2.8c-1.1-0.9-2-2.3-2.6-3.6
		c-0.7-1.6-1.7-4-1.1-5c0.7-1.2,3.2-1.8,5-1.8C1037.5,55.8,1040.8,58.5,1040.9,64.1z"/>
	<path id="XMLID_354_" d="M914.8,326.9c-2.1,1.9-3.4,3.1-4.7,4.2c-1-1.4-2.9-2.8-2.9-4.2c0-1.3,1.9-3,3.3-3.5
		C911.3,323.2,912.8,325.2,914.8,326.9z"/>
	<path id="XMLID_353_" class="st0" d="M321.7,340.8c2.1,3.1,4.1,6.2,6.2,9.1c2.5,3.3,2.2,6.7,0.7,10.2c-1.7,4-2.9,8.3-4.9,12.1
		c-1.4,2.6-3.9,4.6-6,6.9c-0.7-0.2-1.4-0.3-2-0.5c-0.4-2.9-1.3-5.8-1-8.7c0.7-6.3-0.1-8.6-5.3-11.6c-3.5-2-3.8-7.8-0.5-9.9
		C312.9,345.8,317.2,343.5,321.7,340.8z"/>
</g>
</svg>