<?xml version="1.0" encoding="utf-8"?>
<!-- Generator: Adobe Illustrator 26.0.2, SVG Export Plug-In . SVG Version: 6.00 Build 0)  -->
<svg id="svg" version="1.0" xmlns="http://www.w3.org/2000/svg" xmlns:xlink="http://www.w3.org/1999/xlink" x="0px" y="0px"
	 viewBox="0 0 1198.3 807.7" style="enable-background:new 0 0 1198.3 807.7;" xml:space="preserve">
<g id="Layer_11">
	<path id="XMLID_00000166638187022456158420000006898482556093240976_" d="M363.4,395.7c7.4-8.7,14.9-16.5,25.1-20.7
		c4.6-1.9,9.5-3.2,14.3-3.9c6.1-0.9,10.6,2.3,11.2,8.5c1.5,14.5-0.3,28.4-8.9,40.7c-2.1,3.1-4.9,5.2-8.8,4.1c-3.8-1-5.5-3.9-6-7.8
		c-0.3-2.4-0.8-4.8-1.4-7.1c-1.7-6.7-5.4-9.4-12-7.4c-6.7,2-12.7,3.9-20.3,2c-6.3-1.5-13.5,0.4-20.2,1.5
		c-6.8,1.1-12.3,4.6-16.2,10.6c-3.2,4.9-6.2,5-10.1,0.7c-1.1-1.2-2.1-2.6-3.1-3.9c-3.4-4.4-7.7-7.2-13.6-6.7
		c-5.3,0.4-10.6,0.4-15.9,1c-3.2,0.4-7.3,0.7-5.6,6.5c-0.4,0.1-0.8,0.1-1.2,0.2c-1.4-1.3-3.2-2.3-4.2-3.8c-4.4-6.3-8.5-12.9-13-19.2
		c-0.9-1.2-2.9-1.6-4.4-2.3c-0.7,1.5-1.4,2.9-2,4.4c-0.1,0.3,0,0.6,0,0.9c-0.5,3.2,0,7.2-4.5,7.8c-4.8,0.6-7.3-2.9-7.9-6.7
		c-1.7-12.1-8.3-22-14.1-32.2c-1.7-3-3.8-5.9-5.6-8.8c-6.2-10.1-1.9-22,9.4-24.8c7.5-1.9,15.1-3,22.8-4c7-0.9,13.1-2.5,15.6-10.2
		c1-3,2.8-3.4,5.6-1.3c1.4,1.1,3.7,1.6,5.4,1.3c6-0.8,8.2,1,7.6,7.2c-0.1,1.5-0.6,3-0.6,4.5c0,3.9,0.9,7.2,5.7,7.7
		c2.5,0.3,5,1.4,7.6,1.4c6.9,0.2,11.1,3.9,14,9.8c2.5,5.1,5.1,10.1,7.9,15.5c7.6-5,14.7-9,20.9-14.2c3-2.5,4.5-7.1,5.8-11.1
		c2.8-9,6.9-10.5,14.6-4.9c0.6,0.4,1.2,1,1.7,1.5c7,6.7,6.5,9.9-2.4,13.4c-7.1,2.8-11.9,6.8-12.7,15.2c-0.7,6.5-3.4,12.8-5.1,19.3
		c-0.5,1.9-0.6,3.9-0.4,5.9c0.7,5.9,3.8,8,9.1,5.4C354.2,388.9,359,390.9,363.4,395.7z M315.9,405.8c1.5-4.3,2.9-8.4,4.4-12.6
		c-3.7-1.5-5.6,0.1-6.2,2.9C313.3,399.3,310.4,403,315.9,405.8z"/>
	<path id="XMLID_00000074441519994121348020000004447573749856904866_" d="M474.6,441.2c-1.9,3.5-3.2,6.1-4.7,8.6
		c-2.1,3.7-4.1,7.4-6.5,10.9c-2.3,3.3-5.2,3-8.1,0.3c-4-3.8-5-8.9-4.4-13.8c1.3-11.4,4.9-21.5,18.2-24c1.1-0.2,2.2-0.9,3.2-1.6
		c2.8-1.8,2.5-3.5-0.4-4.9c-1.2-0.6-2.6-0.9-3.9-1.3c-7.3-2.1-11.8-6.7-12.7-14.3c-1-8.3,1.9-14.9,9.1-19.4c2.2-1.4,4.6-2.4,6.7-3.9
		c1.6-1.1,3.6-2.5,4-4.1c2.1-7.8,9-11.6,13.9-17c0.9-0.9,3.1-1.2,4.5-0.9c7.8,1.4,13.1,7.9,13.6,17.6c0.7,12.6,1.5,25.2,0.9,37.7
		c-0.8,16.6-10.7,28.6-23.3,38.4c-2.7,2.1-5.1,0.6-6.8-2.1C477,445.7,476.1,444,474.6,441.2z"/>
	<path id="XMLID_00000026156080057063810470000006136606654515517569_" d="M635.5,509.3c14.6,0.6,28.5,3.9,42.4,7.8
		c5,1.4,10.3,2.2,15.4,3.4c2.2,0.5,4.3,1.4,6.4,2.2c9.4,3.5,11.8,11.9,13.2,20.4c0.8,5-3.1,7.2-7.1,8.5c-3.3,1.1-6.7,1.9-10.1,2.7
		c-0.8,0.2-1.8-0.1-2.6-0.4c-1.2-0.6-2.4-1.3-3.5-2.1c-7.1-5.3-14.6-9.4-23.7-10.2c-5.1-0.5-9.2-3.2-11.4-8.5
		c-1.4-3.3-4.2-4.7-8.1-4.6c-6.9,0.2-13.8,0.6-20.6-0.1c-3.4-0.3-7-2.2-9.6-4.5c-4.5-3.9-3.1-10.1,2.6-11.8
		C624.2,510.7,629.9,510.2,635.5,509.3z"/>
	<path id="XMLID_00000088125459406456510740000015689676964003212681_" d="M525.8,492.5c6-3.2,12.1-6.4,18.2-9.8
		c3.6-2,6.3-1.9,9.7,1c4.7,4.1,7.7,8.9,9.1,14.8c1.6,7,0.6,9.2-5.7,12.5c-3,1.6-4.2,3.4-2.9,6.9c3.2,8.6,1.2,12.9-7.8,14.8
		c-4.3,0.9-9,0.3-13.4-0.2c-3.2-0.4-6-2.7-5.4-6.1c0.4-2,2.7-4,4.6-5.2c2.1-1.3,4.8-1.7,7.2-2.7c4-1.6,4.8-4.8,2.1-8.1
		c-1-1.3-2-2.7-3.2-3.8c-4.4-4.5-7.2-5-13-2.3c-3.7,1.7-7.4,3.4-11,5.3c-5.7,2.9-11.1,2.2-16.5-0.8c-5.7-3.1-7.7-9.3-4.2-14.6
		c2.7-4.1,6-8,9.5-11.5c3.4-3.4,10.7-3,14.6,0.7C520.5,485.8,522.8,489,525.8,492.5z"/>
	<path id="XMLID_00000142144954060929924290000007950550974138761616_" d="M819.1,355.2c-4.4,2.9-8.9,5.6-13.2,8.7
		c-2.8,2-6.6,3.8-5.7,8.4c0.8,3.9,5,6.6,10.2,6.8c4.5,0.2,10.3-1,11.9,4.2c2,6.5-0.3,12.9-4.8,18.1c-5.2,6.1-12.2,7.4-19.8,6.7
		c-3.7-0.4-5.3-3.1-5.2-6.3c0.1-6.3-3-11.1-6.2-16.1c-9.8-15.3-7.4-21,7-27c5.7-2.3,11.7-3.9,17.6-5.5c2.4-0.6,5.1-0.1,7.7-0.1
		C818.8,353.8,818.9,354.5,819.1,355.2z"/>
	<path id="XMLID_00000156566688723877343590000009338354314024168073_" d="M511.8,556.7c9.1,1.2,17.2,0.6,23.9,5.7
		c4.9,3.7,5.7,7.5,2.3,12.6c-7.9,11.8-14.3,14.5-25.4,10.7c-7.5-2.5-14.7-6-21.9-9.3c-1.7-0.8-3-2.5-4.2-4.1
		c-4.5-6.2-3.1-10.3,4.3-11.9C498.1,558.8,505.6,557.7,511.8,556.7z"/>
	<path id="XMLID_00000031175167785197654830000005720184424411786669_" d="M933.4,490.1c-0.2-5.1,2.8-10.1,9.6-9.9
		c11.4,0.3,12.6-1.9,9.2-12.9c-1.8-5.8-3-11.7-4.4-17.6c-0.2-1-0.4-2.3,0-3.1c1.3-2.4,3-4.7,4.5-7.1c1.9,1.5,4,2.9,5.7,4.6
		c1.3,1.4,1.8,3.6,3.1,4.9c2.1,2.1,4.3,4.6,6.9,5.4c5.8,1.7,7.4,6.1,8,10.9c0.6,4.2-0.5,8.1-4.7,10.5c-2.5,1.4-4.8,3.2-7,5
		c-3.7,2.8-6.5,6.4-7.2,11.1c-1,7-6.5,12-12.7,11.5C938.1,503.1,933.3,497.2,933.4,490.1z"/>
	<path id="XMLID_00000098906608728918209480000015526513754028087981_" d="M890.7,442.1c1-8,4.4-13.1,10.6-16.1
		c10.3-5,24.1-1.8,31.2,7.2c3.9,5,3.7,8.9-1.1,13c-5.6,4.8-11.3,9.5-17,14.1c-5.2,4.2-10.5,3.3-14.5-2.1c-2.2-3.1-4.5-6.1-6.4-9.4
		C892.1,446.6,891.4,443.8,890.7,442.1z"/>
	<path id="XMLID_00000017513110185421048950000009782602523196215215_" d="M468.8,530.6c-2,6.5-3.4,13.4-6.3,19.5
		c-3.6,7.5-10.7,7.8-14.6,0.5c-7.4-13.7-7.5-27.9-0.1-41.6c3.8-7.1,10.7-6.7,14.9,0.3c3.9,6.4,4.7,13.6,4.8,20.9
		C468,530.3,468.4,530.4,468.8,530.6z"/>
	<path id="XMLID_00000039828130161049189260000011518495818225616533_" d="M125.8,338.1c5.9,3.7,12.4,7.9,19.3,12.3
		c-1.5,4.5-2.9,9.1-4.6,13.5c-2.1,5.5-17.1,15.5-22.4,15.3c-4.6-0.2-8.5-3.3-8.5-7.7c0.1-6.1,0.5-12.4,2.1-18.3
		c1-3.5,4.6-6.3,7.3-9.3C121,341.9,123.2,340.3,125.8,338.1z"/>
	<path id="XMLID_00000134214243494676053150000005701282001102489012_" d="M548.3,586.9c9.4,0.1,18.4,1.7,26.6,6.5
		c1.5,0.9,3.4,2,4.1,3.4c1,2,2,4.8,1.2,6.5c-0.9,1.9-3.8,4.1-5.8,4c-13.7-0.6-27.6,0.5-41.1-3.1c-2.8-0.8-5.7-1.3-6.2-4.9
		c-0.5-3.9,0.7-7.3,4.2-8.7c5.4-2.1,11.1-3.3,16.6-5C548,586.1,548.2,586.5,548.3,586.9z"/>
	<path id="XMLID_00000068678260118273113480000016742016880383203214_" d="M755.5,524.1c-5.8,0.5-8.8-3.4-11.2-7.7
		c-2.4-4.4-2.7-8.9,0.4-13.2c10.1-14.4,26.6-10.4,35.2,2.7c0.9,1.3,0.1,4.5-1,6.1C774.6,518.5,763.4,524.1,755.5,524.1z"/>
	<path id="XMLID_00000143576856802524382940000015877333357348003456_" d="M712,421c-6.3-0.2-9.6-4.4-12.9-8.6
		c-4.1-5.2-4.1-6,1.3-9.6c7.7-5,14.1-10.8,17.3-19.8c1.3-3.6,4.4-4.1,8.4-2c3.9,2,5.3,5.6,4.5,8.6c-1,3.8-1.6,7.9-1.6,11.9
		c-0.1,9.7-4.8,16.7-13.2,18.9C714.5,420.7,713.1,420.8,712,421z"/>
	<path id="XMLID_00000104685534009734210960000004152773709013750931_" d="M413.6,359.7c-11.5,0-21.5-12.1-19.5-22.3
		c0.6-2.9,5.1-6.7,8.6-6.1c10.3,1.8,20.6,3.7,28.5,11.5c4.2,4.2,4.1,6-0.4,10C425.6,357.6,419.2,359.1,413.6,359.7z"/>
	<path id="XMLID_00000035516932904836811980000011093276402009750155_" d="M414.6,497.6c2.4-3,4.3-7,7.4-9
		c9.1-5.8,13.7-13.9,15.7-24.3c0.6-2.9,3.4-7.1,5.6-7.4c4-0.6,5.3,3.9,5.8,7.3c0.4,2.7,0.5,6-0.6,8.4c-4.4,9.6-9.2,19-14.1,28.3
		c-1.1,2.2-3.3,4.4-5.4,5.2c-2.3,0.9-5.5,1-7.9,0.2c-3.4-1.1-5.9-3.7-5.4-7.9C415.3,498.2,415,497.9,414.6,497.6z"/>
	<path id="XMLID_00000042001766111610540730000016679964634725429936_" d="M634.8,443.7c-5.7,0.3-10-1.8-13.6-5.3
		c-5.7-5.4-4.8-14.1,1.8-19.5c5.8-4.7,17.7-4.6,23.4,0.3c4.4,3.8,5.9,9,4.2,14.3c-1.7,5.3-8,9.7-14.4,10.2
		C635.5,443.8,634.9,443.7,634.8,443.7z"/>
	<path id="XMLID_00000178165314747172457810000002699076135594604430_" d="M913.4,571.2c1.3-3,2.6-6.1,3.8-9.1
		c2.9,1.5,6.6,2.3,8.7,4.5c5,5.4,9.5,11.3,13.8,17.3c2.5,3.5-1.9,14.5-6.5,17.5c-4.1,2.6-8.6,1.3-12.5-3.7
		c-5.5-7.1-5.5-15.8-6.3-24.2c-0.1-0.6,0-1.2,0-1.8C914,571.4,913.7,571.3,913.4,571.2z"/>
	<path id="XMLID_00000102542353499755511160000009523108734490299779_" d="M406.5,433.1c-0.1-9.7,3.7-16.5,10.6-18.6
		c2.1-0.6,5.6-0.8,6.6,0.4c1.8,2.1,5.2,4.7,1.9,8.5c-0.4,0.4,0.2,1.9,0.6,2.8c1.1,2.3,2.3,4.6,3.6,6.8c2.5,4.2,2.5,8.2-0.6,12.2
		c-3.6,4.6-8.2,5.7-13.7,4.4c-5.2-1.2-7.3-5-8.4-9.7C406.6,437.6,406.6,435.1,406.5,433.1z"/>
	<path id="XMLID_00000139992472672806908880000013355860815610861242_" d="M672.9,402.9c1.1-5.9,1.6-12,3.3-17.7
		c2.1-7.2,10-9.6,16.3-5.4c3.6,2.4,3.9,6.5,2.3,9.3c-3.2,5.8-2.1,11.8-2.3,17.7c-0.2,5.9-2.8,8.6-8.5,9.2
		C676.6,416.7,673.4,412.8,672.9,402.9z"/>
	<path id="XMLID_00000166677904779999139140000016535555506587900322_" d="M857.3,406.4c-7.7,0-14.3-6.7-14.2-14.2
		c0.1-7.7,6.6-14,14.5-13.9c8.1,0,14,5.9,14.1,14C871.7,400.5,865.7,406.5,857.3,406.4z"/>
	<path id="XMLID_00000039098304050545806190000003913207824516677817_" d="M373.3,491.1c-0.1,12.7-6.7,19.9-16.9,19.3
		c-4.9-0.3-8.2-3.7-10-7.6c-0.9-2,0.5-5.8,1.9-8c3.4-5.2,7.4-9.9,11.1-14.9c2.4-3.1,5-2.9,7.8-0.5
		C371.1,482.7,374.2,486.4,373.3,491.1z"/>
	<path id="XMLID_00000048485677137266988430000009309308804350055853_" d="M648.9,402c-4.8-1.4-9.3-2.2-13.4-3.9
		c-6.7-2.9-7.2-9.5-1.2-13.7c7.5-5.3,22.2-5.1,29.1,0.4c5.2,4.1,5,9.7-1,12.8C658.2,399.7,653.4,400.6,648.9,402z"/>
	<path id="XMLID_00000164486043668530506120000002861776670121274752_" d="M886.6,515.1c1.5-5.4,2.3-10.4,4.2-14.8
		c2.6-5.9,8.4-6.2,11.4-0.4c5.1,10,5.3,20.4-0.4,30.3c-2.9,5-8.1,4.9-10.5-0.3C889.1,525.2,888.1,520,886.6,515.1z"/>
	<path id="XMLID_00000133487797447918229690000000439466038832041367_" d="M51.3,422.1c-1.6,0.9-3.5,1.9-5.6,3.1
		c-6.2-4.7-11.3-11-14.9-18.5c-1.8-3.7-2.6-7.5,0.6-10.9c3.5-3.7,7.9-3.6,12.2-2.6c5.2,1.2,9.1,6.5,8.9,11.8
		C52.2,410.6,51.7,416.2,51.3,422.1z"/>
	<path id="XMLID_00000168076346214446750160000002864794206521963937_" d="M777,462.3c2-4.1,4.2-5.9,7.9-5.9
		c6.1,0,12.2-0.4,18.3-0.2c3.4,0.1,6.6,1.1,8.1,4.8c1.5,3.6,0.6,6.8-1.7,9.7c-5.2,6.7-9.2,7.6-16.1,3.1
		C788,470.3,782.6,466.3,777,462.3z"/>
	<path id="XMLID_00000147923526324697014740000017729042098756415414_" d="M472.5,333.4c-2.8,6.4-5.4,12.3-8,18.2
		c-0.4,0.9-1.2,1.8-2,2.5c-3.1,2.7-9.2,1.4-14.9-3.1c-4.1-3.2-5.1-6.4-3.2-10.6c3.5-7.9,12.2-11.6,21.4-9.2
		C467.9,331.7,470,332.5,472.5,333.4z"/>
	<path id="XMLID_00000022530651729355687750000009755114592900312485_" d="M749.1,383.7c0-7.6,5.1-13.6,11.5-13.7
		c6.5-0.1,11.7,5.9,11.7,13.6c0,7.6-5.1,13.6-11.5,13.7C754.3,397.3,749.1,391.3,749.1,383.7z"/>
	<path id="XMLID_00000086653455399418695100000010555211383602289068_" d="M541.9,359c-4.9,0.5-9.4-1.2-11.8-5.9
		c-2-4-2.1-8.5,0.9-12.4c3.3-4.2,10.7-5.5,15.7-2.8c4.6,2.5,6.7,8.4,4.9,14.3C549.5,359,549.5,359,541.9,359z"/>
	<path id="XMLID_00000103228730202471081590000004137964131438426298_" d="M573,539.4c4.2,1.7,8.7,2.8,12.5,5.2
		c4.1,2.6,3.6,6.8-0.4,9.7c-6.6,4.7-18.9,4.8-25.4,0.1c-4.4-3.1-4.6-8.1,0.2-10.6C563.7,541.7,568.1,540.9,573,539.4z"/>
	<path id="XMLID_00000053517631459178303020000010787639302754305941_" d="M430.2,530.7c0,7.2-4.1,12.9-9.3,13.1
		c-5.2,0.1-9.2-4.9-9.7-12.2c-0.6-7.7,3.5-14,9.3-14.3C426.1,517,430.2,522.5,430.2,530.7z"/>
	<path id="XMLID_00000064314803316687289400000013376694475912160672_" d="M907.8,693.4c-1.6,1.9-2.9,4.5-4.9,5.3
		c-1.1,0.4-4.2-2.1-5-3.9c-3.9-8.7-7.3-17.6-10.8-26.5c-0.3-0.8-0.4-1.8-0.2-2.7c0.4-1.8,1.1-3.6,1.7-5.4c1.6,1,3.8,1.6,4.6,3
		c4.7,8.5,9,17.1,13.4,25.8c0.5,1,0.3,2.4,0.4,3.6C907.3,692.9,907.5,693.2,907.8,693.4z"/>
	<path id="XMLID_00000087408030447043999550000005152353714836268728_" d="M1019.7,465.6c-1.9,3.2-3.4,6.9-5.9,9.5
		c-2.5,2.7-6.1,2.3-9-0.2c-4.6-4-5.8-11.1-3.1-17c1.6-3.4,3.9-5.6,8-5.4c4,0.2,6.4,2.2,7.6,5.9c0.7,2.1,1.1,4.3,1.6,6.5
		C1019.2,465.1,1019.5,465.3,1019.7,465.6z"/>
	<path id="XMLID_00000008833460568559647840000007577803903597714577_" d="M538.1,696.1c-0.6,0.9-1.3,3.2-2.7,3.8
		c-1.6,0.6-4.3,0.3-5.7-0.7c-6.1-4.2-9.1-18.8-5.4-25.2c0.9-1.6,2.5-3,4.1-4c2.4-1.5,4.6-0.7,5.2,2.1
		C535.2,679.8,536.5,687.5,538.1,696.1z"/>
	<path id="XMLID_00000150068461632929771820000007154250582305258680_" d="M491,519.5c6,0.1,10,4.3,10,10.4c-0.1,6-4.6,10-11,9.8
		c-5.7-0.2-9.9-4.5-9.8-10.2C480.2,523.5,484.7,519.3,491,519.5z"/>
	<path id="XMLID_00000023246744144725867930000017447913632656245390_" d="M969.6,598.9c6.1,0,10.3,4.2,10.2,10.3
		c-0.1,5.8-4.7,10.2-10.5,10.1c-5.7-0.1-10-4.7-9.9-10.7C959.5,602.8,963.6,598.9,969.6,598.9z"/>
	<path id="XMLID_00000172402970342563190970000012497221808607755652_" d="M863.8,445.1c-5.7,0.1-10.1-4.2-10-10
		c0-5.7,4-9.6,9.8-9.6c6.1,0,10.3,3.8,10.4,9.6C874,440.7,869.6,445.1,863.8,445.1z"/>
	<path id="XMLID_00000123436293440267564360000006797255596687746960_" d="M1075.8,661.9c-6.1,0-11.1-4.2-11-9.1
		c0.2-4.7,5.1-8.7,10.9-8.6c6.8,0,11,3.4,11,8.8C1086.7,658.2,1082.2,661.9,1075.8,661.9z"/>
	<path id="XMLID_00000085250791186443591410000013884134753591668652_" d="M1087.1,130.8c0.5-2.8,0.6-5.7,1.5-8.4
		c1.3-3.9,4.1-4.6,7.4-1.8c4.5,3.8,6.7,8.9,7.2,14.6c0.4,4.7-1.6,7.1-5.8,7.6c-5.3,0.6-9.1-1.9-9.7-6.5c-0.2-1.8,0-3.6,0-5.4
		C1087.4,130.8,1087.2,130.8,1087.1,130.8z"/>
	<path id="XMLID_00000169529909121082445760000005016444815697430455_" d="M957.1,416.8c-0.1,5.3-4.4,9.7-9.5,9.6
		c-5.4-0.1-9.9-4.7-9.7-10c0.2-5.4,4.2-9.1,9.8-9.1C953.5,407.4,957.2,411.2,957.1,416.8z"/>
	<path id="XMLID_00000145031456863457120970000011890280687117362850_" d="M1113.6,668.8c-2.8-0.9-5.3-1.3-7.3-2.4
		c-3.7-2.1-3.9-6.7-0.7-9.6c3.7-3.2,12.4-4.4,16.8-2.2c4.8,2.4,5.3,8.2,0.7,10.8C1120.2,667.1,1116.7,667.8,1113.6,668.8z"/>
	<path id="XMLID_00000129910862783633543320000015725115094868685466_" d="M632.5,377.1c-2.5-1.2-5.1-1.7-6.7-3.3
		c-5.6-5.5-10.8-11.3-16.2-17c-0.5-0.5-0.8-2.1-0.6-2.3c0.9-0.6,2.3-1.4,3-1.1c3.3,1.4,6.8,2.6,9.6,4.8c4.7,3.7,9,8,13.3,12.3
		c0.9,0.9,1.8,2.8,1.4,3.6C635.7,375.4,634,376,632.5,377.1z"/>
	<path id="XMLID_00000045585925861371835680000017854381078332254592_" d="M888.5,354.5c3.6,0,7.2-0.1,10.8,0
		c3.6,0.1,6.7,1.7,7.5,5.4c0.4,1.6-0.7,3.9-1.8,5.3c-2.3,3.1-5.4,3.7-8.8,1.8c-3.4-1.9-7-3.5-10.1-5.8c-1.7-1.3-2.6-3.7-3.8-5.6
		c2-0.7,4-1.5,6-2.2C888.4,353.8,888.5,354.1,888.5,354.5z"/>
	<path id="XMLID_00000021094298164887457520000006138110661901213591_" d="M920.6,733.9c-5.7-0.5-9.6-3.2-11.8-7.5
		c-1-1.9-0.7-5.3,0.4-7c1-1.5,4.5-2.7,6.1-2.1c3.6,1.5,7,3.9,9.8,6.6c1.3,1.3,1.8,4.8,1.1,6.6C925.4,732.1,922.5,732.8,920.6,733.9z
		"/>
	<path id="XMLID_00000181810205381907036950000010809618290258502282_" d="M484.1,472.3c-1.1,3-1.9,6.1-3.4,8.8
		c-1.9,3.3-4.9,3.2-7.4,0.4c-3.8-4.3-3.8-14.3-0.1-18.6c2.2-2.6,5.9-2.6,7.6,0.4C482.3,465.9,483,469,484.1,472.3z"/>
	<path id="XMLID_00000147916012862925256810000001036064548389637034_" d="M984.4,631.2c0.1-2.3,0.4-3.9,0.3-5.5
		c-0.1-4,2.4-6.1,5.7-7.2c4.5-1.5,9.2,0.1,11.2,3.7c1.8,3.3,1.1,6.2-1.5,8.6C996.8,633.8,986.4,633.6,984.4,631.2z"/>
	<path id="XMLID_00000019662668680110406840000010907407713691375802_" d="M376.9,370.4c0.1,4.7-2.9,8-7.3,8.1
		c-4.7,0.1-8.1-3.1-8.3-7.7c-0.1-4.6,3.3-8.1,7.9-8.1C373.7,362.7,376.8,365.8,376.9,370.4z"/>
	<path id="XMLID_00000010276930186783292300000012451606476093588378_" d="M1031.9,36c5.5,0,8.3,2.8,7.4,8.2c-0.5,3-1.5,6.4-3.3,8.7
		c-1.2,1.5-4.7,2.2-6.7,1.6c-1.1-0.3-1.6-3.9-1.9-6.1c-0.3-2.1,0.2-4.3-0.2-6.4C1026.4,38,1027.7,36,1031.9,36z"/>
	<path id="XMLID_00000053532554038020703780000014548091575244460946_" d="M990.2,378.5c-0.4,1.3-0.5,3.3-1.5,4.6
		c-1.1,1.4-3.1,2.9-4.7,2.8c-1.5-0.1-3.8-1.8-4.3-3.2c-0.9-2.4-1.3-5.5-0.6-7.8c0.6-2,2.9-4.2,4.9-4.8c3.3-0.9,4.6,2,5.5,4.7
		C990,375.9,990,376.9,990.2,378.5z"/>
	<path id="XMLID_00000155108861582179036110000000846986849640494270_" d="M997.7,436.7c-0.2,3.5-1.7,5.5-5.2,5.7
		c-3.5,0.1-5.5-1.9-5.6-5.2c-0.1-3.3,1.7-5.6,5.2-5.7C995.4,431.5,997.3,433.4,997.7,436.7z"/>
	<path id="XMLID_00000152240258501254702850000001576597285229036954_" d="M933.3,366.7c-4.3,6.3-7,5.6-14.4-3.6
		C922.3,359.4,929.4,361.2,933.3,366.7z"/>
	<path id="XMLID_00000031182839480885502300000011371357918393405630_" class="st0" d="M315.9,405.8c-5.5-2.7-2.6-6.5-1.9-9.6
		c0.7-2.9,2.6-4.4,6.2-2.9C318.8,397.3,317.4,401.5,315.9,405.8z"/>
</g>
</svg>