<?xml version="1.0" encoding="utf-8"?>
<!-- Generator: Adobe Illustrator 26.0.2, SVG Export Plug-In . SVG Version: 6.00 Build 0)  -->
<svg id="svg" version="1.0" xmlns="http://www.w3.org/2000/svg" xmlns:xlink="http://www.w3.org/1999/xlink" x="0px" y="0px"
	 viewBox="0 0 1198.3 807.7" style="enable-background:new 0 0 1198.3 807.7;" xml:space="preserve">
<g id="Layer_9">
	<path id="XMLID_00000124138317498407469720000000911607513020445074_" d="M254.1,374.1c-1.5,1-2.5,1.7-3.4,2.4
		c-4.5,3.3-7.1,2.9-9.7-1.9c-1.1-2.1-2.1-4.4-2.5-6.8c-2.4-13.4-8.7-24.7-17.6-34.8c-7.7-8.8-7.1-19.7,1.7-27.2
		c2.7-2.3,6.9-3.7,10.6-4.1c9.6-1,19.3-1,28.9-1.9c6-0.6,6.9-2.9,5.1-8.7c-0.6-2-1-5.9-0.1-6.4c3.1-1.6,6.8-2.1,10.3-2.9
		c0.1,0,1.1,2,0.8,2.3c-2.8,2.9,0.2,3.5,1.8,4.5c0.5,0.3,1.1,0.4,1.7,0.6c8.8,3.5,10.6,6.8,7.5,15.8c-1.5,4.4,0,6.7,3.7,8.3
		c3,1.3,6.2,2.4,9.3,3.6c6.5,2.7,10.4,7.3,10,14.6c-0.2,4.4-0.3,8.8-1,13.1c-1.7,9.6,1,18.6,3.2,27.6c2.1,8.3,0.8,11.8-7.4,14.8
		c-8.9,3.2-18.2,5.5-27.4,8.1c-0.6,0.2-1.5,0.1-2.1-0.2c-4.7-2.4-9.5-4.7-13.9-7.6c-1.9-1.2-2.9-3.8-4.3-5.8
		C257.6,379.3,256,376.9,254.1,374.1z"/>
	<path id="XMLID_00000132780475679603951520000003952565336623984562_" d="M476.9,429.5c-3.1,5.6-5.5,10.9-8.8,15.5
		c-2,2.8-5.9,7-8,6.5c-3-0.7-5.9-4.8-7.3-8.1c-2.8-6.9-2.1-14.2,0.7-21.2c2.5-6.1,7.8-8.5,13.6-10.5c3.1-1,7.6-1.6,7.2-5.6
		c-0.2-2-4.1-3.7-6.4-5.5c-0.6-0.5-1.3-0.7-2-1c-6.2-2.4-10.9-6.2-10.9-13.5c0-7.9,2.3-14.6,9.8-18.6c4-2.1,8.2-3.9,9.8-8.8
		c0.4-1.1,1.9-2.1,3.1-2.5c5.4-1.6,7.9-5.5,8.5-10.7c0.5-3.9,2.4-5.1,6.1-5c7.3,0.2,13.4,4.9,15.1,12.7c3.8,17.3,5.3,34.6-1.4,51.7
		c-2.6,6.6-5,13.3-7.8,19.9c-1.2,2.8-2.9,5.4-4.8,7.7c-3.9,4.9-6,4.9-11,1C480.8,432.4,479.1,431.2,476.9,429.5z"/>
	<path id="XMLID_00000147195767898319507250000016173920164333822132_" d="M364.9,378.8c1.4-1.9,2.4-3,3.1-4.4
		c7.7-14.4,20.7-18.1,35.6-17.8c4.7,0.1,9.1,5.1,9.5,11.3c0.7,11.6,0.1,23.2-5.6,33.6c-1.8,3.3-4.7,6.4-7.8,8.7
		c-4.4,3.3-9.4,1.3-11-4.1c-1-3.5-1.5-7.1-2.6-10.5c-1.6-5.1-4.8-6.9-10.1-5.9c-2.1,0.4-4.1,0.9-6.1,1.6c-4.7,1.6-9.1,2.3-12.7-2.3
		c-0.7-0.8-2.5-1.1-3.8-1.1c-6.7-0.1-13.4-0.5-20,0.3c-3.2,0.4-6.5,2.6-9.2,4.7c-3.6,2.9-6.7,6.4-10.3,10c-1.9-3.1-3.4-5.4-4.7-7.7
		c-1.8-3.5-0.9-6.2,2.8-7c6.6-1.3,9.8-4.9,11.8-11.4c1.4-4.7,5-8.9,8.4-12.7c3.1-3.5,5.4-2.8,7.8,1.2c4.8,8.2,4.8,8,14,5.1
		c1.5-0.5,4,0.3,5.3,1.4C361.4,373.8,362.8,376.2,364.9,378.8z"/>
	<path id="XMLID_00000110431756040046923250000016401886649030499500_" d="M640.3,479.3c18.6-1.2,36.3,4.3,54.1,8.1
		c5.9,1.3,11.8,2,16.9,6c5.8,4.5,6.9,16.8,1,21.4c-6.2,4.9-13.1,7.6-21.1,3.8c-2.5-1.2-4.9-2.4-7.4-3.5c-5.1-2.2-10.1-4.4-15.3-6.5
		c-4.1-1.6-6.5-4.2-6.2-8.9c0.2-3.2-0.9-3.8-4.3-3.5c-11.3,0.9-22.6,1.7-33.9,1.4c-6-0.1-8.5-4.2-8.6-9c-0.2-5.9,4.5-8.8,10.1-9.2
		c2.4-0.2,4.9-0.1,7.3-0.1C635.4,479.2,637.8,479.3,640.3,479.3z"/>
	<path id="XMLID_00000023275911392257811510000010899684556124481978_" d="M535.7,480.2c-4.6,3.2-9.3,6.5-14,9.7
		c-7.5,5.1-15.3,4-22.9,0.7c-1.6-0.7-3.1-3.4-3.3-5.3c-0.7-5.3,1.7-9.8,5.2-13.6c2-2.2,4.3-4.3,6.7-6.1c7.3-5.6,10.9-5.4,17.8,0.9
		c5.1,4.6,5.3,4.5,10.6,0.5c4.4-3.4,8.8-7,13.6-9.7c6.2-3.4,10.3-1.6,13.2,4.7c2.4,5.2,5,10.4,6.5,15.9c1.7,5.8-0.4,8.9-6.1,10.6
		c-9.3,2.7-17.6,0.7-24.7-6c-0.7-0.6-1.3-1.3-1.9-1.9C536.3,480.4,536.1,480.4,535.7,480.2z"/>
	<path id="XMLID_00000029006324890095783350000012597894004684293287_" d="M678,373.4c1.1-4.2,2.3-8.4,3.2-12.6
		c0.4-1.8,0.6-3.8,0.3-5.6c-0.7-4.6,1.3-7.8,5.9-8.3c2.1-0.2,4.2-0.1,6.3,0.3c3.3,0.6,5.4,2.2,4.5,6.2c-0.6,2.9-0.4,6-0.8,9
		c-0.4,3.2,0.5,4.8,4,4.8c7.6,0.1,12.5-3.8,13.9-11.5c0.4-2.2,0.3-5.1,1.6-6.4c1.8-1.8,5-3.6,7.2-3.2c3.6,0.7,6.9,3.1,10,5.2
		c0.6,0.4-0.1,3.2-0.7,4.6c-2.1,4.9-2.7,9.8-1.1,15c1.2,3.9,0.2,7.3-3.5,9.3c-4.4,2.4-8.8,4.6-13.4,6.7c-1,0.4-2.6-0.2-3.8-0.7
		c-2.1-0.9-4.3-1.9-5.9-3.4c-4.8-4.4-9.1-2.9-14-0.1c-9.4,5.6-13.1,3.4-13.3-7.6c0-0.6,0-1.2,0-1.8
		C678.5,373.5,678.2,373.5,678,373.4z"/>
	<path id="XMLID_00000116935579365848751130000016932313937772529549_" d="M915.1,389.2c6.4,0.3,12.6,1.6,17.9,5.5
		c4.1,3.1,6.7,7,7.1,12.1c0.3,3.9-0.9,7.1-5.1,8.5c-7.2,2.4-12.8,6.9-16.4,13.6c-1.8,3.2-4.3,3.5-7.3,2.2
		c-7.7-3.3-17.2-19.5-16.3-27.8c0.8-6.9,8.9-13.5,17.4-14.1C913.3,389.1,914.2,389.2,915.1,389.2z"/>
	<path id="XMLID_00000062158620727685568950000006595386932680119455_" d="M814.9,329.5c-2.4,0.7-4.9,1.3-7.3,2.2
		c-1.7,0.6-3.6,1.2-4.8,2.4c-1.2,1.3-2.4,3.4-2.2,5c0.1,1.2,2.4,2.5,4,2.9c4.3,1.3,8.8,2.1,13.2,3.3c4.4,1.3,6.2,3.9,5.4,8.9
		c-1.4,7.9-5.5,13.8-11.8,18.1c-7.2,5-18-0.2-18.3-8.7c-0.1-4.4-2-7.2-5.4-9.2c-6.8-3.9-7.9-10.4-7.9-17.2c0-4.4,3.6-7.1,7.2-7.8
		c8.1-1.6,16.4-2.3,24.7-3.1c1.1-0.1,2.4,1.1,3.6,1.8C815.1,328.5,815,329,814.9,329.5z"/>
	<path id="XMLID_00000078022858839200410520000005655494970519258543_" d="M512.8,536.9c6.7,0.6,13.4,1,20.1,2
		c2.5,0.4,5.1,2,6.9,3.8c2.6,2.7,3.5,6.1,0.3,9.2c-5.3,5.1-10.7,9.4-18,12.2c-6.8,2.5-11.4,1-16.7-1.6c-6.1-3-12.3-5.8-18.2-9.1
		c-6.1-3.4-6-5.4-0.5-9.9c5.4-4.5,11.8-5.8,18.5-6c2.5-0.1,5,0,7.6,0C512.8,537.2,512.8,537,512.8,536.9z"/>
	<path id="XMLID_00000135650598536254315530000000121396394215513238_" d="M842.1,662.2c-8-0.5-10.6-2.6-9.1-10.5
		c1.6-8.1,4.7-15.9,7.7-23.6c3.2-8.3,6.5-16.8,13.5-22.8c1.5-1.3,3.8-1.8,5.7-2.6c0.7,2.1,2.1,4.2,2,6.2c-0.5,11.5-1.4,23-2.1,34.4
		c-0.2,2.9-0.6,5.8-0.4,8.6c0.4,4.9-1.9,7.4-6.4,8.3C849.5,660.9,845.8,661.5,842.1,662.2z"/>
	<path id="XMLID_00000121961560716291840530000011886120505604683925_" d="M768.7,455.7c11.2,0,18.9,6.8,18.8,16.5
		c0,4.8-2.2,8.5-5.7,11.4c-7.9,6.5-20.5,6-27.9-0.9c-4.1-3.8-5.9-10.9-3.8-15.9c2.9-6.7,8.2-10.3,15.4-11.1
		C766.6,455.6,767.7,455.7,768.7,455.7z"/>
	<path id="XMLID_00000011729876624557048260000007126925210734280871_" d="M334.2,503.4c-3.7-5.5-3.6-11.4-0.4-16.6
		c6-9.9,14.6-16.9,25.8-20.3c9.7-3,15.2,2.4,12.9,12.2c-2.1,8.9-5.3,11.8-14.2,12.7c-7,0.7-12.6,4.1-17.1,9.3
		c-2,2.2-4.2,3.4-7.1,2.6L334.2,503.4z"/>
	<path id="XMLID_00000068660537286835072240000018368322722278370700_" d="M435.6,545.9c-2.4-6.8-2.7-13.2-1.5-20
		c1.2-6.5,1.2-13.2,2.2-19.8c1.3-9.3,5.9-14.4,13.1-15.2c4.7-0.5,8.3,2.4,8.6,7c0.1,1.4,0.3,2.8-0.1,4.1c-3.4,11-6.7,22-10.6,32.8
		C445.5,540.1,441.6,544.1,435.6,545.9z"/>
	<path id="XMLID_00000071532703281178566770000013403307565140668081_" d="M434.2,424.6c-0.8,8.3-4.4,13.2-10.9,15.7
		c-4.4,1.7-7.5,0.4-9.7-3.8c-2.4-4.7-4.7-9.5-7.4-14c-2.8-4.7-2-9.2,0.7-13.2c3.3-5.1,8-8.9,14.4-9c3.5-0.1,6.2,1.9,5.8,6
		c-0.6,5.7,1,10.3,5.2,14.3C433.5,421.8,433.9,423.9,434.2,424.6z"/>
	<path id="XMLID_00000098184752243150840070000012697918545467178408_" d="M641.5,415.6c-9.4,0-16.4-6.4-16.5-15
		c-0.1-8.5,7.4-15.1,17-15.1c9.8,0,16.8,6.5,16.7,15.3C658.6,409.6,651.6,415.6,641.5,415.6z"/>
	<path id="XMLID_00000068652528047403572020000013235460289911234696_" d="M420.9,497.5c-1.6-1.2-4.4-2.1-5.3-4
		c-2.2-4.4-2.2-9.3,1.1-13.3c2-2.4,4.6-4.3,7.2-6.2c8.3-5.8,12.8-13.9,15-23.6c0.3-1.3,0.2-2.9,1-3.9c1.1-1.5,2.6-3.2,4.2-3.6
		c0.9-0.2,2.5,2,3.6,3.3c3.4,4.2,2,8.2,0.1,12.7c-3.2,7.3-5.7,14.9-8.5,22.4c-2.2,6-5.1,11.4-11.3,14.1
		C426,496.3,423.9,496.6,420.9,497.5z"/>
	<path id="XMLID_00000171708465529180059120000008558400274188528554_" d="M138.2,345.7c-2-0.4-3.9-1.1-5.8-1.2
		c-2.4-0.1-4.5,0.2-4.6,3.6c0,1.5-0.9,4.2-1.6,4.3c-2.4,0.3-5.6,0.5-7.1-0.9c-2.2-2-4.1-5.1-4.6-8c-2-11.5,1.4-21.3,11.1-28.3
		c0.7-0.5,2-0.9,2.8-0.7c11.9,2.1,18.2,16.5,11.9,26.7C139.5,342.4,139,343.9,138.2,345.7z"/>
	<path id="XMLID_00000008142816941822889310000015300014783172431519_" d="M954.9,404.8c9.2,6,18.5,11.9,27.6,18.1
		c8.3,5.6,4.5,17.2-1.2,21.5c-1.4,1-4.6,1.4-5.8,0.6c-9.7-7.1-19-14.9-22.8-26.8c-1.2-3.8,0-8.4,0.2-12.7
		C953.5,405.2,954.2,405,954.9,404.8z"/>
	<path id="XMLID_00000083049945447930901260000006101969476677134743_" d="M609.1,652.3c0.4-3.5,0.6-6.9,1.2-10.3
		c1-5.1,3.8-6.1,8.1-2.9c1.5,1.1,2.9,2.3,4,3.7c7.6,9.7,13,20.7,17.1,32.3c1.5,4.3-0.1,8.2-3.5,9.5c-4,1.5-8.2-0.3-10.1-4.5
		c-0.9-1.9-1.5-4-2-6c-0.8-3.5-2.5-6.2-6-7.3C610.7,664.4,607.5,659.9,609.1,652.3z"/>
	<path id="XMLID_00000009568482937028503110000003096748016371225230_" d="M973.9,550c0,13.6-2.7,15.2-14,8.9
		c-8.6-4.7-15.3-10.9-16.9-21.2c-0.2-1.2-0.3-2.4-0.3-3.6c0.1-8.1,3.2-9.9,10.1-6.1c3.6,2,7.2,3.9,10.9,5.6
		C971,537.1,975.3,542.3,973.9,550z"/>
	<path id="XMLID_00000169549777222074131930000001690866895059805092_" d="M928.5,489.9c-0.8,6.6-3.4,12.1-7.5,13
		c-5.7,1.2-9-2.7-11.8-6.7c-5.5-8.2-6.6-17.1-2.9-26.3c1.7-4.1,4.5-7.2,9.5-6.9c4.7,0.2,7.1,3.5,8.2,7.3
		C925.9,476.7,927.1,483.4,928.5,489.9z"/>
	<path id="XMLID_00000181774868571088891420000012912065727778448770_" d="M405.8,348.2c-2.2-2-4.8-3.5-5.9-5.8
		c-2.5-5.3-4.5-10.9-6.4-16.5c-1.3-3.8,5.7-10.2,9.9-8.5c7.8,3.2,15.6,6.6,22.7,11.1c5.9,3.7,5.6,8.7-0.6,11.9
		C419.6,343.5,413,345.4,405.8,348.2z"/>
	<path id="XMLID_00000183226754815965796900000005202194512712959395_" d="M846.4,697.2c-4.9-0.8-9.9-1.3-14.7-2.5
		c-6.4-1.7-8.3-7.7-4.3-13c5.1-6.8,19.2-10.4,27-7c6.3,2.8,9.6,12.5,5.7,18.2c-1.3,1.8-4,2.9-6.4,3.6c-2.3,0.6-4.8,0.1-7.2,0.1
		C846.4,696.8,846.4,697,846.4,697.2z"/>
	<path id="XMLID_00000133496164981986292780000013212260551704717191_" d="M854.4,563.2c-2.4,4.5-3.8,8.7-6.5,11.9
		c-3.1,3.6-7.2,6.4-11.2,9.2c-2.6,1.9-5.5,4.2-9,1.3c-3.5-2.8-5.5-6.5-4.4-10.8c1-3.8,2.7-7.8,5.1-10.9c2.6-3.4,6.2-6.2,9.7-8.8
		c3-2.3,7-5,10.3-2.4C851.2,554.9,852.3,559.3,854.4,563.2z"/>
	<path id="XMLID_00000057134538391603841050000009783724152599502752_" d="M549.8,559.4c5.6,1.1,11.2,1.9,16.7,3.3
		c2.9,0.8,6.2,2.1,6,6.3c-0.3,4.6-3.7,6.3-7.4,6.6c-6.5,0.5-13,0.3-19.5,0.6c-3.1,0.2-6.1,1.4-9.1,1.6c-2.3,0.1-5.3-0.1-7-1.4
		c-2.5-2-2.9-5.2-1.2-8.2c2.8-4.9,7.7-6.6,12.9-7.5c2.8-0.5,5.7-0.5,8.5-0.7C549.7,559.8,549.8,559.6,549.8,559.4z"/>
	<path id="XMLID_00000017515593871663655450000005484978407436127162_" d="M856.7,346.7c7.9,0,13.8,6,13.8,14.2
		c0.1,8-5.9,13.9-14,14c-8.2,0.1-14.4-6-14.4-14.2C842.2,352.6,848.3,346.7,856.7,346.7z"/>
	<path id="XMLID_00000125582831905779686780000001830000201725012865_" d="M658.4,354.7c2.8,0.2,5.7,0,8.4,0.7
		c2,0.5,4.7,1.9,5.1,3.4c0.6,2.1,0,5.3-1.3,7c-6.5,8.1-22.6,10.9-31.8,5.9c-3.2-1.7-5.2-4.2-4.7-8c0.5-3.9,2.8-6.6,6.5-7.2
		c5.9-1,11.8-1.4,17.8-2.1C658.4,354.5,658.4,354.6,658.4,354.7z"/>
	<path id="XMLID_00000090283663648193347190000001751339119075552145_" d="M350.9,344.2c-0.8,3-1.2,5.8-2.4,8.1c-2,4.1-5,7.2-10,7.4
		c-5.1,0.3-8.4-2.7-10.6-6.6c-3-5.6-2.9-11.4,0-17.4c3.6-7.4,15.5-9,20.2,0.1C349.5,338.4,350,341.5,350.9,344.2z"/>
	<path id="XMLID_00000151543915777017584530000008589979290264025001_" d="M805.8,443c-0.3-0.1-1.7,0-2.6-0.6
		c-6.4-4.3-12.7-8.5-18.8-13.1c-1.2-0.9-2.4-4-1.8-5c1.1-1.8,3.4-3.3,5.5-4.1c1.7-0.7,3.9-0.2,5.8-0.1c4.3,0.1,8.6,0.5,13,0.5
		c6.7,0,9.9,3.4,10.1,11C817.1,437.8,812.3,443.1,805.8,443z"/>
	<path id="XMLID_00000061435938586254157180000008936871443382569375_" d="M469.3,322.7c-1.8,5.4-3.1,9.9-4.8,14.2
		c-0.7,1.7-2.2,3.3-3.7,4.5c-3.8,3.1-8.9,1.8-15.4-3.7c-5.2-4.4-6-7.2-3.4-12.1c4.9-9.2,12.5-12.6,22.4-9.3
		C466.5,317,467.6,320.5,469.3,322.7z"/>
	<path id="XMLID_00000085227154245648127150000002165336735743194007_" d="M541.7,341.5c-9-0.2-16.2-7.2-16-15.8
		c0.1-5.6,5-8.8,13-8.7c8.8,0.2,15.2,5.4,14.9,12.5C553.4,336.6,548.5,341.6,541.7,341.5z"/>
	<path id="XMLID_00000085968719334928679420000006092719176465246887_" d="M504.5,509.8c-0.4,0.8-0.8,2.6-2,3.6
		c-5.4,4.4-10.7,9-16.7,12.3c-2.3,1.3-7.1,0.2-9.5-1.5c-1.8-1.4-2.5-5.7-2.1-8.4c1-6.4,5.6-10.4,11.6-12.2c3.7-1.1,7.7-1.5,11.6-1.7
		C501.4,501.6,504.5,504.9,504.5,509.8z"/>
	<path id="XMLID_00000021835140599404022190000005622862973696155020_" d="M47,394.4c-4.9-3.6-10.5-7.4-12.6-14.5
		c-0.6-2-2-3.7-3-5.6c-3.1-6.1,0.9-12.3,7.8-12.1c10.9,0.3,18,8.9,15.5,19.1c-0.3,1.4-1,2.8-1.8,4.1C51.1,388.3,49.3,391,47,394.4z"
		/>
	<path id="XMLID_00000168838332782393929750000003047944990056279949_" d="M960.8,467.4c-7.4-0.3-12.6-5.9-12.4-13.3
		c0.2-7.2,5.8-12.3,13.5-12.1c6.9,0.2,12.2,5.8,12.1,12.6C973.7,461.9,967.8,467.7,960.8,467.4z"/>
	<path id="XMLID_00000124845922289675475950000009248722742051876480_" d="M1005,558.3c5.3,0.3,11.3,4.1,13.3,8.7
		c1.7,4,0.3,10.3-3.8,13.5c-1.9,1.5-4.9,2.4-7.3,2.1c-8.3-1-15.2-9.1-14.8-17.4c0.1-1.8,2.1-4.3,3.8-5.1
		C998.9,558.9,1002.1,558.9,1005,558.3z"/>
	<path id="XMLID_00000056401250985212434510000002625114358976783275_" d="M762.1,360.9c-7.1,0-12.4-5.1-12.5-12.1
		c-0.1-7.2,5.2-12.5,12.5-12.5c6.7,0,12.2,5.3,12.4,11.9C774.7,355.2,769.2,360.9,762.1,360.9z"/>
	<path id="XMLID_00000067194204304437826830000004500123275393890709_" d="M422.7,516.1c0.1,5.8-1.3,11.1-5.1,15.7
		c-3.6,4.2-7.1,4.4-11.2,0.7c-5.4-4.9-6.2-9.1-2.6-15.3c2.3-3.7,4.8-7.4,7.7-10.6c1.4-1.5,4.2-2.7,6.1-2.4c1.6,0.3,3.2,2.9,3.9,4.8
		C422.5,511.1,422.4,513.7,422.7,516.1z"/>
	<path id="XMLID_00000131343017006296520310000016591976956978419880_" d="M549.2,493.5c8.8,0.2,11.8,3,11.3,8.9
		c-0.2,1.8-1.4,4.2-2.9,4.9c-4.2,2.2-8.9,5.1-13.3,5c-4.9,0-9.8-2.8-14.7-4.7c-0.5-0.2-0.8-2-0.6-2.8c0.3-1.3,1-3,2-3.4
		C537.7,498.4,544.5,495.5,549.2,493.5z"/>
	<path id="XMLID_00000119108140541783440370000003064267928264475031_" d="M575.7,534.9c-4.5-1.1-8.9-1.7-12.9-3.3
		c-1.9-0.7-4-3.2-4.3-5.1c-0.2-1.5,1.7-4.3,3.4-5.1c8.9-4.2,18.2-4.3,27.1,0c1.7,0.8,3.6,3.4,3.6,5c-0.1,1.7-2.1,4.2-3.9,4.9
		C584.7,533,580.2,533.8,575.7,534.9z"/>
	<path id="XMLID_00000147933999126397054450000006350242763778207669_" d="M354.5,332c-7.1-0.1-10.4-3.5-8.9-9.2
		c1.2-4.4,3.3-8.7,5.4-12.8c1.4-2.8,4.3-3.1,6.7-1.4c3.9,2.8,7.8,5.7,10.8,9.3c1,1.2,0.3,5-0.8,6.8
		C364.4,329.7,359.2,331.6,354.5,332z"/>
	<path id="XMLID_00000075134938762420717880000014582890775619336103_" d="M867.2,393.2c6.3,0.2,11.6,5.7,11.3,11.7
		c-0.4,6.5-5.8,11.3-12.5,11c-6-0.2-10.9-5.6-10.6-11.8C855.6,397.7,860.7,393,867.2,393.2z"/>
	<path id="XMLID_00000080185619803027465960000014302200795612002702_" d="M602.4,330.6c4.2-4.5,9-2.7,13.1-2.2
		c3.3,0.4,6.5,2.3,9.4,4.1c4.6,2.8,8.8,6.3,13.4,9.2c2.8,1.8,3.4,3.7,2.3,6.8c-1.1,3-2.6,3.5-5.5,2.6c-1.7-0.5-3.6,0-5.4-0.2
		c-1.2-0.2-2.8-0.7-3.4-1.6c-5.4-7.9-13.3-12.5-21.4-17C604.3,331.7,603.7,331.3,602.4,330.6z"/>
	<path id="XMLID_00000140730703822714884910000005473784951359917700_" d="M1014.6,434.5c-2.2-1.4-4.9-2.4-6.4-4.4
		c-2.2-3-4-6.4-5.2-9.9c-1.7-4.8,1.8-8.6,7.1-8.2c6.4,0.5,13.2,8.4,12.8,14.8C1022.5,431.3,1019.6,433.9,1014.6,434.5z"/>
	<path id="XMLID_00000180340284551560848660000014753219538365347487_" d="M490.9,460.1c-1.5,3.5-2.7,7.1-4.6,10.1
		c-2.1,3.3-5.8,3.2-8.5,0.5c-4.7-4.7-5.1-16-0.7-21c2.8-3.2,7.4-3.2,9.6,0.4C488.5,453,489.4,456.3,490.9,460.1z"/>
	<path id="XMLID_00000067216447574933825470000014199251309276030899_" d="M957.4,390.2c-0.5,0.6-1.3,2.8-2.6,3.1
		c-2.8,0.6-7,1.4-8.4,0c-3.5-3.6-6.2-8.1-8.1-12.7c-0.7-1.6,1.4-5.6,3.3-6.7c1.8-1.1,5.3-0.7,7.5,0.3
		C953.2,375.9,957.6,384.6,957.4,390.2z"/>
	<path id="XMLID_00000124122319995962629380000016936042399749256376_" d="M1117.6,134c1.2-2.5,2.1-6,4.2-8.2
		c1.7-1.7,5.3-2.7,7.6-2.1c1.6,0.4,3.5,4.1,3.4,6.1c-0.3,4.7-1.6,9.4-3.1,14c-0.5,1.4-2.8,3.4-4.1,3.2c-1.9-0.2-4.4-1.6-5.3-3.2
		C1118.9,141.2,1118.6,137.9,1117.6,134z"/>
	<path id="XMLID_00000030462872403480126890000009226134048238516901_" d="M1029.5,550.6c-5.6,0-9.5-3.8-9.4-9.3c0-5.3,3.8-9,9.2-9
		c5.4,0,9.1,3.7,9.1,9.1C1038.3,547,1034.9,550.6,1029.5,550.6z"/>
	<path id="XMLID_00000151534724601372709550000013407754517439689405_" d="M898.4,341.7c-8-1.3-14.2-5.1-19.6-10
		c-0.6-0.6-0.2-3.6,0.7-4.2c1.3-0.9,3.4-1.2,5.1-1c4.1,0.5,8.4,0.9,12.3,2.4c2.6,0.9,5.1,3.2,6.5,5.5c0.7,1.1-1,4-2,5.8
		C900.7,341,899.1,341.3,898.4,341.7z"/>
	<path id="XMLID_00000042708659568818522670000014259102700873157547_" d="M1038.3,597.9c0,4.9-3.8,8.9-8.7,9.1
		c-5,0.1-9.1-4.1-9.1-9.2c0.1-5,4-8.8,9-8.8C1034.6,589,1038.3,592.8,1038.3,597.9z"/>
	<path id="XMLID_00000131329237075602098810000000342484149003708585_" d="M1084.8,649.2c7.5,4.9,11.4,12,15.8,18.5
		c-0.4,0.7-0.5,1-0.7,1.2c-8.4,5.1-10.1,4.4-14.2-5C1083.5,659.4,1082,655.1,1084.8,649.2z"/>
	<path id="XMLID_00000142145075623456525910000005707407781589830549_" d="M988.1,351.1c0.1,5.1-2.6,8.7-6.5,8.8
		c-3.6,0.1-6.6-3.7-6.7-8.2c-0.1-5,2.7-8.6,6.6-8.6C985.5,343.1,988,346.1,988.1,351.1z"/>
	<path id="XMLID_00000119078045417885897200000011832414845067160485_" d="M1113.6,672.9c3.7,3.5,7,6.6,10.5,10
		c-1.3,3.8-4.5,6.3-7.9,6c-3-0.3-7.1-2.4-8.3-4.9C1105.3,678.9,1110.8,676.6,1113.6,672.9z"/>
	<path id="XMLID_00000180353954555973168770000015026414793426416256_" d="M370.7,345.1c8.2,6.8,7,9.6,0,15.8
		c-2.3,2-4.8,1.7-6.7-0.7c-1.8-2.2-3.9-4.4-0.7-7.3C365.9,350.5,368.2,347.8,370.7,345.1z"/>
	<path id="XMLID_00000070120166879820780070000003712171693193639833_" d="M334,503.3c1.9,1.9,4,3.6,5.7,5.6c1.4,1.7,4.1,4,1.3,6
		c-1.8,1.3-5.9,2.1-7,1.1c-2.7-2.6-5.1-6.2-6.1-9.8c-0.9-3.3,1.7-4.3,6.2-2.8C334.2,503.4,334,503.3,334,503.3z"/>
	<path id="XMLID_00000159463060669405183800000007398156955758410126_" d="M1097,29.7c-1.1,1.3-2.2,3.6-4.1,4.4
		c-2.7,1.2-4.5-0.8-5.5-3.4c-0.4-1.1-1.1-2.2-1.3-3.4c-0.6-2.6-2.1-5.7,1.7-6.9c3.5-1.1,6.2,0.4,7.8,3.7
		C1096.3,25.5,1096.4,27.1,1097,29.7z"/>
	<path id="XMLID_00000161631043416552523120000011762572966787761820_" d="M974.8,591.6c-2.3-2.6-4.4-4-4.7-5.7
		c-0.4-2.9,2.2-3.9,4.6-3.3c1.7,0.4,3,2.1,4.5,3.2C978,587.4,976.8,588.9,974.8,591.6z"/>
	<path id="XMLID_00000095327579882381708450000013841986954092532624_" d="M925.6,339.1c-2.1,1.5-3.3,2.5-4.6,3.4
		c-1-1.4-2.9-2.9-2.9-4.2c0.1-1.3,2.1-2.5,3.3-3.8C922.6,335.8,923.8,337.1,925.6,339.1z"/>
</g>
</svg>