<?xml version="1.0" encoding="utf-8"?>
<!-- Generator: Adobe Illustrator 26.0.2, SVG Export Plug-In . SVG Version: 6.00 Build 0)  -->
<svg id="svg" version="1.0" xmlns="http://www.w3.org/2000/svg" xmlns:xlink="http://www.w3.org/1999/xlink" x="0px" y="0px"
	 viewBox="0 0 1198.3 807.7" style="enable-background:new 0 0 1198.3 807.7;" xml:space="preserve">
<g id="Layer_1">
	<path id="XMLID_00000070800602576477573800000000912562084977447566_" d="M264.4,313.2c6.1-2.1,11.1,0.9,16.1,2.4
		c0.8,0.2,1.3,3,1.2,4.6c-0.7,11.3,4.5,19.4,13.2,25.9c6.4,4.7,11.8,10.4,12,18.9c0.1,4.6-1,9.2-1.8,13.8c-0.7,4.2-1.9,8.3-2.5,12.4
		c-0.8,5.5,0.7,8.3,5.7,11c3.1,1.7,5.7,4,5.3,7.8c-0.5,3.9-3.2,6-7.1,6.6c-2.4,0.3-4.8,0.7-7.2,0.9c-5.7,0.6-10.4,2.6-13.8,7.6
		c-5.9,8.5-8,8.6-16.8,2.5c-4.1-2.8-8.5-5-12.7-7.6c-0.8-0.5-1.7-1.3-2.1-2.2c-1.6-3.9-3-7.9-4.6-12c-2.5,0.8-4,1.6-5.6,1.8
		c-7,1-11.4-3.5-10.7-12.4c0.5-6.9-1.4-12.7-4.8-18.4c-4-6.8-7.8-13.7-12-20.3c-5.5-8.8-2.4-21.3,7.1-25.3
		c9.5-3.9,19.8-4.5,29.8-2.7c4.5,0.8,7.6,0.2,10.7-2.7c3-2.8,2.7-6.1,1.2-9.6C264.8,315.3,264.7,314.5,264.4,313.2z"/>
	<path id="XMLID_00000100343773406656837450000008083886034597902774_" d="M511.2,434.7c-3.4,1.8-4.5,4.2-4.5,7.9
		c0.1,3.4-1,6.9-2.1,10.1c-1.1,3.4-4.4,4.2-8.3,2.4c-10.6-4.9-16.9-22-11.8-32.5c1-2.1,3.3-3.9,5.4-5.2c2.3-1.4,5.2-1.7,7.6-3
		c1.1-0.6,2.2-2.2,2.3-3.5c0.1-0.8-1.4-2.2-2.4-2.6c-3.2-1.3-6.7-2-9.9-3.2c-7.4-2.9-12.3-7.8-13.6-16.1c-0.8-5,1.2-8.6,4.3-11.9
		c5.1-5.4,10.7-10.4,15.7-15.8c6-6.5,6-6.8,13.3-1.7c15.2,10.6,23.5,25.6,25.5,43.7c0.9,8.3-0.1,16.8-0.7,25.2
		c-0.2,2.4-1.4,5-2.7,7.2c-3.3,5.5-5.6,5.9-11.1,2.8C515.9,437.3,513.6,436,511.2,434.7z"/>
	<path id="XMLID_00000065056662194530212550000007701501435923672968_" d="M331.9,421.1c0.4,5.1-4.6,13.2-7.9,13.7
		c-4.8,0.7-13.8-4.8-15-9.2c-0.9-3.4,1.1-4.9,3.7-6.3c2.1-1.2,4.5-2.3,6.1-4.1c5.1-5.8,10-11.8,14.6-18c2.4-3.1,4.3-2.8,6.5-0.2
		c2,2.4,4,5,5.7,7.6c2,3,4.7,4.4,7.7,2.5c7.2-4.5,12.7-2,17.9,3.4c1.2,1.3,2.9,2.1,4.4,3.2c4.7-15.3,14.6-25.4,28.7-31.4
		c11.4-4.8,19.3,1.9,17.7,14.2c-1,7.6-0.4,14.7,4.1,21.3c2.9,4.3-2.5,16.2-7.6,16.6c-2.4,0.2-5.4-1.4-7.4-3.1
		c-1.9-1.7-2.7-4.6-4.2-6.9c-3-4.7-5.8-5.9-11.1-4.6c-3.5,0.9-7,2-10.3,3.4c-3.9,1.7-7.5,2-11.3-0.2c-1.2-0.7-3.3-1.3-4.2-0.7
		c-8.2,4.6-16.3,1.3-24.5,0.3C340.9,422,336.6,421.6,331.9,421.1z"/>
	<path id="XMLID_00000111149135398078683330000007378082074310711987_" d="M642.8,515.6c19.1,0.6,36.4,4.7,52.4,12.5
		c7,3.4,13.4,9.3,18.1,15.6c3.1,4.2,4.6,10.8,1.7,16.8c-2.4,4.9-11.9,7.5-19,3.9c-5.5-2.8-10.9-5.9-16.4-8.8
		c-2.5-1.3-5.5-2.2-7.7-3.9c-2.6-2-5.4-4.4-6.7-7.3c-2.9-6.3-5.4-8.4-12.4-8.5c-6.2-0.1-12.4-0.1-18.5-0.9c-3.5-0.5-7-2.3-8.1-6.4
		c-1.6-5.8,0.9-10.3,6.9-11.7C636.6,515.9,640.2,515.9,642.8,515.6z"/>
	<path id="XMLID_00000082333216549136696390000001255742178467360942_" d="M883.7,447.2c0.2-7.6,1.9-11.7,11.4-13.9
		c12.7-3,22.9-0.4,32,8.5c3.5,3.4,4.6,7.4,3,12c-1.6,4.6-4.5,7.6-9.6,8.5c-6.3,1.1-11.8,3.5-15.4,9.3c-2.6,4.1-6.1,4.3-10,1.1
		C886.9,466.1,883.4,457.5,883.7,447.2z"/>
	<path id="XMLID_00000130647270729294439300000016588639403318013631_" d="M1030.2,710.2c0,0.4-0.1-0.4,0.1-1.1
		c2.2-9.4-0.7-17.2-6.8-24.4c-5.2-6.1-1.2-16.5,6.7-18.3c4.5-1,7.8,1.2,9.7,7.3c2.8,8.8,7.7,16.1,14.4,22.2c1.7,1.5,4.4,2.1,6.7,2.8
		c1.8,0.6,3.9,0.5,5.6,1.4c3.5,1.8,4.4,5.7,1.5,8.1c-6.9,5.6-13.9,11.4-21.6,15.7C1039.2,728.1,1030.1,720.6,1030.2,710.2z"/>
	<path id="XMLID_00000093152374897545114400000014276979633143932349_" d="M703,414.1c-2.4,1.5-4.8,2.7-7,4.3
		c-2.4,1.7-5.1,2.2-7,0.1c-2.2-2.4-4.6-5.5-5-8.5c-0.7-4.8,0.3-9.8,0.2-14.7c-0.2-8.7,3.8-13.5,10.7-12.9c3.3,0.3,4.7,1.9,4.8,4.9
		c0.1,3.8,0,7.6,0.1,11.4c0.1,5.4,2.4,6.9,7.6,5.4c4-1.1,6-3.9,7-7.7c0.6-2.2,0.7-4.7,1.8-6.5c1.1-1.8,3.1-4.2,4.8-4.3
		c2.3-0.2,5,1.2,7.1,2.6c1.2,0.8,2.1,2.9,2.1,4.4c-0.1,8.4,0.3,17-1,25.2c-1.1,6.7-11.1,9.4-16.6,5.1
		C709.1,420.2,706.2,417.1,703,414.1z"/>
	<path id="XMLID_00000169545366406672321030000015907148037924650895_" d="M815.7,365.4c-3.4,1.3-6.8,2.5-10.2,3.8
		c-7.9,3-7.9,3-9.6,11.8c5.2,1.8,10.5,3.5,15.7,5.6c5.3,2.1,5.9,3.4,3.6,8.5c-3.5,8-7.4,15.8-17,18.2c-4,1-7.6,0.3-10.2-3.1
		c-0.8-1.1-1.7-3-1.3-4.1c1.8-4.6-0.8-7.8-2.8-11.4c-2.4-4.2-4.7-8.4-6.7-12.8c-1.6-3.5-0.6-6.4,2.5-8.7c9.2-6.9,19.5-11,31.1-11
		c1.7,0,3.4,0.9,5.1,1.4C815.8,364.2,815.7,364.8,815.7,365.4z"/>
	<path id="XMLID_00000083811802317835117310000010844071597372415394_" d="M580.4,479.5c2.9,9.3,6,17.9,8.3,26.7
		c0.9,3.4,1.2,8.2-3.2,9.9c-4.1,1.6-8.7,1.5-12.2-2.2c-2.4-2.5-4.5-3-8-1.4c-9.4,4.5-18.8-1.1-19.3-12.1c-0.3-5.7,1.4-11.6,3-17.2
		c1.3-4.2,4.4-4.5,7.7-1.5c0.2,0.2,0.5,0.4,0.7,0.6c7.2,7.7,5.3,8.3,15.8,1.5C575.2,482.7,577.3,481.5,580.4,479.5z"/>
	<path id="XMLID_00000165213788603582318440000001752302444505864351_" d="M431.4,520.5c0.3,4.8-1.7,7.4-5.9,9.5
		c-7.3,3.6-8.7,7.1-7.2,15.2c0.3,1.6,0.4,3.3,0.5,5c0.2,3.2,0,6.5-3.7,7.4c-3.6,0.9-7.2,0.9-9.9-2.5c-4.9-6.1-5.2-10-0.4-16.1
		c3-3.8,4.6-7.9,4.5-12.9c-0.1-7.6,0.1-15.3,0.4-22.9c0.2-5.3,2.9-7.2,8.2-5.9c5.1,1.2,8.1,4.9,9.8,9.3
		C429.3,511,430.2,515.8,431.4,520.5z"/>
	<path id="XMLID_00000090987343300662273500000008415262173069924271_" d="M131.9,373.5c-2.7-1.5-5.1-2.8-8-4.4c0,3.7,0,6.8,0,9.9
		c-11.6,1-15.1-4.5-14.1-11.9c0.5-4.2,0.8-8.4,1.8-12.5c1.2-5.1,4-8.9,9.3-10.8c2.6-0.9,4.6-3.5,6.8-5.4c0-0.7,0-1.4,0-2.1
		c1.9,1.2,4.1,2.1,5.8,3.6c3.8,3.4,7.2,7.3,11.1,10.7c2.2,1.9,2.3,3.5,1.3,5.9C142.5,364.6,139.8,368,131.9,373.5z"/>
	<path id="XMLID_00000011009588385244185310000004390591352469266072_" d="M764.5,537c-10,0-17.9-7.6-18.1-17.5
		c-0.2-9.5,8.2-17.7,18-17.7c10.3,0.1,17.6,7.5,17.6,17.8C782,529.4,774.4,537,764.5,537z"/>
	<path id="XMLID_00000029044515875974188080000014227093038531402671_" d="M940.8,473.8c1-6.6,1.6-12.1,2.8-17.4
		c0.6-2.7,1.9-5.5,5.8-5.3c3.6,0.2,4.3,2.8,5,5.5c1.5,6.7,4.9,11.7,11.3,15c6,3,8.1,9.5,6.2,15.5c-2.5,7.8-8.6,13.3-14.8,12.4
		c-6.1-0.9-10.6-4.9-12.7-10.5C942.4,483.8,941.8,478.2,940.8,473.8z"/>
	<path id="XMLID_00000088130985324933479800000014481081905552092316_" d="M409.8,370.4c-0.7-0.3-2.2-0.6-3.2-1.4
		c-4.8-3.9-9.7-7.7-14.1-12.1c-3.3-3.3-5.8-7.6-3.9-12.7c2-5.1,7.2-5.5,11.3-6.1c12.1-1.9,21.4,4.9,30.6,11.3c0.8,0.6,1.2,2.5,1,3.6
		C430.8,357.4,414.8,370.3,409.8,370.4z"/>
	<path id="XMLID_00000000941312090069018790000010632556312571100050_" d="M502.3,510.7c1.7-2.4,3-5.6,5.4-7.1c3-1.9,5.3,1,7,3.4
		c7.4,10.2,13.5,21.2,16.6,33.5c0.4,1.8,0.6,4.1-0.1,5.7c-2.1,4.7-5.7,8-9.3,2c-6.2-10.2-11.8-20.7-17.5-31.1
		c-0.9-1.6-0.9-3.8-1.3-5.7C502.8,511.2,502.6,511,502.3,510.7z"/>
	<path id="XMLID_00000152948636171936952790000000405362378652535425_" d="M460.7,443.1c-1.5,2.4-2.7,6.2-5.3,8.1
		c-3.1,2.3-7.4,1.1-10.1-1.5c-4.9-4.8-9.9-9.9-13.7-15.6c-3.9-5.9,1.7-17.5,8.5-18.6c1.4-0.2,3.5,0.3,4.3,1.3
		c5,6.7,9.8,13.5,14.4,20.4C459.7,438.5,459.8,440.3,460.7,443.1z"/>
	<path id="XMLID_00000144332938075723875730000015815326289043584658_" d="M470.2,495.2c0.9-2.8,1.3-6,2.9-8.4
		c5.5-8.4,6.3-17.4,5-26.9c-0.3-2.1,0.5-6,1.8-6.5c3.3-1.3,6,1.2,6.7,4.4c1,4.6,2,9.6,1.3,14.1c-0.9,6.4-0.2,12.3,1.7,18.2
		c1.8,5.7,0.1,10.4-4.4,14.1c-3,2.5-6.4,3.8-9.4,1.4c-2.3-1.8-3.4-5.2-4.9-8c-0.3-0.6,0-1.5,0-2.2
		C470.6,495.3,470.4,495.2,470.2,495.2z"/>
	<path id="XMLID_00000016032967954070333640000005966602655183016356_" d="M320.3,373.2c0.6-5.5,2.1-10.2,6.2-13.6
		c5.1-4.3,12-3.4,16,1.9c5.2,6.9,5.4,16.1,0.5,22.9c-5.5,7.7-14.4,7.6-19.2-0.6C322,380.6,321.5,376.7,320.3,373.2z"/>
	<path id="XMLID_00000070105448917873342220000011959862289774647956_" d="M651.3,417.3c8.3,0,14.6,6.1,14.6,14
		c0,8-6.4,14.3-14.4,14.3c-8.3,0-14.7-6.4-14.5-14.6C637.2,423.2,643.3,417.3,651.3,417.3z"/>
	<path id="XMLID_00000000939721526014963660000006420923128403322776_" d="M861.3,591.1c1.1-10.2,5.8-17.9,15.1-22.7
		c2.7-1.4,5.2-1.4,6.8,1c2.4,3.4,4.4,7,6,10.8c0.6,1.3-0.1,3.9-1.2,5c-4.1,4.6-8.5,9-13,13.2c-2.1,2-4.7,3.5-7.8,1.5
		C864.1,597.7,860.7,595.8,861.3,591.1z"/>
	<path id="XMLID_00000113313559337326251870000018250462712788390802_" d="M850.7,385.5c8.4,0,14.7,5.5,14.6,12.7
		c-0.1,7.3-6.4,12.8-14.7,12.8c-8.1,0-14.4-5.7-14.4-13.1C836.4,390.7,842.5,385.5,850.7,385.5z"/>
	<path id="XMLID_00000168826369376749100260000006771386479373221010_" d="M886.4,506.1c6.9,13.8,0.6,24-8.6,31.1
		c-3.8,2.9-9.3,4.9-13,1.9c-3.6-3-2.1-8.4-0.3-12.7C867.7,518.4,877.7,509.2,886.4,506.1z"/>
	<path id="XMLID_00000142858164911709739270000010234298226803052466_" d="M353.9,680.2c-0.1-9.1,10.4-18.4,18.8-16.6
		c2.3,0.5,5,3.1,5.7,5.4c2.4,6.9-4.3,20-11.1,22.9c-5.8,2.5-11-0.3-12.5-6.4C354.4,683.6,354.1,681.6,353.9,680.2z"/>
	<path id="XMLID_00000166667212462258599580000010735864700066875784_" d="M935,518.2c-7.6-0.1-13-5.4-13-12.8
		c0-7.3,5.6-12.8,13-12.8c7.1,0,12.8,5.6,12.8,12.6C947.9,512.5,942.3,518.2,935,518.2z"/>
	<path id="XMLID_00000045591704998083212550000002598821960943840166_" d="M42.6,431.1c-2-1.4-4.8-2.2-6-4.1
		c-3.3-5.5-6.6-11.2-8.8-17.2c-2.1-5.5,2.9-10.4,8.9-9.6c6.9,1,14.2,8.1,15.4,15c0.9,5.1-0.9,8.3-5.5,10.6c-1.5,0.8-2.6,2.4-3.8,3.6
		C42.8,430,42.7,430.5,42.6,431.1z"/>
	<path id="XMLID_00000048468998664252523960000011951297959595130270_" d="M549.8,361.8c-7.9-0.1-12.4-4.1-12.4-11.2
		c0-9,3-13.5,9.2-13.5c8.4,0,16,6.2,16,13C562.5,355.7,555.8,361.8,549.8,361.8z"/>
	<path id="XMLID_00000165223252477583147670000003409513839761918888_" d="M350.6,333.4c7,0,11.6,5,11.6,12.7
		c0.1,7.7-4.9,13.4-11.7,13.3c-6.5-0.1-11.4-5.8-11.5-13.2C339,338.7,343.8,333.4,350.6,333.4z"/>
	<path id="XMLID_00000019675214757303692960000011318179769937620366_" d="M775.6,466.1c1.4-0.5,2.7-1.4,4.1-1.5
		c6.3-0.6,12.6-1.1,18.8-1.5c3.9-0.3,7.2,1.7,8.2,5.2c0.8,2.7,0.6,6.4-0.7,8.8c-4.2,7.5-11.1,9-18.3,3.6c-4.8-3.6-8.7-8.5-13-12.8
		C775,467.3,775.3,466.7,775.6,466.1z"/>
	<path id="XMLID_00000119810988938138722780000006658958453456492181_" d="M1015.4,486.8c-1.6,4.3-2.6,8.7-4.8,12.3
		c-3,4.9-8.1,4.5-11.5-0.1c-4.9-6.8-5-17.2-0.2-24.3c3.2-4.7,9-5.1,11.9-0.2C1012.9,478.1,1013.8,482.5,1015.4,486.8z"/>
	<path id="XMLID_00000093167659816222804620000002679997477418500262_" d="M746.3,387.6c0.1-7,4.7-11.4,11.9-11.3
		c6.7,0.1,11.9,5.3,11.7,11.8c-0.2,6.6-5.5,11.8-12,11.7C750.9,399.8,746.2,394.9,746.3,387.6z"/>
	<path id="XMLID_00000165230500143374482870000006387172841329471132_" d="M660.5,385.1c4.1,1.6,8.5,2.8,12.1,5.1
		c3.8,2.3,3.7,6.5,0.5,9.7c-5.8,5.9-21.2,5.8-26.7-0.2c-2.4-2.6-2.4-6.4,0.2-9c3.7-3.8,8.3-4.7,13.4-4.3
		C660.2,385.9,660.3,385.5,660.5,385.1z"/>
	<path id="XMLID_00000145022599484450287600000001803844626762298038_" d="M591.2,577.1c-7.9,0-13.6-4.1-13.5-9.7
		c0-5.3,5.9-9.4,13.4-9.4c1.7,0,3.4-0.1,5,0.3c5.2,1.2,8.7,5.5,8.4,9.9c-0.3,4.4-4.8,8.4-10,9C593.3,577.2,592.3,577.1,591.2,577.1z
		"/>
	<path id="XMLID_00000022535319036422611110000008465655917504632723_" d="M857.3,453.9c-6.4,0-11.1-4.8-10.9-11.3
		c0.1-6.8,4.3-10.7,11.3-10.7c6.2,0,10.9,4.7,10.9,10.9C868.6,448.9,863.5,453.9,857.3,453.9z"/>
	<path id="XMLID_00000001651397759249515380000002990848077975514756_" d="M944.3,418.2c6.3,0.1,11.1,4.8,10.9,10.8
		c-0.2,6.4-5.1,11.1-11.5,10.9c-6.1-0.1-10.8-4.9-10.8-11.1C932.9,422.8,938.1,417,944.3,418.2z"/>
	<path id="XMLID_00000147904597210442833980000000667725039194738824_" d="M462.4,349.1c-4.7-0.9-9.5-1.3-14-2.8c-1.7-0.5-3.5-3-4-5
		c-0.8-3,0.7-5.5,3.7-6.9c5.3-2.5,18.3-0.7,22.3,3.7c1.2,1.3,1.6,4.2,1.1,6c-0.5,1.6-2.4,3.2-4.1,4.1c-1.3,0.7-3.2,0.1-4.8,0.1
		C462.5,348.6,462.4,348.9,462.4,349.1z"/>
	<path id="XMLID_00000121257076092766366670000016594764607856651171_" d="M876.6,364.7c3.9-1,6.9-2.6,9.6-2.3
		c7.1,0.7,14.1,2.3,21.5,3.6c-0.4,1.7-0.5,3.1-0.9,4.3c-4,10.9-7.8,11.7-16.2,5.9c-3.4-2.3-6.6-4.7-9.9-7.2
		C879.5,368.1,878.6,366.9,876.6,364.7z"/>
	<path id="XMLID_00000091704878867523752460000015329495046275032214_" d="M362.2,383.9c-0.1-6.2,3.8-10.8,9.1-10.7
		c5.6,0,9.5,4.2,9.6,10.3c0.1,6.4-3.9,11.1-9.3,11.1C366.3,394.6,362.2,390,362.2,383.9z"/>
	<path id="XMLID_00000076572526413314508930000006762157613761992866_" d="M567.5,536.5c0.2-6.4,4-10.8,9.3-10.6
		c5.2,0.2,8.6,4.8,8.4,11.4c-0.2,6.8-3.6,10.7-9.1,10.6C571.2,547.8,567.4,542.7,567.5,536.5z"/>
	<path id="XMLID_00000007412519267250484100000008694750912058076326_" d="M1003.1,456.3c-0.1,6.2-3.8,10.8-8.6,10.8
		c-4.9,0-8.5-4.6-8.5-10.9c0-6.3,3.5-10.7,8.6-10.6C999.6,445.6,1003.1,450,1003.1,456.3z"/>
	<path id="XMLID_00000168809623453596006530000006963893311377137284_" d="M478.3,530.8c0.5-2.5,0.7-5.1,1.8-7.4
		c0.6-1.3,2.5-2.4,4.1-2.7c0.9-0.2,2.6,1.1,3.2,2.1c2.8,4.3,5.2,8.8,7.9,13.2c1.9,3.1,1,5.9-1.6,7.5c-1.8,1.1-4.9,1.5-6.8,0.7
		C481.2,541.9,478.7,537.1,478.3,530.8z"/>
	<path id="XMLID_00000130633758423755889350000004517014813861857204_" d="M561.1,763.1c0,5.3-1.8,7.3-6.8,7.4
		c-6.5,0.1-9.7-3.6-9.7-11.4c0-5.8,2.8-9.2,7.6-9.2C557.4,749.9,561.1,755.4,561.1,763.1z"/>
	<path id="XMLID_00000047047748008902891420000000520965239301793927_" d="M898.5,602.5c5.4,0.1,8.5,3.1,8.5,8.4
		c0,4.9-3.6,8.5-8.7,8.5c-4.8,0-8.6-3.8-8.6-8.6C889.7,606,893.5,602.4,898.5,602.5z"/>
	<path id="XMLID_00000132784257412570528590000005375095947376243356_" d="M619.1,359.7c2.5,0.2,5.1-0.2,6.7,0.8
		c6.3,3.9,12.4,8,18.2,12.5c1.3,1,1.2,3.8,1.7,5.7c-1.9,0.2-3.9,0.6-5.8,0.5c-1.3-0.1-2.8-0.6-3.7-1.5c-5.6-5.3-11.1-10.7-16.6-16.1
		C619.3,361.4,619.4,360.8,619.1,359.7z"/>
	<path id="XMLID_00000156588431945834898370000003694855431687003534_" d="M936.2,581.5c5.5,0.1,9,2.9,8.9,7.3
		c-0.1,4-4.5,7.4-9.4,7.3c-5.1-0.1-8.9-3.4-8.8-7.7C927,583.9,930.3,581.4,936.2,581.5z"/>
	<path id="XMLID_00000175293447297277046380000004165512928178641559_" d="M995.5,395.7c-0.1,4.8-3.4,8.6-7.5,8.5
		c-4.2-0.1-7.4-4.1-7.3-9.3c0.1-4.8,3.5-8.5,7.6-8.5C992.5,386.4,995.6,390.5,995.5,395.7z"/>
	<path id="XMLID_00000029727151873454221610000005449641307643849863_" d="M903.8,625.8c4.7,0,7.7,2.8,7.6,7c-0.1,4.5-4.7,9-9.1,9
		c-4.1,0-7.2-3.6-7.2-8.2C895.1,629.1,898.8,625.7,903.8,625.8z"/>
	<path id="XMLID_00000158711123061197758250000012401894366857318551_" d="M925,384c-5.1-0.1-9-3.3-8.9-7.1c0.2-3.9,4.3-6.9,9.2-6.8
		c4.9,0.1,8.2,3,8.1,7.1C933.3,381.2,929.8,384.1,925,384z"/>
	<path id="XMLID_00000085950809660636975010000009247092241755833999_" d="M1095.1,188.9c-0.8-0.4-2.6-0.8-3.5-2
		c-3.8-4.6-4.5-10.2-3.7-15.8c0.4-2.8,3.3-3.2,4.8-1.2c3.1,4.1,6,8.6,8.2,13.2C1102,185.6,1098.8,188.8,1095.1,188.9z"/>
	<path id="XMLID_00000044155547875732613710000013120135748805915021_" d="M988.1,670c0,4.1-3.4,7.4-7.6,7.4c-4.2,0-7.4-3.2-7.4-7.5
		c0-4.3,3-7.2,7.5-7.2C985,662.7,988.1,665.7,988.1,670z"/>
	<path id="XMLID_00000103962227710955602340000011151692178788719030_" d="M576,594.6c-5.2-0.4-9.2-0.9-13.3-1.1
		c-3-0.1-4.8-1.8-4.7-4.4c0.1-2.6,0.9-5.5,2.5-7.5c0.6-0.8,4.4-0.3,5.9,0.7c2.9,2.1,5.4,4.8,7.8,7.5
		C575.1,591,575.3,592.7,576,594.6z"/>
	<path id="XMLID_00000122691096554691609160000010826442490207839895_" d="M528,475.7c-5.4-3.8-7.1-9.2-7.9-14.9
		c-0.2-1.2,0.6-3.2,1.6-3.8c0.9-0.5,2.9,0,4,0.6C531.7,461.2,532.7,468.2,528,475.7z"/>
	<path id="XMLID_00000061465033256699074530000012375791151168100508_" d="M561.3,540.1c-0.6,3.7-0.4,7.7-5,8.7
		c-2.9,0.6-5.3-3.5-5.3-8.5c0-5.2,2.3-9.2,5.3-8.6C561,532.6,560.5,536.8,561.3,540.1z"/>
	<path id="XMLID_00000155147137709495020600000016577049150613836981_" d="M961.7,132.5c5.6,0,8,2,8.1,6.1c0.1,4.2-1.6,6.4-5.1,6.3
		c-4.2,0-7.5-3.5-7.6-8C957.1,133.4,959.5,132.5,961.7,132.5z"/>
	<path id="XMLID_00000091716678576322128670000000749216924583220363_" d="M404.4,589c-0.3,5.8-2.5,7.7-6.5,7.6
		c-3.9-0.1-4.3-3-4.4-5.6c-0.2-3.1,3.3-5.8,7.2-5.1C402.3,586.2,403.7,588.4,404.4,589z"/>
</g>
</svg>