<?xml version="1.0" encoding="utf-8"?>
<!-- Generator: Adobe Illustrator 26.0.2, SVG Export Plug-In . SVG Version: 6.00 Build 0)  -->
<svg id="svg" version="1.0" xmlns="http://www.w3.org/2000/svg" xmlns:xlink="http://www.w3.org/1999/xlink" x="0px" y="0px"
	 viewBox="0 0 1198.3 807.7" style="enable-background:new 0 0 1198.3 807.7;" xml:space="preserve">
<g id="Layer_5">
	<path id="XMLID_00000001647635293880372920000015129598324094403976_" d="M265.7,380.3c-0.8-0.5-1.2-0.9-1.6-0.9
		c-6.3,0.4-7.1-4.8-9.1-8.9c-1.7-3.4-3.5-6.8-6-9.6c-1.2-1.3-3.9-1.8-5.9-1.6c-0.7,0.1-1.7,3.3-1.5,4.9c0.2,2.2,1.9,4.2,2.1,6.4
		c0.2,1.9-0.2,4.2-1.1,5.8c-0.4,0.6-3.3,0.2-4.7-0.4c-4.3-1.8-7.5-4.9-8-9.7c-1.3-12.6-8.6-22.4-14.9-32.8c-1-1.7-2.1-3.3-3.2-4.9
		c-5.5-8-4.8-19.3,2.5-25.6c2.6-2.3,6.7-3.4,10.3-4c8.5-1.3,17.1-2,25.7-2.9c3.8-0.4,6-3,5.7-7.3c-0.3-4.1-0.6-7.5,5.3-7.7
		c2.3-0.1,4.5-2.8,6.8-3.1c1.5-0.2,4,1.5,4.7,3c2.6,5.6,4.3,11.6,7,17.1c1.1,2.2,3.7,4.2,6,5.2c2.6,1.1,5.7,0.5,8.5,1.2
		c7,1.6,11.2,6.3,13.3,13c2.3,7.4,4.4,14.8,6.6,22.2c0.4,1.4,1.1,2.7,2.2,5.2c1.4-2.4,2.4-3.8,3-5.3c2.1-5.5,4-6.9,9.7-7
		c8.1-0.1,8.9-0.8,10.1-8.8c0.3-2.2,0.7-4.5,1.1-6.7c1-5.4,4.1-7.1,9.2-4.7c3.4,1.6,6.7,3.5,10,5.4c3.4,1.9,4.2,5.2,3.4,8.7
		c-1,4.4-3.6,7.7-8.1,8.9c-2.9,0.7-5.9,1.1-8.9,1.6c-3.2,0.5-3.7,2.6-2.4,5c3.6,6.6,2.9,12.2-3.2,16.8c-0.1,0.1-0.3,0.2-0.3,0.3
		c-0.8,2.5-2.7,5.5-2,7.5c2,5,4.9,9.8,8.1,14.2c0.6,0.9,4.3,0,6.4-0.7c5.7-2,10.3-0.7,13.6,4.4c0.9,1.4,1.7,2.9,2.8,4.1
		c0.8,1,2.2,2.4,2.9,2.2c1-0.2,1.7-1.8,2.5-2.9c0.3-0.5,0.5-1.1,0.6-1.7c1.1-11.2,7.9-16.4,18.4-17.9c2.8-0.4,5.5-1.7,8.3-2.1
		c10.5-1.4,18.6,4.7,19.7,15.2c0.9,8.4,1.5,16.9,2.1,25.3c0.3,4.8-0.5,9.3-5,12.4c-5.8,4-13.5,0.5-14.2-6.5c-0.1-0.9,0-1.8-0.1-2.7
		c-0.7-7.1-2.8-9.2-9.9-8.8c-4.5,0.2-8.9,1.2-13.3,2.2c-3.6,0.8-6.3,0-9-2.6c-1.7-1.7-4.7-3.3-7-3.1c-9.6,0.9-18.6-0.7-27.6-3.8
		c-4-1.4-6.5,0.2-8,4.4c-3.2,8.8-7.8,10-15.4,4.4c-3.2-2.3-5.5-4.8-6.4-8.9c-1.1-5.5-5.6-7.5-10.4-8c-7.8-0.8-15.1-2.8-21.8-7.1
		C272.1,376.5,268.4,376,265.7,380.3z M312.6,390.4c0.7,0.1,1.4,0.3,2.2,0.4c1.5-1.8,3.4-3.4,4.4-5.4c2.5-5.3,4.7-10.8,6.8-16.3
		c0.6-1.6,0.9-3.9,0.2-5.2c-2.2-3.9-5-7.5-7.7-11.5c-4.7,3.4-9.1,6.5-13.3,9.9c-2.3,1.8-1.7,5.3,0.7,7.1c4.1,3.2,7.1,6.7,5.7,12.7
		C310.8,384.6,312.1,387.6,312.6,390.4z"/>
	<path id="XMLID_00000042708749724675097270000018322531124011831227_" d="M500.1,430.1c-0.3,3.3-0.4,6.6-0.9,9.9
		c-0.6,3.7-3.1,4.7-6.4,3.2c-12.6-5.8-17.2-17.7-13.9-30.5c0.4-1.5,1.6-2.9,2.8-4c1.8-1.6,4.1-2.7,5.8-4.4c1.4-1.4,2.2-3.4,3.3-5.1
		c-1.7-0.7-3.4-1.7-5.1-2c-11-1.6-17.8-8.5-17.4-19c0.1-3.5,2.1-7.1,3.9-10.2c3.9-6.6,8.4-12.9,12.4-19.5c0.8-1.3,0.8-3.2,1-4.8
		c0.6-5.6,4.1-8.3,9.4-6.3c10.5,3.8,18.7,9.7,20.9,21.7c1.1,5.9,3,11.7,5.1,17.4c3.5,9.5,3,19,1.5,28.7c-0.8,4.8-1.3,9.7-2.6,14.3
		c-1.6,5.6-5.6,6.5-10.5,3.3c-2.4-1.6-5.4-2.5-8.1-3.7c-0.5,2.7-1,5.5-1.4,8.2c-0.1,0.9,0,1.8,0,2.7
		C500,430.1,500.1,430.1,500.1,430.1z"/>
	<path id="XMLID_00000083048254249307335270000016776159937135406736_" d="M648.4,475.9c19.7,1.2,37.6,5.4,52.7,17.6
		c9.3,7.4,9.8,19.5,1.2,26.1c-5.7,4.3-16.2,3.7-22.5-1c-4.5-3.3-9.4-5.9-13.8-9.3c-1.7-1.3-3.1-3.7-3.5-5.8c-1-5.7-1.4-6-7.2-6
		c-6.2,0.1-12.5,0.2-18.5-0.8c-6.2-1.1-8.4-4.9-8.2-11.2c0.2-4.1,2.7-6.6,8.6-7.8C641.1,476.7,645.2,476.4,648.4,475.9z"/>
	<path id="XMLID_00000144325981799591881750000005063197528735014814_" d="M542.4,465.2c0.6-3.5,0.7-7.2,1.8-10.7
		c1.6-5.3,5.7-6.5,10.3-3.5c0.9,0.6,1.7,1.3,2.5,2c6,5.8,9.9,5.6,14.9-0.9c1.2-1.6,2.5-3.1,4-4.4c3.4-2.8,7.3-2.2,9,1.8
		c3.2,7.5,6.2,15.1,8.5,22.9c0.7,2.3-1,5.3-1.7,8c-0.9,3.7-2.3,7.3-2.7,11.1c-0.4,4.5,0.2,9.1,0,13.6c-0.3,4.6-3.6,7.8-7.7,8
		c-4.4,0.3-6.2-1.7-7.6-7.1c-0.9-3.6-0.9-6.7,1.6-9.8c1.3-1.6,2.2-3.6,3-5.6c2.4-5.1-0.8-14.2-5.8-16.5c-3-1.4-4,1.1-5,3.1
		c-2.5,5.1-6.7,7.2-12.3,6.5c-5.5-0.7-9.7-3.6-11.3-9.1C543,471.7,542.9,468.4,542.4,465.2z"/>
	<path id="XMLID_00000006684004497048748640000000998364330111927989_" d="M1011.3,567.3c0.1-4.5,1.9-6,5.6-4.8
		c2.5,0.8,5,2.2,7.1,3.8c3.3,2.4,6.4,5.1,9.5,7.7c4.4,3.6,7.9,7.3,8.7,13.6c0.9,6.9,9,12.8,17.6,12.1c8.9-0.7,14.8,2.3,19.8,9.3
		c3.2,4.6,7.2,8.6,11.2,12.6c1.9,1.9,1.6,3.3,0.2,5.1c-3,3.9-7.1,4.6-11.7,2.6c-6.2-2.7-13.1-4.1-18.6-7.7
		c-11.3-7.3-21.8-15.8-32.7-23.8c-0.2-0.2-0.5-0.4-0.6-0.7c-4.9-8.1-10-16.1-14.7-24.3C1011.6,571,1011.7,568.7,1011.3,567.3z"/>
	<path id="XMLID_00000016035879451413864640000001223055744723298737_" d="M407.3,480.4c4.9,0.7,10.5,2.5,13.5,7.6
		c3.1,5.4,5.3,11.5,7.2,17.4c0.4,1.2-1.6,3.6-3,5c-1,0.9-2.8,0.9-4.3,1.3c-5.5,1.6-9.1,4.7-10.3,10.7c-1.1,5.3-1.4,11.1-6,15.2
		c-3.1,2.8-5.4,2.7-8-0.4c-0.1-0.1-0.2-0.3-0.3-0.4c-10.7-12.6-10.7-12.6-3.1-27.4c2.3-4.4,5.2-8.6,7.1-13.1
		c1.3-3.1,1.8-6.9,1.6-10.3C401.6,481.6,402.3,480.2,407.3,480.4z"/>
	<path id="XMLID_00000098936040844987427680000015563101536752544189_" d="M894.4,386.3c13.5,1,22.8,7.6,25.4,18.3
		c1.1,4.2-0.6,6.6-3.8,8.1c-7,3.2-13.7,6.7-19.4,12.2c-3.4,3.3-8.8,2.5-11.5-1.8c-4-6.5-7.5-13.4-10.7-20.4c-1.5-3.3,1.7-9.7,6-11.7
		C884.9,388.9,889.7,387.9,894.4,386.3z"/>
	<path id="XMLID_00000114070142839206783080000013095235601432046243_" d="M673.3,359c0-2-0.1-3.9,0-5.9c0.3-7.5,4-10.6,11.2-8.4
		c1.8,0.5,3.5,3.4,4.2,5.5c0.7,2.4,0.1,5.1,0,7.7c-0.1,3.3,1.7,4.6,4.6,3.8c6.2-1.6,12.3-3.3,13.5-11.4c0.7-4.7,4-6.1,9.4-5.1
		c5.6,1,7.8,3.1,7.3,7.9c-0.7,6-1.7,11.9-2.9,17.9c-0.7,3.9-3.1,6.2-7.3,6.1c-0.8,0-1.6-0.1-2.3,0.2c-6.1,2.8-11,1.5-15-4
		c-0.8-1.1-3.5-1.1-5.3-0.9c-1.2,0.1-2.3,1.2-3.5,2c-6.7,4.7-13.1,1.9-13.9-6.3C673.1,365.1,673.4,362.1,673.3,359
		C673.4,359,673.3,359,673.3,359z"/>
	<path id="XMLID_00000175322756271962328060000014804011911058674583_" d="M123.2,348.5c0.1,4,0.6,7-3.5,7.8
		c-4.3,0.8-9.3-1.2-9.9-5.1c-0.7-4.5-0.1-9.2,0-13.9c0-1.3,0.7-2.7,0.6-4c-0.9-13.1,9.5-16.9,18.1-22.1c0.6-0.4,2.2-0.1,2.8,0.5
		c3.4,3.4,7.1,6.6,10,10.5c2.8,3.8,0.9,13.9-2.5,17.2c-0.9,0.8-1.9,1.6-2.5,2.6C133.4,346.7,130.5,351.3,123.2,348.5z"/>
	<path id="XMLID_00000171714923658276257960000016850531261119872161_" d="M962,438.6c0.1,8.8-8,18-14.3,17.9
		c-2.3,0-5.4-1.7-6.5-3.5c-2.3-3.8-3.8-8.2-5.2-12.5c-1.8-5.7-3.1-11.7-4.8-17.5c-1.7-5.6,1.2-9.7,4.4-13.5c0.6-0.8,3.2-1,4-0.4
		c2.2,1.7,4.9,3.6,5.6,6.1c1.8,5.7,5.7,9.3,9.7,13.3C958.4,431.7,960.5,436.3,962,438.6z"/>
	<path id="XMLID_00000062188914378925680980000018170417114257815205_" d="M534,530.3c-0.2,0-1.2,0-1.9-0.5
		c-9.8-7.6-20.2-14.8-25.2-26.9c-1.3-3.2-2.3-6.6-3.1-10c-0.8-3.4,0.2-6.9,3.4-8.1c2.4-0.9,6.4-1.1,8.3,0.3
		c3.9,2.9,7.4,6.7,10.1,10.7c5.3,7.9,10,16.3,14.7,24.5C543.5,525.7,540.7,530.3,534,530.3z"/>
	<path id="XMLID_00000041254404514990174630000010640044731107854980_" d="M409.9,356.5c-4.9,0-7.7-3-10.2-6.4
		c-3.1-4.3-6.3-8.5-8.9-13.1c-1.2-2-1.7-4.9-1.2-7.2c0.5-2.4,8.3-5.9,10.9-4.9c9.1,3.6,18.6,6.7,26.8,11.9c6.2,4,5.8,7.9-0.5,11.3
		c-3.7,2-7.4,4.2-11.1,6.1C413.9,355.3,411.9,355.8,409.9,356.5z"/>
	<path id="XMLID_00000080903144561859518030000012334602328639616431_" d="M957.4,566.8c0.8-3.7,1.2-7.5,2.6-11
		c2.4-6,7.8-7.9,13.4-4.9c6.7,3.6,12,8.8,14.8,16.1c3.4,8.6-2.4,17.2-11.6,17c-3.6-0.1-7.6-0.9-10.8-2.6
		C960.1,578.6,956.9,573.8,957.4,566.8z"/>
	<path id="XMLID_00000183211929188401308030000005793070055285177996_" d="M481.5,494.3c-6.8-1.2-10.4-4.4-12.7-9.2
		c-1.8-3.8-1.3-7.1,1.4-10.5c4.5-5.8,6.1-12.3,4.3-19.7c-0.8-3.2-0.9-6.6-0.7-9.9c0.3-5.3,3.3-6.7,7.1-2.9c2.8,2.8,6.8,7.7,6.1,10.4
		c-2.6,9.2,3.5,16.1,4.6,24.1c0.5,3.3,0,6.2-3,8.5c-1.3,1-1.7,3.1-2.8,4.4C484.3,491.5,482.6,493.1,481.5,494.3z"/>
	<path id="XMLID_00000121253267174284093000000014243080036091871404_" d="M446.7,443c-2.6-1.6-5.6-2.8-7.8-4.8
		c-3.5-3.3-6.6-7.1-9.7-10.8c-5.7-6.7-3.1-17,5-20.4c7.1-2.9,7-2.8,11.4,3.5c3.4,5,7.4,9.6,11,14.4c2.4,3.2,3.5,6.8,1.2,10.5
		C455.4,439.4,452.3,442.3,446.7,443z"/>
	<path id="XMLID_00000001634327779852242780000015454319845134293944_" d="M786,364.5c-1.5-1.2-4.9-2.9-6.4-5.6
		c-2.9-5.1-4.8-10.7-6.9-16.2c-2-5.3-0.9-7.4,4.4-9.3c2.1-0.8,4.1-1.9,6.2-2.7c2.9-1.1,5.8-0.5,5.7,2.8c-0.1,6.2,4,6.7,8.3,7.1
		c10.9,0.8,11.8,3.5,6.2,13.3C799.8,360.4,795,363.8,786,364.5z"/>
	<path id="XMLID_00000095300141894798451430000013916800938611222445_" d="M748.9,453c11.4,0,18.8,9.2,15.7,18.7
		c-0.3,1-0.6,2.3-1.3,2.8c-5.6,4.1-11.1,8.3-16.9,12.1c-2.8,1.9-5.9,1.2-7.1-2.2c-3.3-9.2-5.6-18.3,1.7-27
		C743.3,454.7,745.4,451.9,748.9,453z"/>
	<path id="XMLID_00000094616640692668110480000004578858033706977169_" d="M853.7,548.8c0.3-1.2,0.6-2.9,1.3-4.3
		c3.2-6.3,6.4-12.7,10-18.8c3.6-6.2,8.6-6.3,12.9-0.6c8.4,11.3,8,15.6-2.3,25.1c-2.3,2.2-4.8,4.2-7,6.5c-2.8,3-5.7,3.4-9.3,1.5
		C855.5,556.2,853.6,553.4,853.7,548.8z"/>
	<path id="XMLID_00000044856877453908443760000007725533738121987458_" d="M364.9,722.4c0.7-5.9,0.8-11.4,2.2-16.5
		c1.1-3.7,3.6-7.2,6.2-10.2c2.3-2.7,5.8-4.1,9.4-1.9c3.6,2.1,3.8,5.8,3,9.3c-2,9-4.3,17.9-6.7,26.8c-0.6,2.2-1.4,4.4-2.7,6.2
		c-1.1,1.5-3.2,3.3-4.8,3.2c-1.6-0.1-4.1-2-4.5-3.6C365.9,731.3,365.5,726.6,364.9,722.4z"/>
	<path id="XMLID_00000148653002360287875170000013918776046263013536_" d="M883.4,471.4c-0.3,11.2-6.2,19.7-16.6,23.3
		c-5.9,2-9.1-0.2-9.3-6.5c-0.2-8.7,9.9-24.4,17.8-27.6c3.7-1.5,6.2-0.4,7.1,3.6C883,466.6,883.1,469,883.4,471.4z"/>
	<path id="XMLID_00000051342381584119181320000017446364673769526406_" d="M630.5,387.4c0-6,2.3-9.2,7.7-9.4
		c4.7-0.2,9.6,0.5,14.1,1.8c4.3,1.2,6.7,5,6.3,9.5c-0.4,5.6-1.6,11.4-7.4,14.1c-5.6,2.6-17.4-4.4-19.6-11.4
		C630.9,390.3,630.7,388.4,630.5,387.4z"/>
	<path id="XMLID_00000098904034503345180170000018107446892104607618_" d="M466,317c-0.3,6.1-0.1,11.8-1,17.3
		c-0.8,5.2-4.9,7.9-9.8,8.8c-5.1,0.9-9.6-0.7-12.9-4.9c-3-3.9-1.9-8,0-12c2.8-5.8,7-9.2,13.9-8.8C459.2,317.6,462.2,317.2,466,317z"
		/>
	<path id="XMLID_00000127004808762262700100000004494169052063094446_" d="M49.3,398.4c-2.4-2.3-5.3-4.7-7.6-7.6
		c-3-3.9-5.6-8.2-8.2-12.5c-3.2-5.3-0.6-11.1,5.5-11.8c8.5-0.9,17.7,3.2,18.8,14.1c0.2,2.2-0.5,4.8-1.5,6.8
		C54.5,390.9,52.1,394.1,49.3,398.4z"/>
	<path id="XMLID_00000178885935620174090590000010119557264611189377_" d="M926,473.9c-7.8,0-12-3.7-11.9-10.5
		c0.1-8,6.4-15.8,12.8-15.8c6.1,0,11.3,6.4,11.3,14.1C938.3,469.8,934.1,474,926,473.9z"/>
	<path id="XMLID_00000024683244944071098190000001159539924885545388_" d="M777.5,415c2.5-0.4,5.1-0.6,7.6-1.1
		c4.5-0.9,7.6,1,9.8,4.8c2.1,3.7,1,7-1.6,9.9c-1.3,1.4-2.7,2.9-4.1,4.2c-3.4,3.1-7.5,3.3-11.1,0.4c-3.2-2.5-6.6-4.8-9.5-7.7
		c-1.5-1.5-2.8-4.2-2.6-6.2c0.1-1.4,2.6-3.2,4.4-3.8c2.2-0.8,4.7-0.7,7.1-1C777.5,414.6,777.5,414.8,777.5,415z"/>
	<path id="XMLID_00000026132193152436397350000009909702365398395016_" d="M490.8,529.1c-1-0.4-3.2-0.7-4.4-2
		c-3.2-3.3-6.3-6.9-8.9-10.8c-2-2.9,0.5-13,3.7-14c2.6-0.8,7-0.3,8.7,1.5c4.3,4.5,8.1,9.6,11.1,15.1
		C502.9,522.6,496.7,529,490.8,529.1z"/>
	<path id="XMLID_00000137810707467828681460000003725209513108507827_" d="M843.8,343.7c2.7,0.9,5.8,1.2,7.8,2.9
		c5.4,4.4,3.9,12-2.9,15c-5.8,2.6-11.5,2.1-16.5-2.3c-2.1-1.8-5.7-2.8-4.7-6.4c0.6-2.2,2-5,3.8-5.8
		C835.1,345.4,839.4,344.8,843.8,343.7z"/>
	<path id="XMLID_00000079445836656255916740000004159962271731654282_" d="M641.7,368.1c-1.1,0-2.1,0.1-3.2,0c-3.4-0.5-6-2.4-6-5.7
		c0-2.3,1-5.6,2.7-6.9c6.7-5,14.6-5.7,22.5-3.8c1.9,0.5,4.4,2.9,4.7,4.7c0.2,1.7-1.7,4.6-3.4,5.5c-5.4,2.8-11.2,5-16.8,7.4
		C642,368.9,641.9,368.5,641.7,368.1z"/>
	<path id="XMLID_00000058571272432500134640000000152881014619718055_" d="M994.2,454.5c-0.5,2.8-0.7,5.5-1.5,8.1
		c-1.4,4.6-5.6,5.9-9.6,3.2c-3.7-2.6-6-8.4-4.8-13.3c1.1-4.2,2.5-8.4,4.1-12.4c0.6-1.5,2.7-3.8,3.7-3.6c1.7,0.3,4,2,4.6,3.6
		C992.3,444.8,993.1,449.7,994.2,454.5z"/>
	<path id="XMLID_00000049943251270784326870000016841976550065847979_" d="M536.9,334.2c-8.6-0.1-16-7.9-15.8-16.5
		c0.1-4.2,1.8-5.6,6.1-5.3c6.6,0.5,16.3,9.2,17.5,15.6C545.5,332.7,543.5,334.3,536.9,334.2z"/>
	<path id="XMLID_00000032606220908296602260000016356382217168398007_" d="M744.6,333.6c4,0.9,7.4,1.5,10.7,2.3
		c1.3,0.3,3.4,0.9,3.4,1.6c0.5,4.4,1.4,9,0.3,13.1c-0.5,2.1-4.7,3.5-7.5,4.7c-1.4,0.6-3.3,0.2-5,0.1c-5.6-0.3-8.2-5.1-6.1-10.3
		c0.9-2.3,0.7-5.1,1.5-7.5C742.6,336,743.9,334.7,744.6,333.6z"/>
	<path id="XMLID_00000070118991088003988130000014886170134918699914_" d="M610.2,526c-1.3,2.5-2.1,4.7-3.3,6.5
		c-3.9,5.6-13.6,7.7-17.9,4.2c-3.8-3.1-4.3-6.4-1.6-10.3c3.9-5.7,14.6-8.5,19.2-4.8C608,522.6,608.9,524.4,610.2,526z"/>
	<path id="XMLID_00000036946897924963417550000003920713723622367118_" d="M875.5,585.1c0.5-4.1,0.8-6.8,1.2-9.5
		c0.6-4.6,4-7.5,8.2-7.2c4.2,0.4,8.7,4.9,8.3,8.7c-0.5,5.2-2.7,9.8-7.4,12.3c-2.1,1.1-5.4,0.9-7.7,0
		C876.6,588.8,876,586,875.5,585.1z"/>
	<path id="XMLID_00000128487348030644898360000011845833545379425966_" d="M837.5,394c0.1-5.2,2.9-8.5,7.2-8.6
		c5.6,0,12.9,5.7,12.9,10.1c0,3.2-7.3,9.9-10.7,9.8C842.1,405.3,837.4,399.6,837.5,394z"/>
	<path id="XMLID_00000078758648471940447930000007059736961517993908_" d="M935.1,396.5c-6.8-0.2-13.2-8.3-11.8-15
		c0.9-3.9,6.3-6.4,10.2-4.5c5.6,2.7,8.3,7.8,9.6,13.6C943.9,393.9,939.9,396.6,935.1,396.5z"/>
	<path id="XMLID_00000021087096944536885350000006788170877668285614_" d="M524.7,463c-2.4-2.2-4.5-3.5-5.8-5.4
		c-2.1-3.1-3.4-6.7-5.3-9.9c-2-3.5-1.6-8.3,1.6-10.6c3.6-2.6,7.3,0.2,8.5,2.5c3,5.9,5.9,12.2,4.5,19.3
		C527.9,460.1,526.3,461.1,524.7,463z"/>
	<path id="XMLID_00000090257590151586346540000009481615884332257727_" d="M928.8,561.1c-3.7,6.6-8.4,10.7-15.5,10.3
		c-2.1-0.1-5.5-1.7-5.7-3c-0.5-3.6-0.4-7.7,0.9-11.1c0.6-1.5,4.9-2.7,7-2.1C920,556.5,924.2,559,928.8,561.1z"/>
	<path id="XMLID_00000111174253901029676890000002883973191797418641_" d="M897.6,697.1c1.3-3,1.8-7.5,4.1-8.7
		c3.7-2,6.3,2.1,8.7,4.8c1.3,1.4,2.8,3,3.3,4.8c0.6,2.4,1.3,5.6,0.3,7.5c-2.1,4-6.6,3.7-10.1,2.6c-2.1-0.7-3.8-3.4-5.1-5.6
		c-0.7-1.3-0.1-3.3-0.1-4.9C898.4,697.4,898,697.2,897.6,697.1z"/>
	<path id="XMLID_00000091733498299146686420000006312527990959934360_" d="M1147.3,140.7c-0.5,2.4-0.7,5.9-2.2,8.7
		c-0.9,1.7-3.9,3-6.1,3.1c-1.1,0.1-3.4-2.6-3.5-4.2c-0.2-5.1-0.1-10.2,0.9-15.2c0.4-1.9,3.1-4.3,5.1-4.6c1.3-0.2,3.6,2.7,4.5,4.6
		C1147,135.1,1146.9,137.6,1147.3,140.7z"/>
	<path id="XMLID_00000037672425094273803080000015618709757812983947_" d="M562.1,514.5c0,1.1,0.4,2.3-0.1,3.1
		c-0.7,1.4-1.7,3.1-3,3.4c-1.2,0.3-3.6-0.7-4.1-1.7c-2.7-6.4-5.1-12.8-7.3-19.4c-0.4-1.2,0.8-3.9,1.7-4.1c1.4-0.4,3.7,0.3,4.8,1.4
		C559,502,562.2,507.6,562.1,514.5z"/>
	<path id="XMLID_00000083064175195325748220000000370843387288185518_" d="M368.4,370c-3.8,0.1-8.3-4.5-8.5-8.6
		c-0.2-3.8,4.5-9.3,7.9-9.2c4.2,0,10.4,6.6,10.4,11.1C378.2,367.2,374.2,369.9,368.4,370z"/>
	<path id="XMLID_00000138559200098565047550000012744912093394891453_" d="M600.6,326.9c6.2,3.2,12.3,6.2,18.4,9.4
		c1.6,0.8,3.1,1.9,4.4,3.2c0.8,0.8,1.9,2.5,1.5,3.2c-0.6,1.1-2.1,2.2-3.3,2.4c-1.5,0.2-3.4-0.1-4.8-0.8c-6.3-3.5-12.6-7.1-18.8-10.8
		c-1.1-0.7-1.6-2.3-2.4-3.5C597,329.1,598.4,328.2,600.6,326.9z"/>
	<path id="XMLID_00000047769759264032482660000004831647650228858791_" d="M921.9,724.2c-1.9,3.9-3.3,8.2-5.8,11.5
		c-1.2,1.6-4.8,2.1-7.2,1.8c-1-0.1-2.2-3.6-2.3-5.5c-0.1-4.9,1.9-9.2,6-12c1.6-1.1,4.4-1.9,6.1-1.3
		C920.1,719,920.7,721.8,921.9,724.2z"/>
	<path id="XMLID_00000145762921527116997970000004748180142658769599_" d="M352.9,601.6c-3.7-0.4-5.6-2.2-5.1-5.2
		c0.4-3,1.1-6.4,2.9-8.7c1.3-1.6,5.2-2.8,7-2.1c2.4,0.9,4.6,3.8,5.6,6.3c0.5,1.2-1.3,4.1-2.9,5.4
		C358.3,599.1,355.5,600.1,352.9,601.6z"/>
	<path id="XMLID_00000010276103879448501770000009248932626585876872_" d="M965.6,372.4c-0.7-4-1.4-7.8-2.1-11.7
		c-0.6-3.1-0.2-6.6,2.9-7.3c2.7-0.6,6.3,0.2,8.8,1.6c3,1.8,0.9,4.9-0.2,7.3c-1.2,2.5-2.7,4.8-3.6,7.3
		C970.3,372.5,968.5,373.2,965.6,372.4z"/>
	<path id="XMLID_00000155134537315488610750000008197197374435468455_" d="M870.3,332.2c7-1.3,13.6-0.4,19.9,2.2
		c1.3,0.5,2.5,4.7,2.1,5c-2,1.5-5.1,3.6-6.7,2.9c-5.2-2.2-9.9-5.5-14.8-8.4C870.6,333.7,870.6,333.1,870.3,332.2z"/>
	<path id="XMLID_00000081643594392836714640000004001101207806101143_" d="M427.2,541.3c-0.3,0.6-0.9,3-1.8,3.1
		c-2,0.4-4.8,0.3-6.3-0.9c-4-3.1-4.8-7.8-4.6-12.5c0.1-0.9,2.5-2.4,3.6-2.3C421.4,529.2,427.2,537.1,427.2,541.3z"/>
	<path id="XMLID_00000054262068471769187290000004019453312027057313_" d="M1098.9,48c-0.4-6.8,0.6-8.5,4.5-8.3
		c3.1,0.2,5.1,2.2,4.4,5c-1,3.8,2.9,9.8-4,11.2c-3.2,0.6-5.1-1.5-5.3-4.7C1098.5,50,1098.8,48.9,1098.9,48z"/>
	<path id="XMLID_00000121276723341229523940000000535051787242718887_" d="M971.3,415.3c1-1.7,1.4-3,2.2-3.4
		c0.9-0.4,2.8-0.3,3.2,0.4c2.6,3.8,5.1,7.7,7.1,11.8c0.4,0.8-0.9,3.3-2,3.9c-1.1,0.5-3.7,0.1-4.3-0.8
		C975.2,423.4,973.4,419.3,971.3,415.3z"/>
	<path id="XMLID_00000089545169213422088760000016483160347364541827_" d="M884.3,625.3c-3.1-2.4-5.9-4.1-8-6.4
		c-1.5-1.7,1.8-5.9,4.7-5.6c2.2,0.2,4.7,0.7,6.5,2c1.5,1,3.3,4,2.8,4.9C889.2,622.1,886.7,623.3,884.3,625.3z"/>
	<path id="XMLID_00000078038529682241406710000014195418841896635582_" d="M568.9,555.9c-6.2-4.3-7.4-6.9-4.4-9.8
		c0.9-0.9,3.8-1.2,4.8-0.5C573.3,548.3,573,551.8,568.9,555.9z"/>
	<path id="XMLID_00000091722013137202066840000011677758845494904741_" d="M918.8,343.9c-3.5,2.6-6.9,5.1-10.4,2
		c-1-0.9-0.5-5.7,0.6-6.3C913.1,337.5,915.7,340.9,918.8,343.9z"/>
	<path id="XMLID_00000066514178983067859350000017490249729965398188_" class="st0" d="M312.6,390.4c-0.5-2.8-1.8-5.8-1.2-8.3
		c1.3-6-1.6-9.5-5.7-12.7c-2.3-1.8-3-5.3-0.7-7.1c4.2-3.4,8.7-6.4,13.3-9.9c2.8,4,5.5,7.6,7.7,11.5c0.7,1.3,0.4,3.6-0.2,5.2
		c-2.1,5.5-4.3,11-6.8,16.3c-1,2-2.9,3.6-4.4,5.4C314,390.7,313.3,390.5,312.6,390.4z"/>
</g>
</svg>