<?xml version="1.0" encoding="utf-8"?>
<!-- Generator: Adobe Illustrator 26.0.2, SVG Export Plug-In . SVG Version: 6.00 Build 0)  -->
<svg id="svg" version="1.0" xmlns="http://www.w3.org/2000/svg" xmlns:xlink="http://www.w3.org/1999/xlink" x="0px" y="0px"
	 viewBox="0 0 1198.3 807.7" style="enable-background:new 0 0 1198.3 807.7;" xml:space="preserve">
<g id="Layer_8">
	<path id="XMLID_726_" d="M278.4,297.8c2.3,0.4,6.1,0.1,6.7,1.3c1,2.2,0.9,5.6-0.1,8c-3,7.6-3,10.4,1.5,14.9
		c0.7,0.8,1.5,1.6,2.4,2.1c12.6,6.7,14.2,15.6,11.8,29.3c-1.5,8.7-0.7,16.5,6.9,22.5c4.7,3.7,5,9,4.2,14.5c-0.2,1.4,0.4,3,0.7,4.5
		c1.4-0.6,3.5-0.8,4.2-1.9c2.1-3.4,3.5-7.3,5.5-10.8c1.9-3.3,3.8-6.6,6.3-9.3c1.3-1.3,4.3-1.9,6.1-1.4c1.4,0.5,2.7,3.1,3,4.9
		c1.3,6.7,4,8.1,9.9,4.4c4.2-2.6,7.5-1.8,10.1,2.2c3.4,5.4,3.6,5.5,7.6,0.2c8.1-10.6,18.9-15.9,32-16c10.1-0.1,14.4,5.6,12.8,15.6
		c-1.3,8-2.2,16.1-3,24.2c-0.7,7.3-6.3,13.4-13.6,14.2c-4.4,0.5-6.6-1.1-7.4-5.4c-0.4-1.8-0.3-3.6-0.5-5.4c-1-8-7.8-13.2-15.6-11
		c-6.9,1.9-13.4,1.4-20.1-0.2c-5.9-1.4-11.9-2.4-17.9-2.7c-2.6-0.1-5.8,1.3-7.9,3.1c-3.5,2.9-6.1,6.7-9.4,9.9
		c-3.1,2.9-5.4,2.6-7.1-1.2c-1.4-3.4-2.3-7.2-2.3-10.8c-0.1-4.8-0.9-6.6-5.6-5.4c-3.8,0.9-7.8,2.7-10.5,5.3
		c-3.8,3.5-7.4,5.8-12.8,5.6c-3.5-0.2-7,1-11.1,1.7c-6.5-4-13.8-8.4-21.5-13.1c1.1-0.5,2-0.9,3.9-1.7c-3.4-2.9-6.3-5.7-9.5-8
		c-4.5-3.2-7-7.1-7.2-12.9c-0.2-6.9-2.1-13.2-7.2-18.6c-4.1-4.4-7.5-9.6-10.7-14.6c-4.6-7.1-2-14.8,0.6-21.4c2.4-6,8.4-9.1,15.5-9.3
		c5.1-0.1,10.2-1.2,15.3-1.6c1.4-0.1,3.2,0.1,4.3,0.9c3.7,2.6,7.4,2.1,11.2,0.7c5-1.8,10.1-3.7,15.2-5.5
		C276,299,277.2,298.4,278.4,297.8z"/>
	<path id="XMLID_725_" d="M476.1,411.2c-2.7-0.4-5.1-0.9-7.5-1.1c-7.2-0.9-12.1-6-12.5-13.2c-0.5-9.4,1.8-17.2,10.5-22.5
		c7.5-4.6,12.2-11.8,14.9-20.1c2.8-8.7,7-9.6,15.7-5.3c9,4.4,11.6,12.7,12.6,21.7c0.9,7.8,1.6,15.7,2.2,23.5
		c0.1,1.6-0.2,3.3-0.7,4.9c-2.2,7.5-4.1,15.2-7,22.5c-2.4,6.1-5.6,12.1-9.3,17.5c-3.3,4.7-7.4,4.3-11.4,0.1
		c-0.5-0.5-0.9-1.3-1.5-1.7c-1.3-0.8-3-2.2-4.1-1.9c-1.2,0.4-2,2.4-2.6,3.8c-2.2,5.1-3.8,10.5-6.6,15.3c-3.3,5.8-7.4,5.6-11.2,0.2
		c-6.8-9.7-5-26.6,4-34.1c2.2-1.8,5.7-2.3,8.7-2.8C475,417.2,475.6,416.7,476.1,411.2z"/>
	<path id="XMLID_724_" d="M633.7,485.2c8.4,1.3,17.4,2.8,26.3,4.1c7.1,1,14.3,1.7,21.5,2.8c14.2,2.3,26.1,8.3,33.4,21.4
		c3.8,6.9,2,11.6-5.4,13.9c-4.7,1.5-9.6,2.4-14.5,3.5c-0.6,0.1-1.4-0.4-2-0.7c-7-3.2-13.9-6.7-21-9.7c-5.6-2.4-11.2-4.3-13.3-11.2
		c-0.5-1.8-4.5-3.4-7-3.5c-8.1-0.3-16.3,0.3-24.5,0.2c-3.3,0-6.6-0.7-9.8-1.5c-4.1-1.1-7-3.6-7-8.3c0-5.1,3.5-7.4,7.4-8.5
		C622.7,486.4,627.9,486.1,633.7,485.2z"/>
	<path id="XMLID_723_" d="M555.8,496.7c-4.1-1.5-8-2.3-11.4-4.2c-9.1-5.1-9.3-5.5-17.6,1.3c-7,5.7-14.4,6.3-22.6,3.8
		c-5.4-1.6-7.4-7.9-4.1-12.7c2.5-3.6,5.2-7.1,7.1-11c4.2-8.4,17.3-9.4,21.7-1.4c2.2,4,4.8,4,8.6,1.1c4.7-3.5,9.4-7.2,14.4-10.2
		c2.2-1.4,6.5-2.7,7.7-1.6c2.3,2,4.5,5.9,4.3,8.8c-0.5,5.3,1.1,9,4.6,12.6c2.9,3,2.5,6.9-1.1,8.9
		C563.9,494.1,559.8,495.2,555.8,496.7z"/>
	<path id="XMLID_722_" d="M508.9,547c8.1,0.9,16.3,1.3,24.2,2.8c7.8,1.5,9.8,7,6.1,14c-6.3,12-13.9,15.2-29.8,12
		c-7.3-1.5-14.1-4.1-19.8-9.3c-3.2-2.9-7.3-4.9-11.2-6.7c-3.3-1.5-5.4-3.2-4.8-7.1c0.5-3.9,3.9-3.5,6.3-3.8
		c4.8-0.6,9.6-0.8,14.4-0.9c4.9-0.1,9.7,0,14.6,0C508.8,547.7,508.8,547.3,508.9,547z"/>
	<path id="XMLID_721_" d="M675.2,370.5c0-3.3-0.1-6.7,0-10c0.1-4.7,3.9-8.1,8.7-7.8c5,0.3,8.6,4.2,8,9.1c-0.2,2.1-0.9,4.1-1.3,6.2
		c-0.8,4,1.6,5.6,4.9,4.9c4.9-0.9,9.7-2.4,11.7-8c1-2.7,2.1-5.4,3.8-7.7c1-1.4,3.5-2.9,4.9-2.6c2.4,0.5,5.3,1.9,6.4,3.9
		c1.4,2.6,1.5,6.1,1.8,9.2c0.4,3.6,0.2,7.3,0.5,10.9c0.3,4.9-0.5,9.3-5.3,11.5c-5.8,2.7-11.8,5.2-17.9,0.2c-1.7-1.4-3.4-3.4-5.4-3.8
		c-1.7-0.4-3.8,1-5.8,1.4c-3.5,0.8-7.9,2.9-10.4,1.6c-2.6-1.4-3.7-6.1-4.6-9.6c-0.7-3-0.2-6.3-0.2-9.5
		C675.1,370.5,675.1,370.5,675.2,370.5z"/>
	<path id="XMLID_720_" d="M908.4,431.2c-5.6,0.1-9.1-2.1-11.1-7c-2.3-5.8-4.9-11.4-7.1-17.2c-2.1-5.2-1.1-8.9,2.9-12.6
		c10.5-9.9,31.2-7.7,39.2,4.4c5.5,8.3,2.3,16.3-5.7,17.9c-5.2,1.1-8.5,4.9-10.9,9.6C914.1,429.4,912.1,432,908.4,431.2z"/>
	<path id="XMLID_719_" d="M806.6,331.6c-4.6,6.3-15,5.1-15,15.4c4.2,0.8,8.8,1.8,13.4,2.5c8.2,1.3,9.9,4.4,6.2,11.8
		c-0.9,1.7-1.5,3.6-1.9,5.5c-1.8,9.4-11.6,14-20,9.4c-3.3-1.8-5.2-4.6-4.8-8.5c0.5-4.3-0.5-7.3-5-9.4c-6-2.8-9.4-15.5-5.6-19.3
		c1.6-1.6,3.9-3,6.2-3.5c7.5-1.5,15.2-2.6,22.8-3.8C803.7,331.5,804.4,331.6,806.6,331.6z"/>
	<path id="XMLID_718_" d="M331.6,366.8c-4.7,0-8.3-3.8-9.2-10.5c-0.5-3.4-0.4-7-0.2-10.4c0.3-4.5,4.6-8.3,9.6-8.7
		c8.8-0.8,9.2-1.3,10.5-10.2c0.6-4,1.7-7.9,2.9-11.8c0.9-2.8,2.8-3.4,5.2-1.5c4.1,3.4,8.1,6.8,12.1,10.3c2.4,2.1,3.1,4.3,0.8,7.4
		c-3.1,4.2-6.2,7.3-11.9,8c-6.3,0.8-8.2,3.7-6.1,10C348.3,358.2,338.3,367.1,331.6,366.8z"/>
	<path id="XMLID_717_" d="M372.8,493.1c-0.5,7.9-5.9,14.1-13.2,15.6c-2.8,0.6-5.4,2.5-7.8,4.1c-1.5,1-2.5,2.7-3.8,3.9
		c-4.7,4.4-7.1,3.9-9.8-2.1c-1.7-3.9-2.8-8-4.6-11.8c-1.6-3.6-0.9-6.7,1.9-8.9c5.5-4.4,11-9,17-12.5c3.1-1.8,7.6-2,11.3-1.8
		c2.1,0.1,4.7,2.2,5.8,4.2C371.4,486.5,371.9,489.9,372.8,493.1z"/>
	<path id="XMLID_716_" d="M122.3,344.9c0.2,1.8,0.3,3.7,0.7,5.5c0.8,4.4-0.2,5.6-4.6,5.1c-7.5-0.9-9.5-3.7-8.3-11.3
		c0.8-5.2,1.3-10.5,1.7-15.8c0.4-5.2,2.7-7.3,7.3-9.5c3.9-1.9,6.5-0.8,9.7,1.2c3.9,2.3,8.2,4,12.1,6.3c5,2.9,5.5,8.4,1.5,12.5
		c-2.3,2.3-4.6,4.7-6.7,7.3c-3.9,4.9-6.3,5-10.4,0.2c-0.6-0.7-1.2-1.3-1.8-1.9C123.1,344.6,122.7,344.7,122.3,344.9z"/>
	<path id="XMLID_715_" d="M781.4,475c-1.3,6.2-2.8,10.9-8,13.4c-4.1,2-8.2,3.9-12.2,6.1c-3.1,1.8-5.7,1.3-8.5-0.4
		c-10.5-6.3-12.3-18.6-3.5-26.3c2-1.7,5-2.4,7.6-3.4c1.5-0.6,3.8-0.4,4.6-1.4c3-4,4.8-1.5,7.2,0.6c2.8,2.4,6.1,4.4,8.9,6.8
		C779.2,471.8,780.4,473.8,781.4,475z"/>
	<path id="XMLID_714_" d="M426,417.6c1.8,3.1,3.1,6.7,5.6,9.2c3.6,3.5,4.2,7,2.6,11.5c-1.9,5.6-5.1,9.5-11.3,10.5
		c-5,0.7-7.9-2-10.2-6c-1.8-3.1-3.4-6.5-5.7-9.3c-6.8-8.4-0.4-20.4,8.3-23.1c1.1-0.4,2.4-0.5,3.5-0.7
		C425.6,408.5,427.5,410.2,426,417.6z"/>
	<path id="XMLID_713_" d="M466.4,516.1c-0.7,8.6-1.1,17.2-2.2,25.8c-0.4,3.2-1.9,6.4-3.7,9.1c-2.5,3.7-8.1,2.9-8.8-1.3
		c-2-11.8-7.9-23.2-4.6-35.6c1.4-5.3,2.6-10.6,7.8-13.8c2.6-1.6,4.4-1.5,6.7,0.8C465.8,505.4,467.1,510.3,466.4,516.1z"/>
	<path id="XMLID_712_" d="M981.6,434c0,6.4-3.9,11.5-9.6,13.1c-3.9,1.1-6.4-1.3-8.6-3.8c-3.8-4.5-7.5-9.1-10.9-13.9
		c-1.3-1.8-2-4.1-2.6-6.2c-1-3.7-2.3-7.4-2.5-11.2c-0.1-2.4,0.7-6.1,2.4-7.1c1.6-0.9,6.3,0.1,7.1,1.6c4.1,8,11.1,11.8,18.5,15.9
		C979.6,424.7,981.2,429.5,981.6,434z"/>
	<path id="XMLID_711_" d="M959.9,555.6c0,6.9-1.6,9.3-7.6,11.9c-5.1,2.2-8.5-0.3-12-3.7c-4.4-4.2-6.1-9.5-6.9-15.4
		c-0.4-3.4-1.2-6.8-2.2-10.1c-1.5-4.7-0.1-9.6,3.4-11c3.2-1.3,7.3,1.2,9.9,5c1.6,2.4,3.8,4.9,6.3,6.3
		C957.6,542.5,959.8,548.4,959.9,555.6z"/>
	<path id="XMLID_710_" d="M640.3,420.5c-3.7-1.6-7.8-2.6-11-4.9c-4.4-3.1-7.6-7.9-6-13.3c1.7-5.6,5.3-10.5,11.6-11.8
		c7-1.4,14-1.5,19.4,4.4c0.9,1,1.9,2.1,2.2,3.4C658,405,650.3,420.4,640.3,420.5z"/>
	<path id="XMLID_709_" d="M602.9,699.2c-1.8,2.5-3.3,6.1-5.8,7.2c-1.8,0.8-5.9-1.2-7.5-3.2c-8-10-11.5-22.2-15.7-34
		c-1.4-4.1,3-9.7,7.6-10.9c4.3-1.1,7,0.5,8.7,5.7c2.4,7.5,4.3,15.1,6.6,22.6c0.8,2.7,2.4,5.2,3.6,7.8
		C601.1,695.7,601.8,697,602.9,699.2z"/>
	<path id="XMLID_708_" d="M402.9,358c-2.8-2.3-6-3.9-7.5-6.4c-2.7-4.5-4.6-9.6-6.3-14.5c-2-5.6,4.4-12.3,10.4-10
		c8.2,3.1,16.1,7.4,23.7,12c4.1,2.5,4,6.9-0.1,9.3C417,352,410.2,354.6,402.9,358z"/>
	<path id="XMLID_707_" d="M420.5,492.5c1.7-2.7,2.8-6.4,5.2-7.8c7.9-4.7,11.7-11.9,14.2-20.2c0.9-3,1.7-6.2,3.3-8.8
		c0.9-1.5,4.7-3.3,5-3c1.9,2.1,4.5,4.7,4.3,7.1c-0.2,3.9-2.6,7.6-3.6,11.5c-1.1,4.2-2.3,8.4-2.6,12.7c-0.3,5-1.7,9.1-5.9,12.1
		c-2.1,1.5-4,3.3-5.9,4.9c-5.6,4.7-10.9,2.9-12.6-4.2c-0.3-1.2-0.3-2.4-0.4-3.6C421,492.9,420.7,492.7,420.5,492.5z"/>
	<path id="XMLID_706_" d="M863.3,590.8c-12.8-0.1-18.9-6-18.5-18.1c0.2-4.8,2.9-8.6,7.5-10.3c10.7-4.1,21,2.7,21.8,14.5
		c0.1,1.1,0,2.1,0,3.2C874,588.6,871.8,590.8,863.3,590.8z"/>
	<path id="XMLID_705_" d="M876.1,616.4c0.3-1.8,0.3-2.8,0.6-3.6c0.5-1.3,1.1-3.5,1.9-3.6c1.4-0.1,3.3,0.6,4.3,1.7
		c2.6,2.9,5.3,5.9,7.2,9.3c5.5,9.7,10.7,19.7,16,29.5c1.4,2.6,1.7,5.2-1.4,6.5c-2.5,1-5.3,1.8-7.3-1.8c-0.8-1.3-3-2.2-4.8-2.5
		c-4-0.7-6.2-2.3-7.2-6.7c-1.7-7-4.6-13.7-6.9-20.6C877.5,621.7,876.8,618.6,876.1,616.4z"/>
	<path id="XMLID_704_" d="M458.3,320.7c7.2-0.2,8.3,1.3,6.7,8.2c-0.7,2.9-0.6,6.1-1.6,8.9c-1.2,3.4-2.7,6.7-4.8,9.6
		c-2,2.8-5.2,4.3-8.8,2.5c-3.5-1.7-7.3-3.3-10.1-5.8c-1.6-1.4-2.5-5-2-7.2c4.1-17.8,3.3-14,19.2-16.3
		C457.4,320.6,457.9,320.7,458.3,320.7z"/>
	<path id="XMLID_703_" d="M910.2,504c-7.4-5.2-12.3-10.3-13.9-18.1c-1.5-7.7,2.7-18.6,9-22.6c2.5-1.6,4.4-1.1,5.1,1.2
		c2.9,8.5,6.8,17,7.7,25.7C918.5,494.3,913.1,499.1,910.2,504z"/>
	<path id="XMLID_702_" d="M783.5,426.3c5.4-0.5,10.8-1.1,16.3-1.6c4.9-0.4,7.9,2.4,10,6.4c2,3.8,1.4,7-1.7,10.2
		c-7.6,7.8-9.5,8-18.8,1.5c-3-2.1-6.2-3.8-9.5-5.4c-3.3-1.6-5.2-3.8-4.3-7.5c1-4,4.4-4.5,7.7-4.9
		C783.4,425.5,783.4,425.9,783.5,426.3z"/>
	<path id="XMLID_701_" d="M667.7,366.6c-7.7,12.4-19.7,15.1-30.6,9.6c-3.3-1.7-4.8-4.2-5-8c-0.1-3.8,2.1-5.9,5-7.5
		C644.8,356.4,661.6,359.7,667.7,366.6z"/>
	<path id="XMLID_700_" d="M834.7,359.2c0.6-1.1,1.3-2.7,2.3-3.9c6.1-7.4,17.4-7.4,23.5-0.1c2.6,3.1,4.7,6.6,2.4,10.7
		c-2.6,4.7-6.4,8.3-12,8.5c-6.2,0.2-14.7-7-16-12.9C834.8,360.9,834.8,360.2,834.7,359.2z"/>
	<path id="XMLID_699_" d="M955.2,469.2c-8.4,0-13.7-5.5-13.6-14.1c0.1-6.2,5-12.6,9.6-12.7c8.3-0.1,15,7.4,14.9,16.8
		C966.1,466.3,962.9,469.3,955.2,469.2z"/>
	<path id="XMLID_698_" d="M49.9,394.4c-10.4-6.1-17.4-13.1-19.5-24c-0.6-2.9,2.3-6.9,5.7-7.8c9.5-2.7,19.5,5,19.1,14.9
		c-0.1,2-0.6,4.8-2,5.8C49.5,385.9,48.5,389.1,49.9,394.4z"/>
	<path id="XMLID_697_" d="M550.6,340.4c0,7-1.5,8.5-8.5,8.4c-9-0.1-17.1-8.8-16.4-17.8c0.3-3.7,2.5-6.2,6.3-6.7
		C543.1,322.7,550.5,329.2,550.6,340.4z"/>
	<path id="XMLID_696_" d="M570.5,546.6c-3.2-1.4-6.8-2.2-9.4-4.3c-5.1-4.3-3.2-11.8,3.5-12.9c6.4-1,13.1-0.7,19.6-0.4
		c4,0.2,6.7,2.8,6.9,7.1c0.1,2.7-5.2,7.7-8.6,8.4c-1.3,0.3-2.7,0.4-4,0.5c-2.5,0.3-5.1,0.5-7.6,0.7
		C570.8,546,570.7,546.3,570.5,546.6z"/>
	<path id="XMLID_695_" d="M488,531.5c-2.6-1.3-6.5-2.1-7.3-4.1c-1-2.6-0.5-6.8,1.1-9.3c4.6-7.4,12.3-10,20.4-11.1
		c2.9-0.4,6.2,3.5,5.8,6.3C506.9,522,497.2,530.6,488,531.5z"/>
	<path id="XMLID_694_" d="M426.6,510.3c2.4,1.9,4.5,2.8,5.3,4.4c2.7,5.8,5.4,11.4,3.5,18.4c-1.2,4.5-3.3,7.8-7.4,8.7
		c-2.3,0.5-5.7-0.7-7.6-2.3c-3-2.6-5.4-6.1-3.6-10.8c1.6-4.1,2.4-8.5,4.2-12.4C422,514.1,424.3,512.6,426.6,510.3z"/>
	<path id="XMLID_693_" d="M530.5,514.9c4.1-7.6,10.4-11.6,18.2-13.8c5.4-1.5,9.8-0.1,11.3,3.6c2.3,6,1.1,9.1-4.9,12.1
		c-1.9,1-3.8,1.8-5.7,2.8c-4.9,2.6-9.4,1.7-13.8-1.5C533.9,517,532.2,516,530.5,514.9z"/>
	<path id="XMLID_692_" d="M762.8,354.2c0.1,7.5-2.3,11.7-6.7,12.9c-4.9,1.3-10.5-1.1-13.2-5.7c-2.4-4.1-1.3-8.5,3.3-13.4
		c3.8-4.1,8.9-5.5,12.6-3.4C762.8,347,763,351,762.8,354.2z"/>
	<path id="XMLID_691_" d="M995.3,578.9c0,0.9,0.1,1.8,0,2.7c-0.4,3.5,0.1,7.6-4.9,8.5c-4.2,0.7-9.4-1.7-11-5.6
		c-1.6-4.1-2.8-8.3-4-12.5c-0.2-0.9,0-2.7,0.5-2.8c4-1.4,8.4-3.8,12.3-3.3c5.5,0.7,7.1,4.1,7.3,10.4
		C995.4,577.1,995.4,578,995.3,578.9C995.4,578.9,995.4,578.9,995.3,578.9z"/>
	<path id="XMLID_690_" d="M861.7,414.7c-4.9,0.1-8.1-2.6-10.1-6.5c-1.9-3.8-3.6-7.6-0.1-11.8c2.8-3.3,6.1-4.2,9.6-2.4
		c3.2,1.6,6.3,3.8,8.7,6.4c5,5.5,3.4,10.8-3.7,13.5c-0.6,0.2-1.1,0.5-1.7,0.6C863.5,414.7,862.6,414.7,861.7,414.7z"/>
	<path id="XMLID_689_" d="M1017.2,438.4c-0.1,5.6-7,9.1-12.4,6.2c-5.3-2.9-10-15.1-7.4-20.4c0.7-1.5,3.5-3.1,5.2-2.9
		C1008,421.7,1017.3,433,1017.2,438.4z"/>
	<path id="XMLID_688_" d="M487.1,453.1c4.4,0,7.2,2.8,6.6,6.8c-0.9,5.6-2.1,11.3-3.9,16.7c-0.6,1.7-3.7,3.5-5.7,3.4
		c-1.7,0-4.2-2.1-4.9-3.9c-3.3-7.7-0.4-14.5,4.1-20.7C484.2,454,486.3,453.5,487.1,453.1z"/>
	<path id="XMLID_687_" d="M602,336.8c2-1,3.6-2.6,4.4-2.2c9.5,3.9,18.8,8.1,28.2,12.3c1.2,0.5,2.1,1.7,3,2.7
		c2.1,2.7,1.3,4.7-1.7,6.1c-3.8,1.8-11.4,0.8-13.4-2.8c-3.8-6.9-10.5-9.8-16.6-13.6C605.1,338.8,604.3,338.3,602,336.8z"/>
	<path id="XMLID_686_" d="M942.1,372.7c0.5,0.3,2.3,0.8,3.5,2c2.5,2.4,4.7,5.1,6.9,7.7c2.8,3.4,2,6.7-0.7,9.8
		c-2.8,3.2-5.7,2.5-8.9,0.5c-5-3-8-7.3-8.6-13.1C933.7,374.9,935.9,372.6,942.1,372.7z"/>
	<path id="XMLID_685_" d="M1128.3,146.8c2.2-3.6,4.3-7.7,7.1-11.2c1.9-2.3,5.8-1,6.8,2.3c2.4,7.6,1.7,15.1-2.1,22.1
		c-1.6,2.9-6.6,2.4-8.2-1C1130.4,155.5,1129.7,151.6,1128.3,146.8z"/>
	<path id="XMLID_684_" d="M912.1,680.9c-6.2,0.1-9.5-3-9.6-8.9c0-5.3,2.8-8.3,7.9-8.3c6.2,0,11.7,4.9,11.9,10.7
		C922.5,679.1,919.8,680.8,912.1,680.9z"/>
	<path id="XMLID_683_" d="M1091.5,696c-2.4-0.4-4.9-0.4-7-1.2c-4.2-1.6-5.1-5.9-1.7-8.9c4.7-4.3,10.5-5.5,16.4-3.8
		c2,0.6,4.1,3.6,4.6,5.8c0.7,3.1-1.4,5.9-4.6,6.9C1096.6,695.6,1094,695.7,1091.5,696z"/>
	<path id="XMLID_682_" d="M1053.3,669.6c0-5.6,3.2-8.7,8.7-8.6c5,0.1,9.3,4,9.4,8.6c0.1,3.4-6.5,9.8-10,9.6
		C1056.9,679,1053.2,674.8,1053.3,669.6z"/>
	<path id="XMLID_681_" d="M1003.5,551.4c0-5.4,2.6-9,6.7-9.1c3.8-0.1,9.2,5.3,9.2,9.2c0,3.7-5,8.7-8.6,8.6
		C1006.6,560,1003.6,556.4,1003.5,551.4z"/>
	<path id="XMLID_680_" d="M1006,601.5c4.1,0,8,3.2,8.1,6.5c0.1,3.4-4.1,8.2-7.3,8.1c-3.8-0.1-10.6-5.3-10.5-8
		C996.5,604.8,1001.3,601.4,1006,601.5z"/>
	<path id="XMLID_679_" d="M1102.7,50.4c1.8-3.6,3.2-7.6,5.6-10.7c2.3-3,5.4-2.1,6.2,1.6c1.1,5.4,0,10.6-3,15.1
		c-0.8,1.1-3.1,1.8-4.6,1.5c-1.2-0.2-2.2-2-2.9-3.4c-0.5-1-0.2-2.4-0.3-3.6C1103.4,50.8,1103.1,50.6,1102.7,50.4z"/>
	<path id="XMLID_678_" d="M364.8,370.9c-3,0-6.4-3.7-6.4-7.1c0-3.8,4.4-8.5,8.1-8.6c3,0,6.6,3.6,6.7,6.8
		C373.3,365.9,368.5,370.9,364.8,370.9z"/>
	<path id="XMLID_677_" d="M873.2,334.2c2.1-0.7,3.5-1.4,5-1.5c4.1-0.2,8.2,0,12.3-0.1c4.1-0.1,6,2.6,5.9,6c-0.1,3.7-3.2,4.2-6.3,4
		C885.4,342.4,878.2,339,873.2,334.2z"/>
	<path id="XMLID_676_" d="M980.9,349c-0.2,6.4-4.4,13-7.1,12.7c-2.7-0.3-4.9-5.3-4.8-10.8c0.1-3.8,2.9-7.1,6.1-6.2
		C977.6,345.4,979.5,347.9,980.9,349z"/>
	<path id="XMLID_675_" d="M278.4,297.8c-1.2,0.6-2.3,1.2-3.5,1.8c-8.9,0.3-11.4-1.1-14.1-8.5c2.3-1.2,4.6-2.4,7.1-3.5
		c2.7-1.2,4.9-1.4,5.1,2.7c0.1,1.3,2.2,2.5,3.3,3.8C277.1,295.3,277.7,296.6,278.4,297.8z"/>
	<path id="XMLID_674_" d="M354.9,534.5c-5.7,0-9.6-4.2-9.5-8.7c0.1-3.3,2.5-4.9,5.6-3.2c2.2,1.2,4.2,3,5.8,5c1,1.2,1.6,3.5,1.1,4.7
		C357.4,533.7,355.3,534.3,354.9,534.5z"/>
	<path id="XMLID_673_" d="M914.7,336.4c1.5,1.9,3,3.1,2.8,3.7c-0.5,1.5-1.9,2.6-2.9,3.9c-0.8-0.9-2.2-1.9-2.2-2.8
		C912.5,339.8,913.6,338.5,914.7,336.4z"/>
</g>
</svg>