<?xml version="1.0" encoding="utf-8"?>
<!-- Generator: Adobe Illustrator 26.0.2, SVG Export Plug-In . SVG Version: 6.00 Build 0)  -->
<svg id="svg" version="1.0" xmlns="http://www.w3.org/2000/svg" xmlns:xlink="http://www.w3.org/1999/xlink" x="0px" y="0px"
	 viewBox="0 0 1198.3 807.7" style="enable-background:new 0 0 1198.3 807.7;" xml:space="preserve">
<g id="Layer_3">
	<path id="XMLID_00000176009008309565581630000005504150106190414771_" d="M310.9,392c-7.3-0.4-14.9,0.5-21.7-1.4
		c-10.2-2.9-18.9-8.7-22.8-19.6c-1.2-3.3-2.5-6.6-4.6-9.3c-1.2-1.5-4.3-3-5.8-2.4c-2.6,1-1.6,3.6-0.5,5.8c0.7,1.4,1.2,3.3,0.9,4.8
		c-0.3,1.7-1.4,4.3-2.4,4.4c-1.9,0.2-4.8-0.6-5.7-2c-1.9-2.8-3.2-6.2-3.9-9.6c-2.8-12.7-10-23.3-16.3-34.3c-1.3-2.4-2.6-4.8-3.9-7.2
		c-6.8-13.5,1.1-26.5,16.4-26.4c4.5,0,9,0.8,13.4,1.6c9.9,1.9,15.3-1.4,17.7-11.3c0.6-2.7,0.6-5.7,4.5-5.6c4.4,0,9.3-0.7,11.2,4.6
		c1.1,3.1,1.5,6.5,1.8,9.8c0.7,7.5,3.1,9.8,10.5,11.4c4.4,0.9,8.6,2.7,12.7,4.6c4.1,1.9,4.1,6,4.1,9.8c-0.2,13.6-0.6,27.2-0.8,40.8
		c-0.1,6.6,0.1,12.7,5.8,17.9c2.2,2,1.9,7,2.1,10.7c0,0.9-2.5,2.4-3.9,2.6c-2.8,0.4-5.8,0.1-8.6,0.1
		C310.9,391.9,310.9,392,310.9,392z"/>
	<path id="XMLID_00000087394816375229394490000010639470843205421217_" d="M508.6,386.4c-3.6,0-6.9,0.1-10.2,0
		c-10.1-0.2-18.9-8.8-19.2-18.8c0-1.7,0.6-3.7,1.6-5c7.2-9,14.3-18,22-26.7c4.5-5.1,8.7-5.3,13.9-0.9c12.1,10.2,19.5,23.4,23.4,38.6
		c0.4,1.4,0.6,3.4-0.2,4.5c-3.3,4.5-1.3,8.5,0.5,12.7c2.1,4.9,3.5,10,1.9,15.5c-1.7,5.5-5.3,7-10.4,4.7c-2-0.9-4.3-1.6-6.4-1.8
		c-6.9-0.6-6.4,1.7-6,6.9c0.2,3.2,1.1,6.3,1.6,9.4c1.2,7.3-3.6,11.8-10.4,9c-8.9-3.6-14.6-11.1-17.5-19.9
		c-1.9-5.9,1.6-11.2,6.1-15.3c2-1.8,4.4-3.3,6.6-4.8C509.3,391.9,509.4,391.7,508.6,386.4z"/>
	<path id="XMLID_00000176748973263933690650000009307364240476347288_" d="M683.2,500.3c-7.4-2-15.6-4-23.7-6.4
		c-2-0.6-3.9-1.8-5.4-3.2c-3.1-3-4.4-6.8-2.9-11.2c1.5-4.3,5.1-5.3,9-5.6c11-0.8,21.4,2.3,31.5,5.8c8.3,2.8,16.5,6,24.4,9.8
		c3.3,1.6,6.3,4.8,8.1,8c2.5,4.4,3.9,9.5,5.3,14.4c1.9,6.7-3,13.9-10,14.8c-4,0.5-8.1,0.4-12.1,0.4c-0.8,0-1.8-0.6-2.4-1.2
		c-4.3-4.6-8.7-9.2-12.8-14C689.2,508.5,686.5,504.6,683.2,500.3z"/>
	<path id="XMLID_00000049220636082545773780000015276098149844589440_" d="M438.9,408.6c-0.1,1.1-0.1,2.4-0.3,3.5
		c-0.8,4.2-2.3,7.9-7.2,8.8c-5.2,0.9-6.6-3.2-8.5-6.6c-0.1-0.3-0.2-0.6-0.4-0.8c-5.5-11.8-10.8-13.5-22.2-6.9
		c-2.8,1.6-5.7,4.6-9.1,2.2c-3.6-2.6-2-6.7-1.2-10.1c1.1-4.5,2.9-8.9,4.2-13.4c3.5-12.3,13.9-16.1,24.4-19.2
		c6.2-1.8,14.7,5.2,15.7,11.5c1.4,9,2.9,17.9,4.3,26.8C438.8,405.8,438.8,407.2,438.9,408.6z"/>
	<path id="XMLID_00000031897471289260219610000003195496128652578988_" d="M596.6,466.1c-3.6,3.3-6.7,7.4-10.9,9.7
		c-2,1.1-7.2-0.4-8.7-2.4c-3.1-4-5.5-8.9-6.9-13.9c-1.4-4.9-1.5-10.2-1.4-15.3c0.1-5.9,3.6-7.7,8.8-4.8c3,1.7,5.9,3.7,8.6,5.9
		c2.4,1.9,4.3,1.7,6.4-0.4c3.1-3.1,6.4-6,9.6-9c0.2-0.2,0.6-0.1,1.5-0.2c6,9.3,12,18.8,14,30.2c0.3,2,0,4.3-0.7,6.2
		c-1.9,5.3-5.8,6.7-10.3,3.4C602.8,472.5,599.5,468.9,596.6,466.1z"/>
	<path id="XMLID_00000102537388857096810300000008756670790678484410_" d="M370.1,407.4c-3.1-1.3-8.8-3.7-14.6-6.2
		c-1.2-0.5-2.4-1.4-3.6-1.9c-4.1-1.9-6.6-0.7-7.8,3.7c-0.2,0.6-0.1,1.2-0.3,1.8c-0.7,3.1-0.6,6.9-5.1,7.5c-4.4,0.6-10.4-2-12.1-5.6
		c-1.2-2.6-2.6-5.4,1.3-7.3c0.8-0.4,1-2.1,1.4-3.2c3.2-8.4,6.6-16.6,14.7-21.7c6.4-4,11-2.4,13.4,4.6c0.3,0.9,0.6,1.7,0.9,2.6
		c2,6,2.5,6.3,8.4,4.8c10.4-2.7,16.6,2.2,16.4,12.8C383.2,405.1,380.4,407.4,370.1,407.4z"/>
	<path id="XMLID_00000000188354991922023220000000422055526584839575_" d="M690.6,360.8c0.1-2.7,0.1-5.5,0.5-8.2
		c0.9-6.4,8.7-10.8,14.5-8c1.1,0.5,2,2.9,2,4.4c-0.1,3-1.1,5.9-1.3,8.9c-0.3,3.9,1.5,5,5.3,4.5c5.7-0.7,9.2-3.9,12-8.5
		c1.3-2.2,2.7-4.8,4.7-6c1.8-1.1,5.1-1.4,6.9-0.5c2.1,1.1,4.5,3.9,4.6,6.1c0.2,4.8-0.9,9.8-1.5,14.6c-0.2,1.3-0.5,2.7-0.9,4
		c-1.5,5.8-5.1,9.5-11.1,10.5c-5.8,0.9-9.7-2.6-12.3-6.9c-2.4-3.9-4.5-4.4-7.8-1.8c-0.7,0.5-1.6,0.9-2.4,1.3
		c-6.7,3.7-12.6,0.4-13-7.5c-0.1-2.3,0-4.5,0-6.8C690.7,360.8,690.6,360.8,690.6,360.8z"/>
	<path id="XMLID_00000059279217793365050370000014398912598413789573_" d="M1124.6,682.5c-6.4,6.7-7.2,8.9-13.8-0.4
		c-9.2-12.9-17-26.8-25.1-40.4c-3.8-6.5-6.9-13.5-10.2-20.3c-0.8-1.6-1.4-3.4-1.5-5.2c-0.3-5.8,3.4-8.6,8.3-5.7
		c5.4,3.2,10.2,7.4,15,11.6c1.1,1,1,3.6,1.2,5.5c0.7,9.5,1.7,19.1,6.5,27.5c2,3.5,5.7,6,8.6,8.9c0.9,0.9,2.1,1.7,2.7,2.8
		C1119.1,672,1121.8,677.2,1124.6,682.5z"/>
	<path id="XMLID_00000128445322812357976750000009911723034753233840_" d="M533.3,475.7c5.5,0,14.7,6.5,16.7,12.4
		c3.3,9.9,6.3,19.8,9.1,29.9c1.7,5.8,0.3,9.9-4.2,12c-4.3,2.1-8-0.1-11-3.2c-10.5-10.8-15.5-24.4-18.6-38.7
		C523.9,481.4,528.2,475.7,533.3,475.7z"/>
	<path id="XMLID_00000003106724261120352610000015922926354614061961_" d="M907.5,396c10.5-0.5,18.6,3.7,24.4,12.3
		c3.5,5.1,2.9,7.7-2.4,10.6c-1.7,0.9-3.6,1.4-5.4,2.2c-5,2.3-10.3,4.2-15,7c-7.3,4.4-9.8,4.2-14.3-3.2c-2.4-3.9-4.6-7.9-6.3-12
		c-3.1-7.5,0.7-14.2,8.6-15.8C900.5,396.5,904,396.4,907.5,396z"/>
	<path id="XMLID_00000008124367207593633430000015281377572869087930_" d="M428.2,484.1c3.5,1.5,7.2,2.5,10.2,4.4
		c7.3,4.7,11.4,12,15.2,19.5c1.4,2.8,0.3,4.7-2.8,5.3c-1,0.2-2.1,0.3-3.1,0.5c-5.7,1-7.5,2.8-8.7,8.3c-1.1,4.7-2.1,9.5-3.6,14
		c-2,6-6,7-10.6,2.7c-7.1-6.6-7.7-8.8-4.7-16.9c3.2-8.8,5.8-17.8,8.2-26.9C428.9,492,428.2,488.5,428.2,484.1z"/>
	<path id="XMLID_00000160908652756374529760000005523288211472338573_" d="M266.2,732.6c-6.5-0.2-9.3-4.4-7.4-8.9
		c1.1-2.5,2.9-4.6,4.1-7c1.7-3.3,2.6-7.1,4.7-10.1c2.8-4,5.9-8.1,9.8-11c5.2-3.9,10.8-7.8,18.1-7.4c6.2,0.3,9.5,5.4,6.2,10.7
		c-2.9,4.7-6.6,9.1-10.4,13.1c-5.6,5.9-11.6,11.5-17.7,16.9C271.1,730.9,267.8,731.8,266.2,732.6z"/>
	<path id="XMLID_00000093864969518383797620000011603466839289100416_" d="M815.7,334.8c-1,0.8-2,1.7-3,2.5
		c-1.7,1.5-3.4,3.1-5.2,4.7c1.9,1.2,3.8,2.8,5.8,3.6c2.9,1.2,6.1,1.6,9.1,2.7c4.6,1.8,5.6,4.4,2.8,8.4c-2.8,4.1-5.8,8.1-9.2,11.8
		c-3.9,4.3-11.2,4.9-16.3,1.9c-2.7-1.6-3.3-3.9-2.4-6.6c1.6-4.6-0.6-7.5-3.3-10.9c-2.4-3-3.7-7-5.1-10.7c-1.1-2.9,0.7-4.9,3.3-6.1
		C799.7,332.5,807.4,333.4,815.7,334.8z"/>
	<path id="XMLID_00000061440550457815046220000007537161711538385559_" d="M513.4,472.5c-1.2,2.8-2.2,6-3.9,8.8
		c-1.9,3.3-4.2,6.5-6.8,9.4c-0.8,0.9-3.3,1.3-4.6,0.8c-6.3-2.2-9.7-7.6-8.9-14.7c0.5-4.6,1.4-9.4,3.3-13.6
		c3.7-8.4,1.8-16.2-0.4-24.3c-0.5-1.8,0-3.8,0-5.8c2.3,0.8,5.8,0.8,6.7,2.4c4.1,7.5,7.8,15.3,11.1,23.3
		C511.7,462.9,512.2,467.5,513.4,472.5z"/>
	<path id="XMLID_00000061436093145569871470000015186747773611424673_" d="M133.4,308.7c5.5,4,11.1,8.2,16.7,12.3
		c2.1,1.6,2.9,3.4,1.3,5.8c-2.7,4.2-5.1,8.5-8,12.6c-2,2.8-4.5,3.5-6.9,0.3c-0.7-1-1.6-2-2.6-2.5c-0.8-0.4-2.1-0.4-2.9,0
		c-0.5,0.2-0.6,1.5-0.5,2.3c0.1,0.9,0.6,1.7,0.9,2.6c2,6,0.4,7.9-5.9,6.8c-4.3-0.8-8.6-4.9-8.4-9.4c0.2-5.7,0.6-11.6,2.4-16.9
		c1.2-3.6,4.9-6.6,7.7-9.5C128.8,311.4,130.9,310.4,133.4,308.7z"/>
	<path id="XMLID_00000134944247913802294660000005177693294620490652_" d="M952.9,417.7c9,8.5,17.2,17.2,22.5,28.3
		c1.5,3.3,0.3,5.9-1.6,8.4c-3.6,4.5-7.2,9.6-13.9,8.4c-6.2-1.2-9.3-6.2-10.8-11.8C946.1,439.9,942.9,428.5,952.9,417.7z"/>
	<path id="XMLID_00000005263644952200177460000010791564953151925914_" d="M413.4,324.3c8.8,2.7,19,5,27.2,12.1c2.4,2,2.9,5,0.6,6.7
		c-6,4.4-12.4,8.3-18.9,12.2c-0.9,0.5-3.3-0.1-4.1-0.9c-5.1-5.5-10.7-10.8-14.6-17.1C399.8,331.4,405,324.3,413.4,324.3z"/>
	<path id="XMLID_00000151544940112919562750000000540478987691674293_" d="M870.9,494.4c-12.3-0.7-17-7.8-11.9-18.8
		c3.2-7,8.4-12.2,15.4-15.4c3.9-1.8,8.3-2.7,11.8,0.9c3.6,3.8,5,9,2.5,13.4c-3.5,6.3-8.1,11.9-12.6,17.6
		C875,493.4,872.7,493.7,870.9,494.4z"/>
	<path id="XMLID_00000152255660011123526190000014048381746619034260_" d="M881.9,537.4c-5,5.6-9.6,11.5-14.9,16.5
		c-2.4,2.2-6.3,3.2-9.7,4c-3.4,0.7-6.7-0.2-8.5-3.7c-1.8-3.8-2-7.5,0.6-11.1c4-5.5,7.4-11.5,12-16.4c3.2-3.4,7.8-5.6,12.1-7.6
		c2.7-1.2,6.3,3.4,4.9,6.4C876.2,530,878,533.2,881.9,537.4z"/>
	<path id="XMLID_00000047741911591234206390000016833411550636159921_" d="M475.6,425.1c-0.5,2.2-0.7,4.5-1.4,6.6
		c-2.2,6.4-7.2,8.7-13.2,5.5c-6.5-3.5-13.1-7.1-15.8-14.8c-2.5-6.9-0.3-15.1,5.2-19.8c1.7-1.4,3.1-1.9,5.1-0.2
		c5,4.4,10.5,8.2,15.3,12.9c2.5,2.4,3.8,6,5.7,9.1C476.1,424.7,475.8,424.9,475.6,425.1z"/>
	<path id="XMLID_00000142860656741502905380000016142274086158001335_" d="M751.5,478.4c0.8-9.5,5.4-15.2,11.6-19.4
		c4-2.7,8.9-1.8,12.1,1.6c4.4,4.7,7.7,10.1,5,16.8c-2.7,6.5-7.6,11.2-14.1,14.1c-4.5,2-8.9,0.6-11.2-3.7
		C753.1,484.5,752.3,480.8,751.5,478.4z"/>
	<path id="XMLID_00000016762124995773505500000012960750079552729533_" d="M358.5,352c0,8.4-5.1,14.7-11.7,15.3
		c-8.1,0.8-14.9-8.5-13.5-18.2c1.2-7.9,5.4-12.7,11-13.1c7.7-0.5,13,4.2,14.1,12.7C358.6,349.9,358.5,351,358.5,352z"/>
	<path id="XMLID_00000111901151318293489830000002656382471912351666_" d="M662.6,375.3c7.4,0,13.3,5.7,13.3,13.1
		c0.1,7.6-5.8,13.4-13.6,13.4c-8,0-13.6-5.4-13.6-13.2C648.6,380.8,654.3,375.4,662.6,375.3z"/>
	<path id="XMLID_00000017507879711498539100000010703597095618776503_" d="M1039.9,605.4c-5.3-0.1-16.5-9.9-17.1-15.1
		c-0.5-3.5,2.9-8.3,7.5-10.4c3.5-1.6,7.4-2.2,9.9,1.3c3.1,4.4,6.3,9,7.9,14C1050.3,602.1,1047.2,605.5,1039.9,605.4z"/>
	<path id="XMLID_00000018231384789728408820000012593411817847491204_" d="M351.6,326.5c0.8-3.5,1.3-7.1,2.5-10.4
		c1.1-3.2,3.6-4.3,6.9-2.9c7.3,3.1,11.6,9,14.8,15.8c0.5,1.1,0.2,2.8-0.2,4c-1.6,4.2-10.6,7.8-16.7,6.8c-4.4-0.7-6.5-4.1-6.7-10.4
		c0-0.9,0-1.8,0-2.7C351.9,326.5,351.8,326.5,351.6,326.5z"/>
	<path id="XMLID_00000167368705741291629420000016271827863340798113_" d="M934.8,475.8c-7.2-0.1-13.3-5.5-13.2-11.7
		c0-5.6,6.2-10.9,12.9-11.1c9.7-0.3,16.3,7.2,13.4,15.1C946.2,472.9,941.1,475.9,934.8,475.8z"/>
	<path id="XMLID_00000132061247194823157270000003613103735355910561_" d="M26.1,377.8c0-0.8,0-1.5,0-2.3c0.5-5.7,1.1-6.2,6.6-4.7
		c2.8,0.8,5.5,1.6,8.2,2.5c5.9,1.9,9.7,6.6,10.1,12.1c0.3,5-2.9,9.5-8.7,12c-0.6,0.3-1.7,0.1-2.3-0.2
		C31.6,393.5,26.6,387.2,26.1,377.8z"/>
	<path id="XMLID_00000096028544012544008840000012932327484994851480_" d="M667.3,365.2c-4.4-1.3-8.6-2.1-12.3-3.8
		c-5.8-2.7-5.9-8.1-0.5-11.5c6.5-4.2,20.5-4,26.5,0.3c4.8,3.4,4.7,8.6-0.7,11.1C676.2,363.1,671.7,363.9,667.3,365.2z"/>
	<path id="XMLID_00000090975661925055011660000013395567523515654798_" d="M511.3,531.1c-3-2-6.7-3.5-8.8-6.1
		c-5.2-6.4-4.6-17.5,0.7-23.6c0.5-0.6,2.2-0.7,3.1-0.4c8.1,2.7,14.9,13,14.2,21.3C520.1,526.4,516.2,530,511.3,531.1z"/>
	<path id="XMLID_00000171708295686885518310000001046084673025259422_" d="M464.8,316.7c12.2,0,12.9,0.9,10.5,12.6
		c-0.9,4.5-4.3,7.7-9.5,8.6c-2.2,0.4-4.5,0.5-6.7,0.5c-5.9,0.1-7.5-1.7-7.2-7.6c0.1-1.2,0.3-2.4,0.5-3.6
		C454.1,317.4,455.1,316.7,464.8,316.7z"/>
	<path id="XMLID_00000098928713249733734650000017986817019365837744_" d="M860,351.5c3.5,1.7,7.4,3,10.4,5.4
		c4,3.2,3.6,8.3-0.1,11.8c-5.5,5.2-15.8,5.8-21.1,0.4c-1.9-1.9-3.2-5.7-2.8-8.4c0.8-5,5.1-7.1,9.8-8c1-0.2,2.1,0,3.2,0
		C859.6,352.3,859.8,351.9,860,351.5z"/>
	<path id="XMLID_00000112601395819959193560000000060262058207432844_" d="M781.2,423.9c7.6-0.7,14.4-1.8,21.3-1.8
		c6.4,0,9.6,6.7,6.4,12.2c-1,1.8-2.4,3.5-3.9,5c-4.2,4.4-8.8,4-12.7-0.7c-1.1-1.4-2.8-2.6-4.4-3.2
		C783.3,433.5,782.8,429.4,781.2,423.9z"/>
	<path id="XMLID_00000005946611256975795750000004576870079831266186_" d="M1012.1,464.9c-1.6,4.1-2.6,8.6-4.8,12.3
		c-2.3,3.8-6.2,3.5-9.1,0.1c-4.8-5.7-5-19.5-0.4-25.4c3-3.8,7.8-3.9,10.1,0.5C1009.8,456,1010.6,460.3,1012.1,464.9z"/>
	<path id="XMLID_00000164473413715562055610000009003849306506554771_" d="M768.1,360.8c-6.4,0-10.9-4.5-10.9-10.7
		c0-7.1,4.2-11.2,11.3-11.1c6.5,0.1,10.9,4.6,10.8,11.3C779.2,356.3,774.5,360.8,768.1,360.8z"/>
	<path id="XMLID_00000057114907386493884030000000126563481524008835_" d="M955.6,408.7c-8.3,0.8-17-11.6-16.4-18.2
		c0.5-5.6,5.8-8.4,10.9-5.3c6.3,3.8,10.2,9.5,11.3,16.8C962.2,406.9,960.3,408.8,955.6,408.7z"/>
	<path id="XMLID_00000032614515295341430070000000493608284562223244_" d="M598.4,496.4c0.2-1.3,0.2-2.7,0.5-4
		c1.4-5.4,4.6-8.4,8.8-8.3c5.2,0.1,7.1,3.9,8.4,8.1c1.5,4.7,1,9.3-1.6,13.5c-3.7,5.9-9.8,6.1-13.5,0.2c-1.7-2.7-2.2-6.1-3.2-9.2
		C598,496.5,598.2,496.5,598.4,496.4z"/>
	<path id="XMLID_00000022547625801315797140000003544654640998576779_" d="M554.8,332.5c-6.8,0-13.2-5-14.2-11.6
		c-0.2-1.4,0.7-3.3,1.7-4.4c3.7-4,8.5-3.6,13.1-2c4.4,1.4,7.8,4.1,8.5,9.1C564.6,329.3,561.3,332.5,554.8,332.5z"/>
	<path id="XMLID_00000097497425921111210400000003260607065770857649_" d="M622.3,519.6c6.5,0,10.9,4,10.9,9.6
		c0,5.6-4.9,9.6-11.6,9.5c-6.1-0.1-11-4.4-11-9.7C610.6,523.7,615.8,519.5,622.3,519.6z"/>
	<path id="XMLID_00000046310039458903892290000005506109814060869017_" d="M374.8,362.2c0-5.8,3.6-9.7,8.9-9.7
		c5.7,0,10.2,4.1,10.2,9.1c0,5.7-5.7,12-10.9,11.9C378,373.5,374.9,369.2,374.8,362.2z"/>
	<path id="XMLID_00000101814215287687047670000015256217098589806226_" d="M865.4,582.1c1-6.3,7.8-16.2,13.2-18.1
		c1.5-0.5,4.4-0.3,4.8,0.6c1.1,2.1,2.1,5.1,1.3,7c-1.7,4.8-4.3,9.2-6.9,13.6c-1.6,2.9-4.3,5.5-7.7,3.5
		C868.1,587.5,867,584.4,865.4,582.1z"/>
	<path id="XMLID_00000177455692722777891470000001989327277014119059_" d="M642.5,719.3c4.4,0.1,7.6,4.3,5.7,8.9
		c-1.8,4.5-4.8,8.6-7.7,12.6c-1.6,2.3-4.2,1.9-5.7-0.3c-2-3-4.1-6.1-5.1-9.5C628.2,726.1,636.1,719.2,642.5,719.3z"/>
	<path id="XMLID_00000121984993525735722630000017197816960001742727_" d="M989.1,429.7c0.1-7.9,2.1-11.5,6.6-11.5
		c5.9,0,11,5.3,11,11.6c0,5.6-4.3,9.6-10.4,9.5C991,439.3,989,436.7,989.1,429.7z"/>
	<path id="XMLID_00000139987880592753847560000002581205359656568991_" d="M553.9,446.6c-0.4,0.8-0.8,3.5-2,3.9
		c-1.8,0.7-4.7,0.5-6.3-0.6c-4.7-3.1-9-16.8-7.5-22.3c1.2-4.4,3.9-5.3,7.1-2.1C550.8,431,553,437.9,553.9,446.6z"/>
	<path id="XMLID_00000021821767678953466030000002490124433938984599_" d="M874.2,614.2c0,5.5-4,9.4-9.4,9.4
		c-5.5-0.1-9.3-3.9-9.3-9.5c0-5.7,3.6-9.2,9.4-9.2C870.7,605,874.2,608.4,874.2,614.2z"/>
	<path id="XMLID_00000171714155588844586000000007342110096976251016_" d="M910.2,574.3c-4.7-0.2-8.9-4.7-8.7-9.3
		c0.2-5.3,4.2-9,9.5-8.9c4.8,0.1,8.7,4.4,8.6,9.2C919.5,570.4,915.2,574.5,910.2,574.3z"/>
	<path id="XMLID_00000074431560926422146730000017276184874658554773_" d="M894.4,336.6c4.8,1.1,9.7,2,14.5,3.3
		c2.9,0.8,6.5,1.9,5.9,5.7c-0.5,3.9-4.1,5.5-7.7,5.9c-1.8,0.2-4-0.4-5.5-1.4c-3.8-2.4-7.5-5-11-7.8c-1.1-0.8-1.5-2.5-2.2-3.8
		c1.5-0.5,3-1,4.5-1.4c0.4-0.1,0.9,0,1.4,0.1C894.4,336.9,894.4,336.8,894.4,336.6z"/>
	<path id="XMLID_00000119084007660518757370000006263893373258715270_" d="M648.6,345.3c-5.4-0.3-8.8-0.7-11.5-4.8
		c-1.6-2.3-5.8-2.8-8.6-4.4c-1.6-0.9-2.7-2.5-4.1-3.9c1.6-0.8,3.2-2.3,4.8-2.4c8-0.4,14.7,3.1,20.6,7.9c1.5,1.2,2,3.7,3,5.6
		C651.1,344.2,649.3,345,648.6,345.3z"/>
	<path id="XMLID_00000052089500603055835850000005187326099074003584_" d="M1055,62.8c5.8,0.9,9.7,2.3,11.4,6.9
		c1.3,3.6,1.5,7.1-1.8,9.9c-0.3,0.3-0.7,0.8-1,0.8c-2.2,0-5,0.7-6.6-0.3c-4.3-2.7-8.2-11.3-6.4-14
		C1051.7,64.4,1054.1,63.4,1055,62.8z"/>
	<path id="XMLID_00000107578643866788734690000015124915940738416823_" d="M862.2,394.4c0.6,0,1.2-0.1,1.8,0c3.1,0.4,7-0.8,7.6,4.2
		c0.6,5.2-2,10.3-6,11.4c-4.5,1.2-8.2-0.5-10.1-4.6c-0.3-0.5-0.5-1.1-0.7-1.7C852.7,397,854.6,394.6,862.2,394.4z"/>
	<path id="XMLID_00000115483869586620499210000017283341345937454486_" d="M864.2,708.5c-4.9,0.1-8.4-3.3-8.4-8
		c0-4.7,3.2-7.9,7.9-7.9c5,0,8.4,3.2,8.5,7.9C872.2,704.7,868.6,708.4,864.2,708.5z"/>
	<path id="XMLID_00000046319667107765572820000009868224046325355437_" d="M584.6,506.5c-0.3,2.2-0.3,4.5-0.9,6.6
		c-0.3,1.1-1.8,2.4-2.8,2.4c-0.9,0.1-2.7-1.2-2.9-2.2c-1.5-6.4-2.8-12.9-3.8-19.4c-0.2-1.1,0.9-3.1,1.9-3.6c0.9-0.4,2.8,0.6,3.7,1.5
		C583.8,495.9,584.5,501.1,584.6,506.5z"/>
	<path id="XMLID_00000163064837508137762400000014840008938355206827_" d="M1000,372.4c0.1,5.1-2.5,8.5-6.7,8.6
		c-4,0.1-7-3.4-7.1-8.2c0-4.9,2.7-8.3,7-8.3C997.2,364.5,1000,367.7,1000,372.4z"/>
	<path id="XMLID_00000095328272482063468140000000458879033461510026_" d="M884.9,739.5c-5.5,0-8.2-2.7-8.2-8c0-4,1.8-5.9,5.8-5.8
		c5.5,0.1,10,3.6,9.9,7.9C892.4,737.5,889.8,739.5,884.9,739.5z"/>
	<path id="XMLID_00000163049028363001951300000003457359061562608276_" d="M445,532.4c5.7-0.2,10.2,4.1,10.3,8.4
		c0.1,3.1-1,5.4-4.4,5.6c-3.9,0.2-8.7-5.5-8.3-10.2C442.7,534.7,444.5,533.2,445,532.4z"/>
	<path id="XMLID_00000121973078858412792550000009038727274205349555_" d="M327.5,580.3c3.1-0.2,4.3,1.9,4.5,4.5
		c0.3,4.2-3.6,9.5-6.8,9.5c-3.6,0-5-2-5-5.5C320.2,583.5,322.8,580.4,327.5,580.3z"/>
</g>
</svg>