<?xml version="1.0" encoding="utf-8"?>
<!-- Generator: Adobe Illustrator 26.0.2, SVG Export Plug-In . SVG Version: 6.00 Build 0)  -->
<svg id="svg" version="1.0" xmlns="http://www.w3.org/2000/svg" xmlns:xlink="http://www.w3.org/1999/xlink" x="0px" y="0px"
	 viewBox="0 0 1198.3 807.7" style="enable-background:new 0 0 1198.3 807.7;" xml:space="preserve">
<g id="Layer_10">
	<path id="XMLID_669_" d="M318.4,389.5c1.5-2.5,2.8-5.1,4.4-7.5c3.1-4.8,6.2-9.6,9.7-14.1c2.2-2.8,5.2-2.8,7.8,0
		c0.6,0.7,1.5,1.1,2,1.8c3.6,5.6,8.2,6.5,14.3,4c1.8-0.7,5.1,0.6,6.9,2c3.5,2.7,5.8,2,8.4-1.1c6.1-7.1,12.8-13.4,22.3-15.8
		c2.8-0.7,5.6-1.4,8.5-1.6c7.7-0.5,12.2,2.7,12.1,10.5c-0.1,10.1-1.1,20.3-2.9,30.2c-0.8,4.2-4.1,8.5-7.5,11.4
		c-5.6,5-12.3,1.9-13.1-5.5c-1.1-10.3-7.9-14.9-17.8-12.3c-3.7,1-7,0.4-10.8-0.8c-5.3-1.6-11.4-0.9-17.1-0.6c-4,0.2-8,1.3-12,2.3
		c-4.4,1.1-7.8,3.5-10,7.8c-2.8,5.3-5,5.4-10.2,2.8c-1.9-0.9-5-0.6-7,0.2c-3.4,1.4-5.6,1.4-8.5-1.3c-3.7-3.5-7.9-6.7-12.3-9.3
		c-2.3-1.3-5.6-1.1-8.4-1.1c-2.3,0-8.7-3.2-9.9-5.7c-3-6.3-7.3-11.5-13.1-15.3c-1.4-0.9-3.3-1.3-5.3-2c0.8,4.3,1.7,7.6,2.1,11
		c0.3,3.2-1.6,4.4-4.6,4c-4.6-0.6-9.8-5.3-10.5-9.8c-2.1-13.2-8-24.7-15.2-35.7c-2.3-3.5-6.6-8.1-5.6-10.7c2-5.5,6.6-10.3,10.5-14.9
		c5.1-6,12.2-3.2,18.6-3.5c2.2-0.1,4.5,0.4,6.7,0.7c8,0.8,14.3-4.6,14.7-12.9c0.1-1.6,0.3-3.3,0.8-4.9c1.1-3.5,3.7-4.3,6.5-1.9
		c4.3,3.6,8.5,7.3,12.4,11.3c1,1,1.1,3.4,0.9,4.9c-1.7,9.2-1.9,10,6.8,11.7c16.9,3.2,22.2,14.1,23.3,31.1c0.7,11.5-0.1,23-0.1,34.6
		c0,1.8,0.4,3.6,0.7,5.5C317.4,389.2,317.9,389.3,318.4,389.5z"/>
	<path id="XMLID_668_" d="M474.3,432.2c-4.8,6.5-9,12.5-13.5,18.2c-4.1,5.3-7.6,4.6-10-1.8c-5.4-14.1,1-28.6,15-34.3
		c2.3-0.9,4.2-2.8,6.3-4.3c-2.1-1.5-4-3.8-6.4-4.3c-11.1-2.3-13.4-17.7-8.7-25c2.8-4.4,7-8.5,11.6-11.1c3.9-2.2,6.2-5,7.8-8.8
		c1.4-3.3,2.8-6.7,4.5-9.9c4.2-8.3,13.9-9,19.5-1.6c4.4,5.9,5.5,12.9,5.7,19.8c0.8,22.3-3.4,43.7-14.2,63.5
		c-0.8,1.5-1.7,2.9-2.8,4.1c-3.7,4.3-5.1,4.2-9.1,0.3C478.3,435.5,476.4,434,474.3,432.2z"/>
	<path id="XMLID_667_" d="M626.9,486.9c10.1,2.5,20.3,4.6,30.2,7.7c5,1.6,9.7,1.8,14.5,0.9c6.1-1.2,11.6-0.5,17.2,1.8
		c4.5,1.8,9.4,3.1,14.3,3.8c8.9,1.4,15.3,10.6,11,19.8c-1.2,2.6-5,4.8-8,5.7c-5,1.5-10.3,2.3-15.6,2.7c-2.8,0.2-6.1-0.4-8.6-1.7
		c-6.8-3.8-14.6-6.2-20.6-10.4c-8.8-6.1-18-4.2-27.1-5.9c-5.2-0.9-10.4-2-15.4-3.7c-5.2-1.7-7.2-5.8-6.6-11c0.6-4.6,3.5-7.3,9-8.1
		c1.8-0.3,3.6-0.3,5.4-0.4C626.7,487.6,626.8,487.3,626.9,486.9z"/>
	<path id="XMLID_666_" d="M548.5,494.9c-6.2,1.1-11-2.1-15.7-5.5c-3.3-2.4-5.9-3.2-9.4,0.3c-2.4,2.4-6.1,4.1-9.5,4.8
		c-6.2,1.3-12.6,2-18.9,2.3c-6.2,0.2-9.1-4.8-5.9-10c3.2-5.3,6.6-10.6,10.7-15.2c5.1-5.7,12.5-5.4,18.2-0.2c1.1,1,2.2,2.1,3.4,3.1
		c2,1.8,3.8,1.8,6.1,0.3c4.6-2.9,9.4-5.6,14.1-8.3c6.2-3.5,8.4-3,12.3,3c2.6,4.1,5.1,8.3,7,12.7c3.2,7.6,0.5,11.9-7.8,12.7
		C551.6,495,550.1,494.9,548.5,494.9z"/>
	<path id="XMLID_665_" d="M696,379.8c3.2-1.3,6.5-2.4,9.6-3.9c4.7-2.1,8-5.2,9.2-10.8c1.5-7.6,3.9-8.9,10.2-7.8
		c5.6,1,8.5,4.6,8.1,11.1c-0.4,7.3-0.4,14.8-4.7,21.4c-5.8,8.7-17.7,10.4-25,3.1c-3.2-3.2-6.6-3.9-10.7-2.4
		c-1.8,0.7-3.7,1.3-5.5,2.1c-3.3,1.5-7.1,1.8-9.3-0.9c-1.9-2.5-3.5-6.4-3-9.4c1.1-7.3,3.2-14.5,5.3-21.6c0.5-1.8,2.6-4.6,3.9-4.6
		c4,0.2,8,1.3,11.9,2.5c0.5,0.2,0.5,3.7-0.2,5.3C693.4,369.1,692.5,374.3,696,379.8z"/>
	<path id="XMLID_664_" d="M821.5,333.6c-1.8,2.2-2.6,3.7-3.9,4.6c-3.8,2.4-8,4.4-11.7,6.8c-1.7,1.1-3.2,2.9-4,4.8
		c-0.5,1.1,0.2,3.7,1.1,4.3c6.5,3.7,13.2,7,19.8,10.5c0.3-0.4,0.6-0.7,0.8-1.1c0.1,0.9,0.5,1.8,0.2,2.5c-1.9,5.5-3.7,11.1-6.1,16.4
		c-2.1,4.4-9.8,6.4-16.9,4.8c-4.7-1.1-5.8-5-6.9-9.2c-1.3-4.9-3.1-9.7-5.1-14.3c-1.3-3-3.3-5.8-5-8.6c-4.8-7.5-3.3-12.2,5.2-16.9
		c4.5-2.5,9.9-3.7,15-4.4C809.2,333,814.6,333.6,821.5,333.6z"/>
	<path id="XMLID_663_" d="M513.5,568.6c-11.6-6.1-23.7-12.4-36.2-18.9c5.4-8,10.7-13.4,20.4-13c11.7,0.4,23.2,2,34.2,6.1
		c8,3,9.1,8.1,2.5,13.8c-4.6,4-9.1,8.5-16,8.6C517,565.2,515.8,566.9,513.5,568.6z"/>
	<path id="XMLID_662_" d="M940.8,421.7c-2.5,3.2-4.4,6.9-7.4,9.2c-5.5,4.2-11.6,7.6-17.5,11.2c-5.1,3.1-7.7,2.3-10.7-2.9
		c-3.4-5.9-6.4-12-9.9-17.8c-2.5-4.2-1.6-7.6,1.9-10.4c2.2-1.8,4.8-3,7.4-4.3c3.3-1.6,6.6-3.2,10-4.5c1-0.4,2.5-0.3,3.4,0.3
		c6.5,4.3,13.1,8.7,19.4,13.3C938.9,416.8,939.4,419,940.8,421.7z"/>
	<path id="XMLID_661_" d="M963.9,453.7c-4-9.3-7.9-18-11.3-26.8c-0.7-1.8-0.4-4.3,0.2-6.3c1-3.3,3.3-2.9,5.6-1.1
		c0.5,0.4,1,0.8,1.2,1.3c3.5,7.6,10.1,11.2,17.6,14c5.8,2.2,7.6,5.4,7.4,11.6c-0.2,4.6-2.4,7.8-6.6,9.3c-6.4,2.3-10.3,6.2-10,13.3
		c0,0.7-0.4,1.5-0.5,2.2c-1.4,7.3-2.4,8.5-7.6,8.6c-6.8,0.2-12.3-3.6-13.5-9.1c-1.8-8.4,1.4-13.3,9.9-15.2
		C958.8,454.9,961.4,454.3,963.9,453.7z"/>
	<path id="XMLID_660_" d="M343.3,332c1.8-5.7,3.5-11,5.2-16.3c1.1-3.5,3.6-4.6,7.1-4.2c5.2,0.5,12.8,6.5,12.5,10.4
		c-0.4,4.9-3.9,12.3-11.4,12.7c-5.7,0.2-8.4,4.3-7.9,12c0.6,8.2-3.8,12.3-10.4,15.1c-7,3-14.3-1.7-14.4-9.3c0-2.4,0.3-4.8,0.8-7.2
		C327.3,333.5,331.5,330.5,343.3,332z"/>
	<path id="XMLID_659_" d="M428.2,550.2c-3.4-16.2-1.3-31.7,5.6-46.4c1.6-3.3,4.8-6.4,8-8.4c5.1-3.2,9.3-1,10.8,5
		c1.8,7.3,0.1,14.4-1.8,21.4c-2.3,8.8-5.6,17.3-11.7,24.3C436.5,549.3,433.2,551.3,428.2,550.2z"/>
	<path id="XMLID_658_" d="M611.3,691c-6.6-0.7-12.6-6.4-18.1-12.4c-6.6-7.3-6.4-19.5,0.1-27c3.5-4.1,10.9-3.5,14,1.9
		c4.9,8.4,9.4,17,13.5,25.8C623.5,685.2,619.5,691.1,611.3,691z"/>
	<path id="XMLID_657_" d="M408.4,316.2c7.4,0.2,15.4,2.8,20.6,10.8c0.7,1.1,1.6,2.3,2.6,3.1c3.3,2.6,4,5.3,1.1,7.8
		c-6.1,5.4-13.2,9.7-21.6,9.1c-6.3-0.5-9.9-5.9-13.3-10.7c-0.9-1.3-1.5-3-2.1-4.5C391.9,321.5,395.6,316.2,408.4,316.2z"/>
	<path id="XMLID_656_" d="M761.1,469.1c3.1,0.9,5.1,1.7,7.2,1.9c7.4,0.7,11.3,6.4,16.1,10.8c1,0.9,0,5.2-1.3,6.9
		c-6.3,7.7-17,12.9-28.3,9.8c-4.7-1.3-7.7-4.2-8.4-9c-0.7-5.2-0.8-10.4,4.4-13.8C754.5,473.3,758.2,471,761.1,469.1z"/>
	<path id="XMLID_655_" d="M340.1,495c1.2,3.2,2.7,6.2,3.4,9.4c0.3,1.6-0.5,4.7-1.4,4.9c-1.9,0.5-5.5,0.2-6-0.9
		c-1.8-3.6-2.5-7.8-3.6-11.7c-0.3-1.1-0.2-2.7-0.9-3.4c-2.9-2.9-2.4-5.7,0.1-8.4c7.4-7.8,16-13.9,26.2-17.6c0.1-0.1,0.3-0.1,0.4-0.2
		c6-1.8,10.2-1,11.9,2.3c2.2,4.3,0.4,12.1-4.3,14.5c-7.3,3.8-15,6.8-22.6,10.1C342.2,494.5,341,494.7,340.1,495z"/>
	<path id="XMLID_654_" d="M149.6,340.3c-8.3,7.3-15.2,14.1-22.8,19.9c-6.3,4.7-15.6-0.4-15.2-8.1c0.3-5.7,1.1-11.6,3.2-16.8
		c1.4-3.6,5.3-6.3,8.3-9.2c0.5-0.5,2-0.4,2.8,0C133.5,330.5,141.1,335.2,149.6,340.3z"/>
	<path id="XMLID_653_" d="M851.2,653.5c0.2,11.3-9,22-18,23.4c-1.4,0.2-2.8,1.2-4.2,1.3c-2.2,0.2-5.4,0.8-6.5-0.4
		c-1.2-1.3-1.7-5.4-0.6-6.4c3.7-3.7,3.1-8.5,4.6-12.8c2.3-6.2,3.9-12.7,6-19c1.8-5.4,5.4-6.4,8.8-1.9
		C845.4,643.2,848.6,649.4,851.2,653.5z"/>
	<path id="XMLID_652_" d="M410.6,488c0.1-3.2,3.3-7.8,6.9-12.2c1.4-1.6,2.8-3.2,4.5-4.5c7.3-5.4,12.2-12.5,16.1-20.6
		c0.8-1.7,2.8-2.8,4.3-4.1c1.3,1.7,3,3.3,3.7,5.3c0.6,1.5,0.4,3.6,0,5.3c-3.7,12.7-9.2,24.4-18.5,34c-2.3,2.4-5.5,4.4-8.6,5.7
		C413.8,499.1,410.4,496.4,410.6,488z"/>
	<path id="XMLID_651_" d="M636.1,394.5c8,0.1,13.3,3.7,15.5,10.7c1.7,5.3-0.4,11-5.4,14.7c-5.7,4.3-14.5,4.6-20,0.8
		c-6-4.1-8.4-10.2-6.6-16C621.7,398.4,628.1,394.4,636.1,394.5z"/>
	<path id="XMLID_650_" d="M407,421.1c0-13.6,5.1-19,14.4-18.8c3.2,0.1,4.6,1.7,5.4,4.4c1.7,5.6,3,11.3,5.1,16.8
		c2.6,6.9-4.2,17.9-11.6,17.5c-2.2-0.1-5.3-1.8-6.2-3.7C410.9,431.3,408.5,424.8,407,421.1z"/>
	<path id="XMLID_649_" d="M966.3,563.6c0.2,6.4-3.1,11.1-8.6,12.3c-6.3,1.5-12.2-1.1-14.7-7c-2.6-5.9-5-12-6.6-18.2
		c-0.6-2.4,0.6-7.1,2.2-7.8c2.2-1,6.6,0,8.4,1.7c3.3,3.2,6.7,5.2,11,6.4C964.9,552.9,966.1,555.1,966.3,563.6z"/>
	<path id="XMLID_648_" d="M50.2,410.7c-7.2-3-13.1-7.3-17.7-13.3c-4.6-6-3.2-12.9-2.8-19.5c0.1-1.8,3-4.1,5.1-5.1
		c5.4-2.5,13.4,0,16.7,4.7c3.6,5.1,3.1,13-0.9,17.7c-0.7,0.9-1.3,2.3-1.3,3.4C49.4,402.5,49.9,406.4,50.2,410.7z"/>
	<path id="XMLID_647_" d="M548.9,582.7c-5.7-0.3-12.1-0.6-18.4-1.2c-2.6-0.2-5.7-0.9-5.2-4.3c0.3-2.2,1.6-5.1,3.4-6.1
		c3.3-1.9,7.3-3.2,11.1-3.6c10.2-0.9,20.6-1.8,30.5,2.4c2.5,1.1,5.6,1.9,4.9,6c-0.7,4-3.2,5.6-7,5.7
		C562,582,555.8,582.3,548.9,582.7z"/>
	<path id="XMLID_646_" d="M849.3,567c6.5,0,9.8,4.5,7.4,10.5c-3.1,7.7-8.2,14.1-15,18.9c-3.7,2.6-7.4,3-11.2-0.3
		c-4.9-4.3-5.6-6.3-3.5-11.8C830.8,574.5,840.4,567,849.3,567z"/>
	<path id="XMLID_645_" d="M857.8,360.8c7.8,0,14.3,6.3,14.3,13.9c0,7.8-6.6,14.4-14.5,14.3c-7.8-0.1-14.6-6.9-14.4-14.5
		C843.3,367,849.9,360.8,857.8,360.8z"/>
	<path id="XMLID_644_" d="M648.9,381.3c-4.8-1.3-9.7-2.1-14.2-4.1c-6.5-2.8-6.9-8.4-0.8-11.9c9.8-5.6,20-5.2,29.9-0.3
		c2.1,1,4.5,4.2,4.3,6.1c-0.2,2.3-2.7,5.2-5,6.2C658.7,379.3,653.9,380,648.9,381.3z"/>
	<path id="XMLID_643_" d="M471.8,320c-2.8,6.8-4.9,13.5-8.2,19.7c-2.8,5.3-6.2,5.8-11.4,2.7c-2.1-1.2-4-2.7-5.8-4.4
		c-3.9-3.7-4.2-8.1-1.1-12.6C450.8,317.5,459.8,315.3,471.8,320z"/>
	<path id="XMLID_642_" d="M539.3,347.1c-0.9,0-1.8,0-2.7,0c-8.9-0.5-12-4.4-10.9-13.8c0.9-7.9,6.8-12.6,14.2-10.8
		c2.7,0.7,5.2,2.9,7.2,5c1.5,1.6,2.3,3.9,2.9,6.1C552.5,343.5,549.6,347.1,539.3,347.1z"/>
	<path id="XMLID_641_" d="M797.3,433c4.5,1.3,9.4,2.5,14.1,4.3c3.8,1.4,5.6,4.6,4.9,8.7c-0.8,4.1-2.7,7-7.3,8.1
		c-4.2,1-7.7,0.6-11.1-1.8c-4.9-3.5-9.9-6.9-14.8-10.5c-3-2.2-2.4-4.6,0.8-5.7C787.9,434.8,792.2,434.2,797.3,433z"/>
	<path id="XMLID_640_" d="M901.1,494.6c1.7-4.6,2.7-9.1,5-12.9c2.8-4.6,7.6-4.4,10.8,0c4.8,6.5,4.9,19.9,0.1,26.4
		c-3.6,4.8-8.4,5-11.3-0.2C903.6,503.9,902.7,499.2,901.1,494.6z"/>
	<path id="XMLID_639_" d="M393.1,525.7c0.1-6.9,9.7-18.5,15.6-19.7c4-0.9,8.4,4.1,8.1,8.9c-0.5,7.6-4.7,13.4-10.1,18
		c-1.7,1.5-5.8,1.5-8.3,0.6C394.6,532.2,392.8,528.8,393.1,525.7z"/>
	<path id="XMLID_638_" d="M773.7,359.9c0.1,7.1-4.9,13.1-11,13.2c-6.5,0.1-11.6-5.6-11.7-12.9c-0.1-7,5.1-12.9,11.2-13
		C768.6,347.2,773.6,352.8,773.7,359.9z"/>
	<path id="XMLID_637_" d="M826,710.2c-7.8,0-11.3-3.7-10.5-12.1c0.3-2.9,0.3-5.8,1.1-8.5c0.9-3.3,3.5-4.7,6.7-3.6
		c7.6,2.8,12.5,8.8,17.5,14.7c0.4,0.5-0.2,2.7-1,3.4C836.1,707.6,832,710.5,826,710.2z"/>
	<path id="XMLID_636_" d="M471.2,524.1c-2.3-1.1-6.5-2-6.7-3.4c-0.4-2.9,0.5-6.6,2.3-9c4.8-6.6,18.8-8.7,26.1-4.2
		c1,0.6,1.7,2.5,1.6,3.7c-0.3,4.8-3.6,7.7-7.8,9.1C481.8,521.9,476.8,522.7,471.2,524.1z"/>
	<path id="XMLID_635_" d="M535.5,518.2c-4.1-1.4-7.8-2.4-11.3-3.9c-3.1-1.3-3.1-3.7-0.7-5.7c6-4.9,12.5-9,20.7-9.1
		c3.8-0.1,7.3,1.2,8.5,4.7c1.3,4-0.8,7.7-4.4,9.5C544.2,515.7,539.8,516.7,535.5,518.2z"/>
	<path id="XMLID_634_" d="M571.3,523c4.8,1.2,9.5,2.1,14,3.7c1.4,0.5,3,2.8,3,4.3c0.1,1.3-1.6,3.3-3,3.9c-9.1,4-18.5,4.1-27.7,0.2
		c-1.5-0.7-3.4-2.7-3.5-4.1c-0.1-1.4,1.7-3.7,3.1-4.2C561.7,525.2,566.4,524.3,571.3,523z"/>
	<path id="XMLID_633_" d="M994.9,569.5c8.2,0.3,12.9,3.6,13.7,10c0.5,3.7-0.9,6.4-3.8,8.6c-3,2.2-6.4,3.3-9.3,1.2
		c-3.9-2.9-7.5-6.5-10.4-10.4c-2.2-2.9-0.4-6.7,3.2-8C990.4,570.2,992.7,570,994.9,569.5z"/>
	<path id="XMLID_632_" d="M606.1,334c10-0.4,17.4,4.8,24.4,10.5c2.3,1.9,4.4,4.2,6.1,6.7c2.7,4,1.2,6.8-3.7,7.3
		c-4.1,0.5-7.4-0.9-9.7-4.3c-3.3-4.9-6.3-9.8-13.4-10.1C606.6,343.9,605.5,340.1,606.1,334z"/>
	<path id="XMLID_631_" d="M865.2,407.4c6.5,0,10.7,4,10.7,10.2c0,5.6-4.7,10.5-10.2,10.6c-5.7,0.1-10.8-4.9-10.7-10.6
		C854.9,411.7,859.2,407.4,865.2,407.4z"/>
	<path id="XMLID_630_" d="M1097.2,640.9c6.2,0,10.3,4,10.4,10c0.1,6.1-4.4,10.5-10.6,10.4c-5.8-0.1-9.9-4.5-9.9-10.6
		C1087.2,645,1091.3,640.9,1097.2,640.9z"/>
	<path id="XMLID_629_" d="M939.8,396.7c0-5.9,3.9-10.4,8.9-10.4c5.4,0,9.2,4.5,9.1,10.7c-0.1,6.2-4,10.9-9.1,10.8
		C943.6,407.7,939.7,402.9,939.8,396.7z"/>
	<path id="XMLID_628_" d="M1022.9,434.4c-0.1,7-2.2,9.6-7.9,9.5c-6-0.1-9.8-5-9.6-12.4c0.1-4.9,3.9-8.7,8.7-8.6
		C1019.6,423,1023,427.4,1022.9,434.4z"/>
	<path id="XMLID_627_" d="M483.9,456.1c-1.2,5.4-2,10.2-3.4,14.8c-1,3.1-3.5,6.1-7,5c-2-0.7-3.9-4-4.5-6.4
		c-1.8-7.7,2.4-13.3,7.6-18.2c0.9-0.8,3.7-1,4.4-0.3C482.5,452.3,483.1,454.5,483.9,456.1z"/>
	<path id="XMLID_626_" d="M889.6,336c3.9,0.9,7.9,1.5,11.6,2.9c4.7,1.8,6.2,5.7,4.4,9.4c-1.6,3.4-5.9,4.5-10.2,2.5
		c-3.5-1.6-7.2-3-10.3-5.1c-1.8-1.2-2.6-3.9-3.8-5.9c1.8-1,3.6-2.2,5.5-3.1c0.7-0.3,1.8-0.1,2.7-0.1
		C889.5,336.4,889.5,336.2,889.6,336z"/>
	<path id="XMLID_625_" d="M1031,548.7c0.1,5-3.5,8.7-8.3,8.7c-4.6,0-8.4-3.6-8.6-8.1c-0.2-4.6,3.7-8.6,8.5-8.7
		C1027.3,540.6,1031,544.1,1031,548.7z"/>
	<path id="XMLID_624_" d="M380.3,354.8c0,4.7-3.4,8.5-8,8.6c-4.6,0.1-8.8-3.9-8.7-8.5c0-4.5,3.8-8.1,8.4-8.1
		C376.9,346.8,380.2,349.9,380.3,354.8z"/>
	<path id="XMLID_623_" d="M1106,127.4c0.5-1.8,0.6-5.2,2.2-7.4c1.4-1.9,4.7-3.3,7.1-3.3c1.3,0,3.4,3.7,3.5,5.7
		c0.1,3.8-0.6,7.9-1.9,11.5c-0.6,1.6-3.7,3.1-5.6,3c-1.6-0.1-3.4-2.3-4.5-3.9C1106,131.8,1106.3,130,1106,127.4z"/>
	<path id="XMLID_622_" d="M1069.6,26.7c0.6-2.3,0.9-5.6,2.2-8.3c0.8-1.6,3.4-3.3,5.1-3.2c1.7,0.1,4,1.9,4.9,3.6
		c1.9,3.8-1.4,13.3-4.9,15.6c-2.9,1.9-6.1,0.6-6.8-2.9C1069.8,30.3,1069.8,28.9,1069.6,26.7z"/>
	<path id="XMLID_621_" d="M1023.3,611.1c-4.8,0-8.5-3-8.5-6.9c0-3.8,3.9-7,8.5-7c5.2,0,8.9,2.9,9,7
		C1032.3,608.2,1028.4,611.1,1023.3,611.1z"/>
	<path id="XMLID_620_" d="M1127.7,658.3c4.3,0,7.8,3.5,7.8,7.8c-0.1,4-3.6,7.4-7.6,7.5c-4.3,0.1-7.9-3.3-8-7.5
		C1119.8,661.8,1123.4,658.3,1127.7,658.3z"/>
	<path id="XMLID_619_" d="M977.1,360.6c0.1-5.1,2.6-8.2,6.5-8c3.6,0.1,6.4,4,6.2,8.5c-0.2,5-2.9,8.1-6.7,7.9
		C979.1,368.9,976.9,365.9,977.1,360.6z"/>
	<path id="XMLID_618_" d="M348.5,553.8c-2.9,0-5.6-2.8-5.4-6.1c0.3-3.6,2.3-5.3,6-5.3c3.9,0,5.6,2.4,5.6,5.7
		C354.7,551.5,352.6,553.6,348.5,553.8z"/>
	<path id="XMLID_617_" d="M407.7,562c0.1,3.5-2.4,6.9-5.2,6.9c-4-0.1-5-3-5.1-6.2c-0.1-3.2,0.5-6.5,4.6-7.1
		C404.9,555.3,407.6,558.6,407.7,562z"/>
	<path id="XMLID_616_" d="M923.3,352.6c-3.3,0-6-1.1-6.4-4.8c-0.3-3.1,2.4-5.1,6.6-5.1c3.3,0,6,1,6.4,4.8
		C930.2,350.5,927.3,352.6,923.3,352.6z"/>
</g>
</svg>