<?xml version="1.0" encoding="utf-8"?>
<!-- Generator: Adobe Illustrator 26.0.2, SVG Export Plug-In . SVG Version: 6.00 Build 0)  -->
<svg id="svg" version="1.0" xmlns="http://www.w3.org/2000/svg" xmlns:xlink="http://www.w3.org/1999/xlink" x="0px" y="0px"
	 viewBox="0 0 1198.3 807.7" style="enable-background:new 0 0 1198.3 807.7;" xml:space="preserve">
<g id="Layer_12">
	<path id="XMLID_877_" d="M265.5,325.5c-1.4-0.3-2.8-0.2-3.7-0.8c-1.3-0.7-2.2-1.9-3.3-2.9c1.4-0.7,2.7-2,4.1-2
		c2.8-0.1,6-1.2,8.1,2.4c0.5,0.9,3.3,0.7,5,0.7c4.6,0.2,6.3,1.7,6.3,6.3c0,2.4-0.6,4.8-0.9,7.2c-0.5,4.1,0.9,6.5,5.4,7.3
		c5.2,1,10.3,2.6,15.2,4.4c6.7,2.4,10.9,7.4,13.2,14.1c0.7,2.3,1.9,4.4,3.1,7.2c2.8-1.9,5.3-3.3,7.4-5.2c10-8.6,20.3-0.4,21.3,9.5
		c0.7,7.4-6.2,18.2-13.4,20.5c-5,1.6-9.1-0.3-11.1-5.2c-1-2.3-1.7-4.8-2.8-7.9c-5.4,3.8-10.5,6.9-15.1,10.7
		c-4.4,3.7-3.7,6.2,0.3,10.2c4.5,4.4,9.9,8.8,6.9,16.7c-0.4,1,2.5,3.1,4.2,5.2c3.2-6.8,5.7-12.4,8.6-17.9c1.2-2.4,3-4.6,4.9-6.5
		c3.6-3.9,7.8-3.3,10.2,1.4c4.8,9.1,4.8,9.2,14,5.3c3.2-1.4,5.8-1,8.4,1.1c1.6,1.3,3.3,2.6,5.6,4.4c1.9-3.1,3.7-5.8,5.3-8.6
		c4.2-7.5,8.6-14.7,16.2-19.3c3.3-2,7.1-3.4,10.8-4.4c9.3-2.3,16.5,4.3,14.4,13.7c-1.8,8.3-1.7,16.1,0.5,24.2
		c1.6,5.9-3.8,14.7-9.5,16.4c-3.8,1.1-6.9-0.1-8.6-3.8c-1-2.2-1.5-4.6-2.4-6.8c-2.5-6.1-7.8-8.4-13.9-5.7c-1.9,0.8-3.6,2.3-5.4,3.4
		c-3.2,2-6.4,3.1-10.1,0.5c-1.2-0.9-3.9-1-5.3-0.3c-5.7,3.1-11.6,4.2-18,2.9c-1.5-0.3-3,0-4.5-0.3c-7.3-1.1-12.4,0.9-15.3,8.5
		c-2.1,5.5-6.3,5.5-9.8,0.8c-1.2-1.6-2.6-3.1-3.4-4.9c-3-7.2-8.9-9.3-15.9-10c-8.5-0.8-17.2-0.9-25.5-2.9c-3.6-0.9-9.3-1.1-10.7-7.1
		c-0.6-2.5-3-4.8-5.1-6.7c-1.1-1-3.6-1.3-4.9-0.8c-0.9,0.4-1,2.9-1.2,4.4c-0.1,1.3,0.7,2.8,0.4,4c-0.5,1.7-1.6,4.5-2.6,4.5
		c-1.9,0.1-4.8-1-5.5-2.4c-2-4.3-3.5-9-4.6-13.7c-2.7-10.7-6.6-20.5-16.5-26.8c-6.1-3.9-4.5-19.8,1.2-24.5c3.3-2.7,7.2-5.2,11.3-6.3
		c8.4-2.4,17.1-3.8,25.7-5.8C261.3,332.5,263.2,330.9,265.5,325.5z"/>
	<path id="XMLID_876_" d="M490,449.2c-1.3,4.9-2.2,9.4-3.9,13.6c-0.8,2.2-2.6,4.7-4.6,5.5c-2.9,1.2-5.9,0.1-8-2.7
		c-5-6.8-7.9-14.4-7.6-22.8c0.2-6.3,4.9-10.2,9.7-13.5c2.9-2,6-3.9,9.5-6.1c-4-2.8-7.6-5-10.8-7.6c-6.3-5.2-11.1-11.3-10.6-20.1
		c0.2-3.9,1.7-7.1,5.2-9.6c5.3-3.8,11.7-6.6,14.4-13.4c0.4-0.9,2-1.3,2.9-2c2.8-2.3,5.8-4.4,8.1-7.1c2.3-2.8,4.5-3.1,7.5-1.8
		c4.9,2.1,8.4,6,9.8,10.8c2.7,9.4,4.5,19.1,6.6,28.6c0.6,2.8,1.2,5.7,1.1,8.5c-0.1,3.4-0.6,6.9-1.7,10.1c-1.9,5.4-4.5,10.5-6.5,15.8
		c-2.1,5.5-3.7,11.2-5.8,16.7c-1.2,3.3-3.1,5.1-6.7,2C496.2,452.1,493.2,451,490,449.2z"/>
	<path id="XMLID_875_" d="M627.9,523.7c24-0.7,47.1,3.2,68.8,13.6c3.9,1.9,7.5,4.5,11.3,6.7c8.3,4.7,9,12.4,8.2,20.7
		c-0.1,1-1.2,2.1-2.2,2.7c-6.7,3.9-13.2,3.5-20-0.4c-7.3-4.2-15.3-7.3-22.6-11.6c-3.1-1.9-5.8-5.3-7.5-8.6c-1.9-3.7-4-5.9-8.3-5.5
		c-4.2,0.4-8.6,0.3-12.6,1.3c-6.5,1.6-12.3-0.6-18-2.9c-6.8-2.7-8.6-7.8-4.5-13.7c1.3-1.9,4.6-2.6,7-3.8
		C627.7,522.7,627.8,523.2,627.9,523.7z"/>
	<path id="XMLID_874_" d="M679.7,419.4c0.3-1.6,0.9-4.1,1.4-6.6c1-5,1.9-10,3.2-14.9c0.5-1.9,2.1-4.9,3.3-5
		c3.5-0.2,7.4,0.2,10.6,1.6c2.6,1.1,2.9,4.4,1.4,7.2c-0.4,0.7-0.8,1.4-0.8,2.1c0.1,3.8-0.6,8.1,1,11.2c0.7,1.4,6.4,0.8,9.5,0.1
		c4.2-0.9,6.9-3.9,6.8-8.5c-0.1-4.6,1.9-8.4,5.6-10.5c1.9-1.1,5.3-0.4,7.7,0.5c3.6,1.3,5.4,4.5,4.9,8.4c-0.2,1.9-1,3.8-1.9,5.6
		c-2.2,4.2-2.2,8.3-0.9,12.7c1.9,6.9-0.8,11.6-7.6,14.1c-4.9,1.7-9.5,1.5-13.8-1.7c-1.6-1.2-3.2-2.3-4.6-3.7
		c-3.2-3.2-5.9-3.5-10.6-1.5C685.3,434.7,680.2,431.9,679.7,419.4z"/>
	<path id="XMLID_873_" d="M911.5,432c3.7,0.6,7.5,0.8,11.1,1.8c9.4,2.6,14.4,9.8,13.4,19.4c-0.2,2.1-1.5,4.8-3.2,6
		c-7.4,5.2-15.2,9.9-22.9,14.8c-2.8,1.8-5.5,1.3-7.9-0.8c-7.6-6.9-11.9-15.3-11.6-25.7c0.3-7.4,8.5-14.5,17.3-15.2
		c1.2-0.1,2.4,0,3.6,0C911.5,432.3,911.5,432.2,911.5,432z"/>
	<path id="XMLID_872_" d="M576.8,517.9c-1.2,5.7-7,9.6-12.1,7.6c-3.5-1.4-6.7-3.5-10.2-4.9c-4.1-1.7-8-1.6-11.8,1.6
		c-3.8,3.1-8.3,5.3-13.4,2.8c-5.4-2.6-7-7.5-6.3-12.9c0.7-5.3,1.5-10.8,3.5-15.8c2.3-5.8,5.7-6.3,10.6-2.5c0.8,0.6,1.7,1.3,2.5,2
		c6.5,5.1,6.5,5.1,11.9-1.3c4.3-5.1,13.1-4.8,16,1.1C570.9,502.7,573.7,510.4,576.8,517.9z"/>
	<path id="XMLID_871_" d="M802.8,421.7c-8-0.7-9.6-2.2-9.9-9.9c-0.2-5.5-2.7-9.8-6.4-13.6c-5.7-6-8.2-13.1-5.6-21.2
		c0.7-2.1,2.9-4.4,4.9-5.1c6.5-2.3,13.2-4.1,20-5.7c2.6-0.6,5.4-0.6,8.1-0.6c0.9,0,2.5,0.8,2.5,1.3c0,1-0.5,2.5-1.3,3
		c-2.4,1.5-5.2,2.4-7.6,3.9c-2.9,1.9-5.9,3.8-8.1,6.4c-2.6,3.1-1.5,5.6,2.5,6.7c3.8,1,7.7,1.6,11.5,2.7c7.6,2.2,9.3,5,7.5,12.6
		c-1.5,6.5-5,12.1-10.1,16.3C808.8,420.2,805.6,420.6,802.8,421.7z"/>
	<path id="XMLID_870_" d="M760.9,544.6c-10.8,0-16.6-7.8-13.6-18.2c2.9-9.9,11.5-17,20.5-16c8.1,0.9,13.8,6.1,17.6,12.9
		c1,1.8,0,5.4-1.1,7.7C780.1,539.7,771.2,544.6,760.9,544.6z"/>
	<path id="XMLID_869_" d="M948.8,461.7c0-2.1-0.6-4.5,0.2-6.3c0.9-2.2,2.6-4.8,4.7-5.7c2.8-1.3,5.7,0.7,6.3,3.6
		c1.7,8.8,7.5,14.1,14.7,18.6c4.1,2.6,5.5,6.6,3.9,11.1c-1.5,4.2-3.1,8.6-5.8,12.1c-3.7,4.9-9,4.7-13.4,0.5
		c-6.1-5.7-8-13.4-9.4-21.2c-0.7-4.2-0.9-8.4-1.3-12.7C948.7,461.8,948.7,461.7,948.8,461.7z"/>
	<path id="XMLID_868_" d="M400.1,336.8c1.7,0.5,3.5,0.9,5.2,1.4c5.7,2,11.5,3.7,17,6.3c2.8,1.3,6,3.6,6.8,6.2
		c0.6,1.8-2.1,5.6-4.2,7.1c-5.7,3.9-11.8,7.2-18,10.3c-1.5,0.8-4.4,0.5-5.7-0.6c-5.7-4.2-9.9-9.5-12-16.6
		C387,344,393.8,336.7,400.1,336.8z"/>
	<path id="XMLID_867_" d="M643.1,459.4c-9.7,0-16.4-6.9-16.3-16.7c0-9.4,6.9-16.2,16.4-16.2c9.7,0,16.6,6.9,16.5,16.6
		C659.7,452.8,652.9,459.4,643.1,459.4z"/>
	<path id="XMLID_866_" d="M134.9,386c-4.5-3-8.2-5.4-12.7-8.4c1.2,5,2.2,9.2,3.2,13.2c-7.8,3-13.4,0.3-15.8-7.2
		c-3.1-9.6,1.7-23.4,10.3-28.9c1.1-0.7,3.4-0.9,4.4-0.3c5.7,3.7,11.4,7.6,16.7,11.8c4.3,3.4,3.9,5-0.2,8.5c-1.1,0.9-1.4,2.6-2.1,3.9
		C137.4,381,136.3,383.3,134.9,386z"/>
	<path id="XMLID_865_" d="M443.9,443.7c-1.1,2.8-1.9,6.5-3.8,9.4c-3,4.6-8.7,4.7-12.4,0.6c-3-3.4-6-6.8-8.8-10.5
		c-7-9.4-2.4-24.2,8.2-26.6c4-0.9,6.7,0.3,8.2,4.4c2.2,5.9,4.8,11.6,7.1,17.5C443.1,439.9,443.3,441.4,443.9,443.7z"/>
	<path id="XMLID_864_" d="M501.2,561.9c-7.7-1.1-13.4-4.2-15.6-12.3c-1.5-5.7-3.6-11.2-5.8-16.7c-2.1-5.2-1.6-10,1-14.8
		c1.3-2.3,2.3-4.4,5.6-4.3c3.3,0.1,5.8,1.2,6.8,4.2c2.7,8.1,5.3,16.3,7.6,24.6C502.6,548.9,504,555.3,501.2,561.9z"/>
	<path id="XMLID_863_" d="M890.8,600.3c1-3.1-1.5-8.9,3.8-12.5c0.5-0.3,0.3-2.4-0.1-3.4c-1.6-4-0.7-7.2,3-9.4
		c3.9-2.4,6.4,0.1,8.8,2.8c5,5.5,9.4,11.2,8.7,19.2c-0.6,7.7-5.4,12.8-11.7,16.2C898.6,615.9,889.4,611.9,890.8,600.3z"/>
	<path id="XMLID_862_" d="M458,515c-7.4-0.1-11.6-5.7-9.5-13.4c2.3-8.6,5.5-16.9,8.3-25.4c1-2.9,1.5-5.9,2.9-8.6
		c0.8-1.6,2.7-3.4,4.3-3.7c1-0.2,3.1,2,3.7,3.6c0.8,2.3,1.1,5,1,7.6c-0.4,8.5-1,16.9-1.7,25.4c-0.2,2.9-0.4,5.8-1.1,8.5
		C464.8,512.9,462.3,515.5,458,515z"/>
	<path id="XMLID_861_" d="M535.8,606.4c-2.7-0.8-6.2-1.9-9.7-3c-0.4-0.1-0.8-0.5-1.1-0.8c-4.7-5.5-2.1-11.5-0.8-17.2
		c0.9-4,4.1-6.7,8.6-6.9c7.7-0.3,14.3,2.3,19.4,8.1c2.7,3,2.6,6.4,0.7,9.7C549.4,602.5,543.9,605.9,535.8,606.4z"/>
	<path id="XMLID_860_" d="M654.8,417.7c-4.8-1.8-10.1-2.9-14.5-5.5c-5.8-3.4-5.7-9.6-0.4-13.8c7.4-5.9,22.7-6,30.2-0.1
		c5.9,4.6,5.3,11.8-1.5,14.9C664.6,415.2,660,416.1,654.8,417.7z"/>
	<path id="XMLID_859_" d="M544.9,369.1c-8.8,1.1-13.1-6.8-13.1-14.8c0-8.6,4.3-12.7,13.4-12.7c9.2,0,15.9,5.2,15.8,12.6
		C560.9,361.9,553.5,370.2,544.9,369.1z"/>
	<path id="XMLID_858_" d="M854.9,388.2c8.1,0,14.2,6,14.2,13.8c-0.1,8-6.1,14.2-13.9,14.3c-8.1,0.1-14.3-6.1-14.4-14.3
		C840.7,394.2,846.8,388.2,854.9,388.2z"/>
	<path id="XMLID_857_" d="M900.4,519.2c-2.1,6.7-3.6,13.6-6.4,19.9c-2.3,5.1-6.9,7-10.2,5.9c-3-1-7.1-7.9-6.4-11.8
		c1.5-9,5.1-17.1,11.1-23.9c1.1-1.3,2.9-2.2,4.5-2.9c2.5-1.1,4.4-0.6,4.9,2.6c0.4,3.3,1,6.5,1.6,9.8
		C899.8,518.9,900.1,519.1,900.4,519.2z"/>
	<path id="XMLID_856_" d="M403.4,514.9c0.2,5.1-1.2,10.1-5.2,14.1c-3.7,3.7-8.6,3.4-11.8-0.7c-5.8-7.4-6.1-20.6-0.5-28.1
		c3.2-4.4,8.8-4.8,12.5-0.8C402.4,503.6,403.7,508.8,403.4,514.9z"/>
	<path id="XMLID_855_" d="M788.2,469.8c5.1,3.5,10.6,0.3,16.4-1.1c5.5-1.3,11.4,6.5,9.4,12.2c-0.6,1.8-1.5,3.7-2.5,5.3
		c-4.7,7.3-7.1,7.8-14.5,3.2c-4.5-2.8-9-5.6-13.6-8.2c-2.9-1.6-3.8-3.2-2.5-6.5C782.4,470.9,783.5,469.7,788.2,469.8z"/>
	<path id="XMLID_854_" d="M48.9,435.6c-8.4-5.9-16.8-12.8-19.1-24.4c-0.5-2.7,0-7.2,1.8-8.5c2.1-1.6,6.4-1.6,9.2-0.6
		c6.2,2.2,10.8,6.8,12.5,13.4c0.5,2,0.6,4.3,0.1,6.2C52.1,426.3,50.4,430.8,48.9,435.6z"/>
	<path id="XMLID_853_" d="M943.3,492.2c7.3,0,12.7,5.3,12.8,12.4c0.1,7.3-5.5,13.1-12.7,13.1c-7.8,0-13.3-5.4-13.2-13
		C930.3,497.2,935.5,492.2,943.3,492.2z"/>
	<path id="XMLID_852_" d="M772.9,396.4c-0.8,5.3-2.2,9.6-6,13c-3.8,3.4-8.2,3.3-11.8-0.2c-6.4-6.3-6.6-18.3-0.5-24.9
		c3.8-4,11-3.8,13.8,1C770.5,388.7,771.5,392.7,772.9,396.4z"/>
	<path id="XMLID_851_" d="M350.9,360.8c-7.3,0-12.9-5.6-12.8-12.9c0.1-7.3,5.4-12.5,12.6-12.5c7.3,0,12.4,5.1,12.5,12.6
		C363.4,355,357.9,360.8,350.9,360.8z"/>
	<path id="XMLID_850_" d="M456.4,337.1c4.9-0.5,9.3,0.7,12.9,4.2c3.2,3.2,3.2,7.2,0.1,10.4c-5.9,6-20,6.1-25.9,0.2
		c-3.6-3.6-3.8-7.9,0.4-10.9c3.5-2.4,7.9-3.6,12-5.3C456,336.2,456.2,336.6,456.4,337.1z"/>
	<path id="XMLID_849_" d="M996.7,735.2c-3.2-0.5-6.2-0.6-8.9-1.3c-10.2-2.9-9.6-8.1-8.5-15.6c0.6-4.3,4.7-6.5,9.3-4
		c6.6,3.5,12.6,8.2,18.4,12.9c2.7,2.2,1.2,5.3-1.8,6.4C1002.4,734.7,999.3,734.8,996.7,735.2z"/>
	<path id="XMLID_848_" d="M584.9,579.6c-3.5-0.9-6.6-1.1-9.1-2.6c-2.2-1.3-5-3.7-5.2-5.9c-0.2-2.1,1.9-5.2,3.9-6.7
		c5.2-4,17.3-3.1,22.1,1c4.1,3.5,3.9,8.2-0.9,10.7C592.3,577.8,588.4,578.5,584.9,579.6z"/>
	<path id="XMLID_847_" d="M609.1,361.7c13,2.1,23.7,7.6,32.6,16c2.2,2.1,3.4,5.9,3.7,9.1c0.3,3.2-2.4,4.6-5.7,3.6
		c-5.6-1.6-8.9-5.9-12.3-10.2c-2.5-3.2-5.7-5.9-8.8-8.6c-2.4-2.1-5.1-3.7-7.4-5.9C610.1,364.8,609.8,363.1,609.1,361.7z"/>
	<path id="XMLID_846_" d="M1020.4,484c-1.3,4.1-2.1,8.1-4,11.6c-2.6,4.8-7.4,4.7-10.4,0.1c-3.9-5.7-3.7-18.2,0.3-23.8
		c2.8-3.9,7.8-4.2,10.1,0.1C1018.3,475.5,1019.1,479.8,1020.4,484z"/>
	<path id="XMLID_845_" d="M571.8,541.8c-0.5,5.8-3.5,10.7-7.6,11.7c-4.7,1.2-13.2-2.4-15.4-6.6c-1.5-2.9-0.4-7.3,2.2-8.9
		c2.9-1.8,5.9-3.6,8.7-5.5c4.4-3,6.9-2.6,9.4,2.2C570.4,536.9,570.9,539.4,571.8,541.8z"/>
	<path id="XMLID_844_" d="M864,435.5c5.9-1.1,11,6.3,10.8,10.9c-0.3,6.2-5.2,11.2-11.4,11c-6-0.1-10.6-5.2-10.5-11.4
		C853,439.8,857.6,435.4,864,435.5z"/>
	<path id="XMLID_843_" d="M888.5,363.1c5,0.8,10.8,1.7,16.5,2.9c2.8,0.5,4,2.1,2.9,5.3c-3.6,10.2-7.1,11.8-16.8,6.9
		c-3.1-1.5-6.3-3.1-8.9-5.4c-1.6-1.4-2.9-4.2-2.6-6c0.2-1.4,3.1-2.6,5-3.6C885.5,362.7,886.7,363.1,888.5,363.1z"/>
	<path id="XMLID_842_" d="M470,538.7c-1.4,3.4-2.3,7.1-4.3,10c-2.7,3.9-6.8,3.6-10,0.2c-4.5-4.9-4.6-15.5-0.2-20.6
		c3-3.4,8.5-3.3,10.9,0.7C467.9,531.7,468.6,535,470,538.7z"/>
	<path id="XMLID_841_" d="M951.2,439.3c-4.6,0.2-7.1-2.5-8.6-6c-1.2-2.7-2-5.8-2.2-8.7c-0.2-2.2,0.4-6.1,1.3-6.3
		c2.8-0.6,6.8-0.9,8.8,0.6c3.3,2.6,6.1,6.3,8.1,10.2C961.3,434.6,957.3,439.5,951.2,439.3z"/>
	<path id="XMLID_840_" d="M933.6,633.6c-6.2,0-11.3-4.2-11.2-9.4c0.1-4.9,4.8-8.7,10.7-8.7c6.4,0,11,3.6,11.1,8.8
		C944.4,629.5,939.8,633.5,933.6,633.6z"/>
	<path id="XMLID_839_" d="M1107.2,164.8c-0.4,5.1-2.4,7.7-6.6,8c-5.4,0.4-9-2.1-9.3-6.9c-0.2-3.3-0.5-6.8,0.5-9.8
		c0.7-2.2,3.2-5.1,5.1-5.2c2.2-0.1,5.5,1.8,6.8,3.9C1105.5,157.7,1106.1,161.4,1107.2,164.8z"/>
	<path id="XMLID_838_" d="M359.5,383.3c0.1-6,3.6-9.9,9-9.7c5.1,0.1,8.5,4.3,8.3,10.4c-0.1,5.9-3.8,10.1-8.7,10.1
		C362.9,394,359.4,389.6,359.5,383.3z"/>
	<path id="XMLID_837_" d="M389.1,555.2c-5.3,0-8.8-3.8-8.7-9.4c0.1-5.1,3.8-8.8,8.9-8.9c5.3-0.1,9.5,4.2,9.3,9.5
		C398.4,551.7,394.5,555.2,389.1,555.2z"/>
	<path id="XMLID_836_" d="M1038.2,654.2c0.1,0,0.3-0.1,0.4-0.1c6.2,0.1,10.6,3,10.5,6.9c-0.1,3.6-4.6,6.9-10.3,6.7
		c-2.7-0.1-5.7-0.7-8.2-1.9c-5.1-2.5-5.2-7.2-0.2-10c2.2-1.2,5-1.5,7.6-2.2C1038.1,653.8,1038.2,654,1038.2,654.2z"/>
	<path id="XMLID_835_" d="M488.5,776c-5.9,0-10.1-3.7-9.9-8.8c0.1-4,4.5-7.2,10-7.2c5.5,0,8.7,3.3,8.6,8.7
		C497,774.2,494.7,776,488.5,776z"/>
	<path id="XMLID_834_" d="M965.2,603.6c-5.1,0-8.6-3.6-8.6-8.5c0-4.7,3.9-8.1,9-8c4.8,0,8.3,3.5,8.3,8.3
		C973.8,600.4,970.5,603.6,965.2,603.6z"/>
	<path id="XMLID_833_" d="M1000.7,464c-5.4-0.6-7.7-5.6-10.2-10.7c-2.1-4.2-0.6-6.8,2.9-8.4c1.4-0.7,4.5-0.3,5.3,0.8
		c2.9,3.6,5.4,7.6,7.5,11.7C1008.1,460.9,1005.8,463.9,1000.7,464z"/>
	<path id="XMLID_832_" d="M1082.3,673.1c-1.9-0.4-3.9-0.5-5.6-1.3c-3.2-1.3-4.8-4.4-3.8-7.3c0.7-2.1,3.4-4.5,5.5-4.9
		c3-0.5,6.6,0.3,9.5,1.4c3,1.2,4.9,4.3,3.3,7.3c-1.1,2-3.9,3.1-6,4.3c-0.7,0.4-1.8,0.1-2.7,0.1
		C1082.3,672.9,1082.3,673,1082.3,673.1z"/>
	<path id="XMLID_831_" d="M508.8,492.8c-3.3,0-6.1,0-9.3,0c0-6.5,0-13.1,0-20c3,0,6,0,9.3,0C508.8,479.4,508.8,485.8,508.8,492.8z"
		/>
	<path id="XMLID_830_" d="M985.7,404.8c-0.9-4.1-1.8-7.8-2.4-11.5c-0.8-5,1.8-8.4,6.9-9.1c3.6-0.5,6.4,2,6.1,5.8
		C995.8,396.8,992.1,401.4,985.7,404.8z"/>
	<path id="XMLID_829_" d="M986.5,112.5c-5-0.3-9.7-5.2-9.3-9.8c0.3-4,2.8-5.3,6.5-5.1c5.8,0.3,9.6,3.8,9.4,8.7
		C992.9,110.6,990.6,112.7,986.5,112.5z"/>
	<path id="XMLID_828_" d="M521.4,547.4c0.8-2.7,1.2-5.2,2.2-7.5c1.6-3.4,5.4-3.5,7-0.2c2.5,5,2.5,10.3,0,15.3
		c-1.8,3.7-4.9,3.7-6.8,0.1C522.6,552.8,522.2,550,521.4,547.4z"/>
	<path id="XMLID_827_" d="M921.3,366.8c5,3.7,8.6,6.2,12,8.9c2.7,2.2,2.2,4.4-0.8,6c-4,2.1-13.2-0.7-14-5
		C918,374,920.1,370.8,921.3,366.8z"/>
	<path id="XMLID_826_" d="M954.8,635.8c1.7,1.7,4.6,3.3,4.8,5.1c0.4,3.5-2.8,4.5-6,4.5c-3,0-5.8-1.2-5.9-4.3
		C947.6,637.5,950.8,636.9,954.8,635.8z"/>
</g>
</svg>