<?xml version="1.0" encoding="utf-8"?>
<!-- Generator: Adobe Illustrator 26.0.2, SVG Export Plug-In . SVG Version: 6.00 Build 0)  -->
<svg id="svg" version="1.0" xmlns="http://www.w3.org/2000/svg" xmlns:xlink="http://www.w3.org/1999/xlink" x="0px" y="0px"
	 viewBox="0 0 1198.3 807.7" style="enable-background:new 0 0 1198.3 807.7;" xml:space="preserve">
<g id="Layer_7">
	<path id="XMLID_00000160176559552316909310000003840017749489026990_" d="M264.8,306.4c-0.5-0.8-0.8-1.4-1.2-1.9
		c-4.7-7.2-4.2-8.7,4-11.2c0.9-0.3,1.9,0,2.9,0c-0.3,0.9-0.5,1.8-0.9,2.7c-0.5,1-1.2,1.9-2.2,3.5c3,0.5,5.3,0.9,7.7,1.3
		c6.7,1.1,8.8,4.1,7.7,10.7c-1.5,9.1,0.6,12.9,9,16.6c11.4,5,14.6,11.1,14.4,27.9c-0.1,6.6-1.5,13.2-2.2,19.8
		c-0.4,3.9-0.1,7.6,4,9.8c3.6,2,5.5,7.6,3.8,11.4c-1.6,3.5-5.3,4.5-8.5,3.8c-8.1-1.7-14,1.4-19.4,7.1c-3.4,3.6-8,4.2-12.6,2.4
		c-5.1-2-10.1-4.1-15-6.5c-1-0.5-1.9-2-2.2-3.2c-1.3-5.9-3.9-8.3-9.9-8.7c-8.6-0.5-12.8-5.2-13.4-13.8c-0.3-4-1.3-8.2-3.2-11.6
		c-4.5-7.7-9.6-15-14.8-22.3c-2.8-3.9-3.6-7.9-1.9-12.4c0.3-0.8,0.8-1.7,1-2.5c2.2-11.2,9.5-15.7,20.4-15.9c2.2,0,4.4-1.1,6.6-1.5
		c4.3-0.8,8.3-1.5,12.7,0.9c1.9,1,5.5-0.1,7.9-1.2C261.4,310.6,262.8,308.3,264.8,306.4z"/>
	<path id="XMLID_00000173131882482797845530000006755941264585922737_" d="M518.4,402.9c-0.7,1.9-1.8,4.4-2.4,7
		c-0.7,2.9-1.8,6.1-1.2,8.8c0.9,4.4-0.1,8-1.8,11.8c-2.3,4.9-4.2,10-6.5,15c-2.4,5.2-5.4,5.8-10,2.3c-0.7-0.5-1.4-1.2-2.1-1.7
		c-3.9-2.6-6.5-1.8-7.8,2.7c-1,3.3-1.4,6.8-2.2,10.2c-2.2,8.6-6.4,10-13.8,5.2c-1.8-1.2-4.4-1.2-6.6-1.8c-0.3,2.1-0.8,4.2-0.9,6.4
		c-0.6,10.7-0.4,21.5-1.8,32.1c-0.6,4.4-4.1,8.8-7.3,12.1c-1.4,1.5-5.9,1.3-8.3,0.2c-2.3-1-4.9-3.8-5.4-6.3
		c-1.1-5.4,0.9-10.2,5.5-13.6c6.8-5,9.6-11.5,9-20.1c-0.5-6.3,0.7-12.4,7.7-15.6c1.3-0.6,2.4-2.4,2.8-3.9c1.5-6.3,2.9-12.7,3.8-19.1
		c0.5-3.6,1.9-5.9,5.2-7.3c2.3-1,4.8-2,6.9-3.4c1.2-0.8,2.5-2.5,2.6-3.8c0.1-0.8-2-1.8-3.2-2.7c-0.5-0.3-1.1-0.5-1.7-0.6
		c-13-2.1-15.8-12.8-14.4-22.8c0.5-3.3,0.8-8.2,3-9.5c5.9-3.5,10.5-7,10.3-14.5c0-0.5,0.6-1.1,1.1-1.4c5.9-3.1,6.8-9.2,8.6-14.8
		c1.5-4.5,2.9-4.8,7.5-3.3c11.7,3.7,17.1,12.1,18.8,23.8c1.2,8.4,2.9,16.7,4.3,25C518.1,400.2,518.2,401.2,518.4,402.9z"/>
	<path id="XMLID_00000080194038817814953560000011414371664600098970_" d="M426,418.3c8.4-0.4,9.3,0.5,11.3,8.6
		c0.7,2.9,2.4,6.1,4.7,8c4,3.4,4.5,7.1,2.7,11.3c-1.1,2.8-2.6,5.5-4.7,7.7c-4.9,5.2-11.3,4.2-15-2c-2.4-3.8-5.1-7.5-7.5-11.2
		c-0.9-1.4-1.7-2.9-2.2-4.4c-1.6-5.4-2.9-6.2-8.6-4.9c-7.9,1.8-10.7,0-12-7.7c-1.5-8.6-4.7-11.4-13.8-11.8c-3-0.1-6,0.5-9,0.5
		c-2.4,0-5.4,0.5-7-0.7c-4.8-3.7-10.2-3.4-15.6-4c-5.7-0.6-11.5-1-17.2-1.5c-4-0.4-6,1.3-6.9,5.3c-0.6,2.6-2.2,5.4-4.2,7.2
		c-2.6,2.2-6,2.4-8.4-0.7c-1.9-2.4-3.4-5-4.8-7.7c-0.7-1.5-1.7-4.1-1-4.7c1.3-1.3,3.9-2.7,5.5-2.2c4.7,1.3,6.2-1.1,7.4-4.8
		c1.1-3.4,2.1-7.2,4.2-10c2.2-3,5.3-5.9,8.6-7.4c4.1-1.8,6.3,2,7.8,5.2c3.4,7.6,4.4,8,11.7,4.1c4.1-2.2,7.6-1.2,10.5,3
		c3.9,5.6,5.6,5.6,9.4-0.2c1.3-2,2.6-4.1,4-6.1c3.5-5.4,8.1-8.8,15-8.7c3.9,0.1,7.8-1.2,11.7-1.2c10.8-0.1,16.1,7.2,13.2,17.9
		c-1,3.5-2,7-2.1,10.6C412.9,416.5,415.4,418.8,426,418.3z"/>
	<path id="XMLID_00000127759037914167281510000014415174361067459766_" d="M714.6,527.6c-4.8,11.6-12.9,15.2-24.2,11.1
		c-8.9-3.3-17.9-6.6-26.5-10.5c-3.1-1.4-6.1-4-8.2-6.9c-3-4.1-6.4-5.9-11.5-5.5c-6.6,0.4-13.3,0.1-20,0.1c-5.6,0-9.9-3.2-10.8-7.7
		c-1.1-5.7,1.3-10.7,7-12.6c3.9-1.3,8.5-2.7,12.3-1.9c20.6,4,41.3,7.7,60.8,16.2c7.7,3.4,14.8,7.7,18.7,15.7
		C712.6,526.5,713.8,527,714.6,527.6z"/>
	<path id="XMLID_00000038413371676531828670000017290252754575233456_" d="M492.9,554.1c3.8,1.4,7.1,1.9,9.7,3.5
		c7.2,4.4,15.2,5.5,23.4,6.6c5.5,0.8,11.1,1.8,16.4,3.4c8.1,2.5,9.2,8.3,4,14.8c-8.9,11-20.3,9.1-31.7,6.8
		c-8.2-1.6-14.4-5.5-16-14.9c-0.7-4.2-3.9-8.1-5.8-12c-11.6,2-17.1-0.3-21.1-11c-3.1-8.4-4.7-17.5-6-26.4c-0.5-3.2,1.5-7.1,3.3-10.1
		c2.6-4.3,7.6-4.4,10.5-0.3c2.1,2.9,3.7,6.3,4.8,9.7C487.4,534.4,490.2,544.6,492.9,554.1z"/>
	<path id="XMLID_00000173142304231221161930000000839512755016774057_" d="M565.8,466.4c2.2,4.5,5.6,8.1,5.2,11.2
		c-0.7,6,3.4,9.5,4.8,14.2c1.8,6-0.5,10.6-6.8,11.1c-4.3,0.3-9.1-0.4-13.1-1.9c-6.5-2.4-9.8-2.5-14.8,2.3
		c-5.4,5.1-11.5,6.5-18.4,4.2c-5.6-1.9-7.6-6.5-5.3-11.9c2.1-5,4.3-10,6.6-14.9c3.4-7.3,10.8-8.5,16.6-2.8c3.4,3.3,6.1,2.9,9.4,0.1
		C554.8,473.9,560.2,470.4,565.8,466.4z"/>
	<path id="XMLID_00000163754386020847323420000015030387407872241028_" d="M906.5,397.6c6.3,2.1,12.3,3.8,18.1,6.2
		c5.7,2.3,6.4,7.7,6.4,12.9c-0.1,4.9-3.6,7.7-7.8,9c-5.7,1.7-9.6,5-12.5,10.3c-3.4,6.3-9.7,6.9-14,1.3c-4.6-6-8.7-12.6-12.3-19.3
		c-2.5-4.6,0.4-12.1,5.3-14.3C895,401.3,900.6,399.7,906.5,397.6z"/>
	<path id="XMLID_00000088094383866948592190000014497300400656041648_" d="M802.3,346.7c-5.9,2.6-11.4,4.7-16.6,7.5
		c-1.5,0.8-1.8,3.6-3.1,6.3c6.2,1.3,11.8,2.8,17.5,3.7c5,0.8,7.7,4.5,5.8,9.3c-1.5,3.6-2.8,7.6-5.1,10.6c-2,2.5-5.3,4.2-8.3,5.7
		c-2,1-4.4,1-6.6,1.3c-7.8,1.2-11-1.2-11-9c0-4.3-0.8-7.2-5.2-8.7c-1.4-0.5-2.5-2.6-3.2-4.1c-1.1-2.2-1.7-4.5-2.6-6.8
		c-3.1-7.6,0.6-13.8,8.7-15.3c6.6-1.2,13.2-3,19.8-4.4C796.3,341.9,799.8,342.4,802.3,346.7z"/>
	<path id="XMLID_00000012473850543365215490000003544653638706148275_" d="M700.6,380.2c1.4-4.4,2.3-8,3.8-11.5
		c1.7-4,8.5-4.7,10.2-0.8c1.6,3.6,2,8,2.3,12c0.3,3.7-0.8,7.5-0.2,11.2c1,7.1-1.5,10.4-8.5,11.9c-6.2,1.3-11.1,0.9-15-4.9
		c-2.1-3.1-5.5-1.7-8.6-0.2c-2.4,1.1-5.8,2.3-7.9,1.5c-2.2-0.9-4.6-4.2-4.8-6.7c-0.6-7-0.3-14.2,0-21.3c0.1-3.9,4.2-7.6,8.1-7.8
		c2.3-0.1,7.7,4,7.8,6.6c0.1,1.8-0.8,3.8-1.4,5.6c-1.4,4.1-0.2,6.3,4.1,6.1C694.1,381.6,697.7,380.7,700.6,380.2z"/>
	<path id="XMLID_00000174574815557463340790000010166952714276214463_" d="M371.8,538.3c2.9,1.5,5.5,2.1,6.8,3.7
		c0.6,0.8-0.7,4.8-1.7,5.1c-2.3,0.5-5-0.1-7.5-0.7c-1.5-0.4-2.7-1.6-4.1-2.4c-4.2-2.4-8.6-4.4-12.5-7.2c-1.4-1-2.1-3.6-2.5-5.5
		c-0.7-3.1-0.5-6.4-1.4-9.4c-0.9-3.4,0-6,2.4-8.2c4-3.7,8.1-7.3,12.1-11c3-2.8,5.9-5.7,9-8.4c3.5-3.1,7.1-2.9,9.9,0.5
		c5.1,6.3,5.9,15.5,2,22.7c-1.5,2.7-3.4,4.2-6.8,4.4c-3.4,0.2-7.2,0.8-10.1,2.6c-3.3,2-1.3,5.4,0.2,8
		C369,534.8,370.7,536.9,371.8,538.3z"/>
	<path id="XMLID_00000032606735193003136430000007490246379175453092_" d="M146.8,337.3c-2.9,4.1-5.5,7.8-8,11.7
		c-0.9,1.4-1.5,3-1.9,4.5c-1.7,5.7-4.8,6.9-9.7,3.4c-1.3-0.9-2.5-1.9-4.7-3.5c0.6,4.3,1,7.3,1.5,10.4c-6.6,2.4-15.7-3.5-15.3-10.4
		c0.5-8,2-16,6.4-22.9c1-1.6,3.1-2.5,4.7-3.7c0.2-0.2,0.6-0.1,0.8-0.3c6.3-6.3,10.8-3.1,15.5,2.3C138.9,332,142.7,334.1,146.8,337.3
		z"/>
	<path id="XMLID_00000075873964277251669800000006541042234905477260_" d="M406.3,367.4c-4.7-0.2-7.2-3.2-9.3-6.4
		c-2.7-4-4.9-8.3-7.4-12.5c-4.6-7.6-0.4-12.5,8-13.4c4.2-0.5,8.8,1.2,13,2.6c4.5,1.6,8.8,4,13.2,6c3.6,1.7,6.2,4.4,5.8,8.4
		c-0.4,3.9-2.7,6.7-7,7.9c-3.3,0.9-6.2,2.9-9.3,4.4C411,365.5,408.6,366.4,406.3,367.4z"/>
	<path id="XMLID_00000147202719538262121700000010108575638606284460_" d="M946.7,429c-0.7-2.1-1.3-4.2-2.1-6.3
		c-1-2.7,1.4-10.3,3.2-9.8c3.2,0.9,7.6,2.1,8.9,4.5c2.8,5.6,6.9,8.3,12.5,10.3c5.6,2,11.2,10.8,10.3,16.4c-0.9,6.2-5.6,9.8-11.2,12
		c-3.6,1.4-6.6,0.6-8.8-3c-2.3-3.7-4.9-7.3-7.9-10.4C947.9,438.8,946.1,434.4,946.7,429z"/>
	<path id="XMLID_00000046338697635447001730000003269320080489404295_" d="M752.6,508.7c-9.9,0.1-18.6-13.9-14.1-22.6
		c3.9-7.6,16.6-11.5,24-7.4c2.2,1.2,4.5,2.5,6.9,3.5c5.7,2.2,7.4,5.8,5.2,11.4C772.2,499.7,759.2,508.6,752.6,508.7z"/>
	<path id="XMLID_00000013150785747023970730000005289724960369508500_" d="M941.6,558.7c-1.8,5.5-3.1,11.1-5.5,16.2
		c-2.8,6.2-15.4,6.4-19.1,0.6c-1.4-2.2-2.8-4.5-3.3-7c-0.3-1.6,1.3-3.6,1.3-5.4c-0.1-3.9-0.7-7.8-1.3-11.7
		c-0.8-5.3,3.9-12.2,9.2-12.9c1.1-0.2,2.6,0.6,3.5,1.4c4.1,3.5,8.3,7,12,11C940.1,552.8,940.5,555.8,941.6,558.7z"/>
	<path id="XMLID_00000090276582051364129230000018078063166472761755_" d="M886.7,494.5c1.7-4.9,3.7-10.8,5.9-16.7
		c0.4-1.1,1.6-2.2,2.8-2.9c6.6-3.6,8.9-2.6,11.1,4.5c0.9,3,1.8,6.1,2.9,9.1c3.4,9-0.7,16.4-5.2,23.4c-3.1,4.7-12.8,2.5-14.6-3.1
		C888.3,504.7,887.8,500.3,886.7,494.5z"/>
	<path id="XMLID_00000032651054144184634310000011438720207467163034_" d="M623.1,411.1c-0.1-7.2,7.3-14.8,14.3-14.9
		c10.1-0.1,16.8,4.5,16.7,11.4c-0.1,8.9-8.4,19.1-15.7,19.3C632.6,427.1,623.2,417.4,623.1,411.1z"/>
	<path id="XMLID_00000119806256762470276820000015767920844531591050_" d="M459.3,325.3c1.2,0,2.4-0.1,3.6,0
		c3.2,0.4,5.3,1.7,3.5,5.4c-1.9,3.8-2,7.6-1.2,11.8c1.6,8.5-6.5,15.8-14.8,13.5c-2.4-0.7-4.8-1.9-7-3.2c-3.8-2.4-6.3-5.6-4.6-10.6
		c0.9-2.7,1.6-5.6,1.8-8.4c0.3-5.1,3.1-7.2,7.8-7.6c3.6-0.3,7.2-0.8,10.8-1.2C459.2,325.1,459.3,325.2,459.3,325.3z"/>
	<path id="XMLID_00000137092571739935928120000013956213694403873933_" d="M322.1,357.1c-0.4-9.3,4.9-15.1,11.8-13.6
		c8.1,1.8,14.6,14.6,11.2,22.3c-3.4,7.9-6.9,10.4-13.8,10c-5.4-0.3-8.7-3.4-9.1-8.8C321.9,363.8,322.1,360.4,322.1,357.1z"/>
	<path id="XMLID_00000122706299756149260690000001999131650519318450_" d="M791.5,459c-8.9,0.2-15.8-4.6-22.7-9
		c-1.5-0.9-2.5-4.7-1.8-6.3c0.9-2.1,3.7-3.7,6-4.7c1.4-0.6,3.5,0.3,5.3,0.3c3.5-0.1,7.2,0.2,10.6-0.6c7.5-1.8,13.8,1.7,15.6,9.1
		c0.9,3.7-4,9.9-8.5,10.8C794.5,458.9,793,458.9,791.5,459z"/>
	<path id="XMLID_00000072973895665732549900000016899422684125409442_" d="M844,361.3c3.8-0.1,10.5,5.2,12.3,9.7
		c1.3,3.2-0.9,9.2-4.4,12.2c-8.4,7.1-22.7,2.9-25.1-7.8c-0.5-2.4,1-6.4,3-7.9c4.1-3.1,9.1-4.9,13.7-7.3
		C843.7,360.6,843.9,360.9,844,361.3z"/>
	<path id="XMLID_00000132080344307206086060000013401621148047673229_" d="M45.7,402.8c-1.8-2.5-3-3.9-3.9-5.4
		c-3.5-5.5-7.1-10.9-10.2-16.6c-1.3-2.4-2.2-5.4-2.2-8.1c0-4.8,3.1-7.1,7.9-7.4c10.6-0.6,21.9,11.5,14.2,22.3
		C48.6,391.6,47.8,397.1,45.7,402.8z"/>
	<path id="XMLID_00000124873537495635011470000000040334304247236282_" d="M948.5,479.3c-8-0.1-12.3-4.7-12.3-13.5
		c0-7,5.4-12.9,11.9-12.9c7.3,0,13.6,7.3,13.4,15.4C961.3,475.7,956.9,479.4,948.5,479.3z"/>
	<path id="XMLID_00000114054501945987668220000013302958864434848180_" d="M648.6,386.8c-4.5-1.3-8.1-2-11.3-3.5
		c-3.5-1.7-5.4-4.8-4.6-8.9c0.8-4.4,3.2-7.4,7.8-7.3c6.8,0.1,13.6,0.4,20.2,1.5c2,0.3,4.4,3.4,5,5.6c0.4,1.6-1.4,4.8-3.1,5.8
		C658.1,382.7,653.1,384.7,648.6,386.8z"/>
	<path id="XMLID_00000013159270075144077660000012528989715979731601_" d="M343,320c5.3,2.5,10.3,4.7,15.2,7.1
		c4.8,2.4,6.1,6,4.8,12.3c-1.1,5.2-3.6,7.4-9.1,7.7c-1.5,0.1-3,0.1-4.5,0.1c-7.6,0-11.2-4-10-11.7c0.4-2.7,1.6-5.2,2.2-7.8
		C342.3,325.3,342.6,322.7,343,320z"/>
	<path id="XMLID_00000125588540429277683400000007004479033224129948_" d="M756,365.2c-0.8,3.8-1.2,7.9-2.5,11.5
		c-2.4,6.3-8,8.2-14.4,5.2c-5.8-2.6-8.2-9.2-5.3-14.8c2.7-5.1,7.2-8.2,12.5-9.8C752.5,355.4,755.8,358.4,756,365.2z"/>
	<path id="XMLID_00000041977758321870868540000016019434276799624577_" d="M583.8,539.8c2.7,0.9,5.7,1.7,8.6,2.8
		c2.3,1,5.3,2.3,4.2,5.5c-1.1,3.3-2.5,8-4.9,8.9c-5.2,1.9-11.2,2.2-16.8,2.2c-3.6,0-7-2.1-7.7-6.4c-0.7-3.8,2.2-9.4,6.1-10.7
		C576.4,540.9,579.9,540.6,583.8,539.8z"/>
	<path id="XMLID_00000081630164394962596560000008830768110303776439_" d="M531.3,678.4c3.1-0.1,6.2,3.3,4.9,6.1
		c-3.1,7-0.4,13.7,0.1,20.6c0.3,4.5,1.5,9.2-1.9,13c-1,1.1-2.7,2.3-4,2.3c-1,0-2.5-1.9-2.7-3.2c-2-9.1-4.3-18.2-5.5-27.5
		C521.3,683.5,525.9,678.6,531.3,678.4z"/>
	<path id="XMLID_00000183946572518776955540000001488081845288510872_" d="M516.1,520.4c7.2-0.1,11.9,7.5,8.8,13.4
		c-2.1,4.1-5.8,7.6-9.5,10.5c-2.8,2.3-9.5-0.6-12.7-4.5c-2.8-3.3-2.5-6.5,0.1-9.8C506.6,525.2,511.3,521.7,516.1,520.4z"/>
	<path id="XMLID_00000052068058820295850790000003593004197477767352_" d="M970.4,590.4c-1.6,4.1-2.4,8-4.5,10.9
		c-1.4,2-4.8,3.9-7,3.5c-3.7-0.6-7.5-2.4-7.6-7.6c0-2.5-0.9-5.1-1.6-7.5c-1.6-5.7-1.4-6.2,5.2-10.1c4.2-2.5,7.9-2.5,10.6,1
		C967.7,583.4,968.8,587.1,970.4,590.4z"/>
	<path id="XMLID_00000181783581708093931250000013936806858898434231_" d="M556.4,530.6c-0.5,0-1.6,0.1-2.7-0.2
		c-3.5-0.8-7.5-1.1-8.2-5.8c-0.6-4.1,2.3-6.2,5.2-8.2c2.2-1.6,4.3-3.3,6.3-5.2c3.9-3.7,9.1-2.8,11.5,2
		C573,522,567.2,530.7,556.4,530.6z"/>
	<path id="XMLID_00000057110201726423358690000010117208943139894193_" d="M539.4,353.3c-1.5-1-4.6-1.9-5.8-3.9
		c-2.2-3.8-4.1-8.2-4.7-12.5c-0.8-5.4,4.9-8.4,10.6-5.7c3.2,1.5,6.1,3.8,8.8,6.3c2.7,2.5,5.4,5.8,3.3,9.5
		C549.3,351,545.1,352.7,539.4,353.3z"/>
	<path id="XMLID_00000041289832670398425770000002525758405202849930_" d="M858.5,425.9c-11.3,0.1-16.9-6.9-14.6-15.8
		c1.1-4.2,4.5-6.6,8.6-5.1c3.6,1.3,7.3,3.1,10.1,5.7c1.9,1.7,3.7,5.9,2.9,7.6C863.9,421.7,860.4,424.1,858.5,425.9z"/>
	<path id="XMLID_00000044890679920435930760000015223027439576033153_" d="M439.1,537.2c1.2-1.9,3.3-5.7,5.9-9.2
		c0.6-0.8,2.9-0.9,4-0.5c5.3,2.2,9.8,15.4,7.4,20.6c-1.4,3.2-3.7,4.1-6.8,3.8C443.8,551.3,439,545.7,439.1,537.2z"/>
	<path id="XMLID_00000048497129662644978340000000677385711857118399_" d="M1003.1,427.8c3.2,3,5.8,4.6,7.4,7c2,3,3,6.6,4.6,9.8
		c1.8,3.8,0.5,9.7-2.6,11.2c-3.2,1.5-7.9-0.6-10.2-4.5c-3.2-5.4-4.8-11.2-3.6-17.4C998.9,432.1,1000.9,430.6,1003.1,427.8z"/>
	<path id="XMLID_00000173877774372742719840000018059333044576265100_" d="M1022.3,671.9c5.6,0.1,8.9,5,8.5,12.6
		c-0.1,2.7-7.8,8.2-11.5,8.3c-3.9,0.1-9.4-4.8-9.4-8.4C1010,677.6,1015.7,671.8,1022.3,671.9z"/>
	<path id="XMLID_00000063627615869938867030000007418613206563898793_" d="M936.4,381c6.4,0,14.7,7.3,14.5,12.8
		c-0.1,3.2-4.7,8.1-7.6,8c-6.2-0.3-13.4-8.1-13.6-14.6C929.7,383.2,932.1,381,936.4,381z"/>
	<path id="XMLID_00000052816919905575332260000006165579717739927687_" d="M638.4,361.1c-5.4,3.7-12.6,3.1-18.2-1.4
		c-5.3-4.3-10.6-8.5-15.8-12.9c-1.2-1-1.8-2.6-3.3-4.9C618.1,345.3,634.7,353.9,638.4,361.1z"/>
	<path id="XMLID_00000107589924353203965860000013134125423858873507_" d="M1147.7,172.5c-0.2-5.5,1.5-9.7,5.4-12.9
		c4.4-3.5,8.9-1.9,9.2,3.6c0.2,3.7-0.7,7.7-1.7,11.3c-1,4-3.9,6.1-8.2,5.3C1148.1,179.1,1147.4,175.8,1147.7,172.5z"/>
	<path id="XMLID_00000160187679019047265970000012649883478053246134_" d="M1046.8,694.7c5.7,0,9.6,3.3,9.6,8.1
		c0,4.9-3.1,8.3-7.6,8.3c-6.5,0-10.8-3.3-10.9-8.4C1037.8,697.9,1041.4,694.7,1046.8,694.7z"/>
	<path id="XMLID_00000110449702938546417410000012034805921000144026_" d="M501.6,490.6c-7.7-5.9-9.3-19.5-3.8-25.2
		c1-1,3.1-1.5,4.5-1.3c1,0.2,2.5,1.8,2.7,2.9c0.6,4.9,1.5,9.9,1,14.7C505.7,484.8,503.2,487.6,501.6,490.6z"/>
	<path id="XMLID_00000006667529618922149900000002506611937164842912_" d="M872.6,340.8c4.8,0.5,10.3,0.8,15.6,2
		c1.5,0.3,3.6,3.2,3.5,4.8c-0.1,1.7-2.2,4.6-3.7,4.8c-7.8,1.2-14.8-1.8-21.1-6.2c-0.7-0.5-1.2-2.2-0.9-3.1c0.3-0.9,1.5-1.8,2.5-2.2
		C869.6,340.5,870.9,340.8,872.6,340.8z"/>
	<path id="XMLID_00000035532380864291376860000015855226305269205164_" d="M991.7,565.4c0,5.2-3.5,9.8-7.4,9.7
		c-4.3-0.1-7.5-4.6-7.2-10.2c0.3-5.9,2.2-8.5,6.4-8.9C989.6,555.4,991.7,557.8,991.7,565.4z"/>
	<path id="XMLID_00000132806284248670731340000015465616259870789013_" d="M367.7,364.1c3.6,0.1,8.4,5.3,8.4,8.9
		c0,3.7-5.7,9.3-9.3,9.2c-4.1-0.1-7.6-4.6-7.4-9.3C359.6,369,364.3,363.9,367.7,364.1z"/>
	<path id="XMLID_00000152944845175300063470000009575314002006787254_" d="M972.4,617.1c5.1,0,7.4,1.8,7.4,5.8
		c0.1,4.9-4.2,9.7-8.7,9.9c-3.9,0.1-9.3-4.1-9.2-7.2C962.1,621,966.8,617.1,972.4,617.1z"/>
	<path id="XMLID_00000147222509936846500660000006717707097888032692_" d="M973,355.4c5,0,7.1,2.5,5.7,7.2c-1,3.3-2.4,6.5-3.9,9.7
		c-0.4,0.9-1.7,1.8-2.7,1.8c-0.7,0-1.9-1.2-2.2-2c-1-2.8-1.9-5.7-2.6-8.7C966.3,359.2,969.1,355.4,973,355.4z"/>
	<path id="XMLID_00000125565918992141976960000012268674998623424436_" d="M1128.5,64.3c0.1-2.7-0.5-5.8,3.5-6.2
		c3.7-0.4,6.7,3.3,6.7,8.1c0,3.3-0.3,6.6-4.9,6.5C1129.9,72.5,1128.5,70.3,1128.5,64.3z"/>
	<path id="XMLID_00000178176767035409820660000005064608751559965569_" d="M980.2,409c6.2,0.9,11.2,2.7,13.7,8.3
		c0.5,1.2,0.1,2.8,0.2,4.2c-1.3,0-2.8,0.5-3.8-0.1C985.5,418.9,981.5,415.5,980.2,409z"/>
	<path id="XMLID_00000160902561005340561130000002690717594792552356_" d="M915.9,349.9c-2.4,1.8-3.7,2.8-5,3.8
		c-1-1.3-2.7-2.6-2.8-4c-0.1-1.1,1.8-3.3,2.7-3.3C912.2,346.5,913.4,348.1,915.9,349.9z"/>
</g>
</svg>