<?xml version="1.0" encoding="utf-8"?>
<!-- Generator: Adobe Illustrator 26.0.2, SVG Export Plug-In . SVG Version: 6.00 Build 0)  -->
<svg id="svg" version="1.0" xmlns="http://www.w3.org/2000/svg" xmlns:xlink="http://www.w3.org/1999/xlink" x="0px" y="0px"
	 viewBox="0 0 1198.3 807.7" style="enable-background:new 0 0 1198.3 807.7;" xml:space="preserve">

<g id="Layer_2">
	<path id="XMLID_414_" d="M265.4,294.7c2.9,0.2,5.6,0,8.1,0.7c8.9,2.6,8.9,2.7,9.4,11.8c0.5,9.7,6.4,16.1,13.5,21.6
		c6.2,4.8,11.2,10.4,11.6,18.6c0.2,3.3-0.4,6.6-1,9.9c-1,5.5-2.4,10.9-3.4,16.5c-0.8,4.7,0.8,8.4,5.3,10.5c3.7,1.7,6.1,4.4,5.2,8.5
		c-0.9,4.2-4.2,6-8.3,6.5c-1.8,0.2-3.6,0.3-5.4,0.5c-6.4,0.6-11.4,3.3-15.1,8.8c-4.3,6.5-7.1,6.6-13.6,2.7
		c-5.5-3.3-11.5-5.9-17.5-8.9c0.1-0.9,0.3-2.2,0.4-3.5c0.2-5.9-3.7-9.6-9.6-9.1c-7,0.6-11.3-2.1-10.7-8.9
		c1.1-12.8-5.2-22.6-11.3-32.7c-1.9-3.1-3.9-6.1-5.8-9.2c-7-10.9,0.1-25.6,13-26.6c8.6-0.6,17.2-0.6,25.8-0.9
		c5.7-0.2,10.4-3.2,10.9-7.7C267.2,301.3,266.1,298.6,265.4,294.7z"/>
	<path id="XMLID_413_" d="M510.4,417.9c0.3,3.7,0.6,7.5,0.9,11.2c0.2,2.1,0.5,4.2,0.6,6.3c0,3.7-2.1,5.7-5.6,5.6
		c-2,0-4.3-0.5-6.1-1.4c-9.1-4.4-15.6-18.3-13.5-28.2c1-4.7,3.7-7.9,8.2-9.5c1.3-0.5,2.9-0.6,3.8-1.4c1.5-1.3,2.5-3,3.7-4.6
		c-1.5-1.1-2.8-2.7-4.4-3.2c-5.1-1.4-10.4-1.9-15.4-3.6c-7.2-2.4-11.3-9-10.8-16.6c0.1-1.4,0.6-3.1,1.4-4.1
		c6.1-7.4,12.3-14.6,18.5-21.9c3.2-3.8,7.2-3.7,11.5-2.3c6.3,2.1,11,6.5,14.9,11.6c12,15.8,18.9,33.4,17.5,53.6
		c-0.1,1.9-0.5,3.9-1.1,5.8c-2.7,8.4-7.9,9.9-15,4.5c-2.1-1.6-5-2.3-7.5-3.4C511.4,416.9,510.9,417.4,510.4,417.9z"/>
	<path id="XMLID_412_" d="M313.6,411.6c7-3.2,10.2-8.4,13-14.1c1-2,1.7-4.2,2.6-6.3c1.5-3.2,3-6.4,7.2-6.6c4.3-0.2,7.1,2.1,9.5,5.3
		c0.5,0.6,0.7,1.3,1.1,2c3.9,7.9,3.9,7.9,12.1,5.7c7-1.9,11.7,0.1,15.9,6.3c0.9,1.3,2.7,2,4.1,3c0.7-1.3,1.6-2.5,2.1-3.8
		c0.4-0.9,0.6-2,0.7-3.1c2.5-16.6,16.5-20.6,28.9-26.2c3.5-1.6,5.8,1.7,6.9,4.4c4.2,10,8.2,20.1,11.8,30.4c1,2.7,1.1,6.1,0.6,8.9
		c-1.3,7.7-10.2,11.6-15.3,7c-1.1-1-1.9-2.4-2.4-3.7c-3.2-8.1-7.5-10.6-16-8.3c-3.3,0.9-6.3,2.9-9.7,3.8c-2.1,0.6-4.5,0.2-6.8,0.1
		c-3.3-0.2-6.9-1.4-9.9-0.4c-4.4,1.4-8.4,1.7-12.8,0.3c-5.6-1.8-11.4-3.1-17.1-4.5c-3.8-0.9-5.8,0.7-5.7,4.7c0.1,4,0,8.2-4.5,10
		c-3.1,1.2-9.3-1.4-11.8-5.3C316.5,418.2,315.2,415,313.6,411.6z"/>
	<path id="XMLID_411_" d="M700.7,539.7c-6.8,2.1-12.3,0.3-17.3-4.3c-1.3-1.2-3.1-1.9-4.8-2.6c-5.1-2.2-9.4-4.9-11-11
		c-1.1-4.2-5-6-9.3-6.9c-6.2-1.4-12.3-3.1-18.2-5.4c-4.8-1.9-6.4-5.5-5.4-9.8c1-4.3,3.7-6.2,8.4-6.8c16.1-2.3,30.1,3.4,44,10.1
		c2,1,4.2,1.5,6.3,2.3c1.8,0.7,4,1.1,5.4,2.3c4.6,3.9,9.3,7.8,13.3,12.2c3.7,4.1,3.4,13.7-0.1,18.2c-0.7,0.9-2.2,1.5-3.4,1.6
		C706,539.9,703.2,539.7,700.7,539.7z"/>
	<path id="XMLID_410_" d="M1082.2,689.1c1.1,3.9,2.3,7.9,3.5,12.2c-2.7,2.9-6,2-8.1-0.5c-5.7-6.8-11.9-13.5-16.1-21.2
		c-7.8-14-14.4-28.6-21.2-43.2c-1.1-2.4-0.9-5.5-0.7-8.2c0.2-3,1.1-5.9,1.4-8.9c0.6-5.5,4.3-8,8.7-4.7c5.7,4.4,10.6,9.8,15.7,14.9
		c5.1,5,5.8,9.6,1.2,16.2c-7.4,10.6-3.2,31.3,6.9,39.3C1076,686.9,1079.2,687.7,1082.2,689.1z"/>
	<path id="XMLID_409_" d="M333.9,379.8c-5.8,0-8.4-2.1-9.8-7.8c-0.9-3.5-2.4-6.9-3.3-10.4c-2.2-8,2.3-13.8,10.5-14
		c8.7-0.2,10-1.5,10.2-10c0-2.4,0.2-4.8,0.6-7.2c0.9-5.9,5-8.7,10-5.8c4.7,2.7,9.1,6.7,12.3,11.1c1.2,1.6-0.5,6.9-2.5,8.7
		c-2.9,2.7-7.2,4.1-11.1,5.5c-6.7,2.4-6.9,2.4-3.7,8.6C351.9,368.4,344.9,379.8,333.9,379.8z"/>
	<path id="XMLID_408_" d="M556,469.1c0.2-2.4,0.6-4.6,0.5-6.8c-0.2-3.3,1.2-5.6,4.4-5.7c2.2-0.1,4.6,1.1,6.8,2.1
		c1,0.5,1.3,2.1,2.3,2.7c2.2,1.3,4.8,3.5,6.8,3.2c2.3-0.4,4.3-3.2,6.3-5c1.3-1.2,2.5-3.1,3.9-3.3c1.1-0.2,3.2,1.5,3.7,2.8
		c3.3,8.4,6.2,17,9.2,25.5c1.4,4,0.5,7.2-3.7,8.9c-3.1,1.3-7.6-0.5-9.7-3.9c-0.5-0.8-0.7-1.7-1.1-2.5c-1.7-3.4-4.2-3.5-6.4-0.8
		c-3.2,3.8-6.2,8.2-12,5.8c-6.3-2.6-9-8.3-10.3-14.6C556.1,474.7,556.2,471.8,556,469.1z"/>
	<path id="XMLID_407_" d="M878.6,433.7c-0.2-4.7,1.8-8.2,5.5-10.8c7.3-5,15-6.9,23.5-3c2.6,1.2,5.6,1.7,8,3.1
		c2.5,1.5,5.2,3.3,6.8,5.6c3.2,4.4,2.5,7-2.1,9.9c-8.2,5.1-16.5,10-24.8,15c-3.2,1.9-6.1,1.3-8.6-1.3
		C881.9,447,878.9,441,878.6,433.7z"/>
	<path id="XMLID_406_" d="M425.1,550.3c-6.1-1.8-10.2-5.5-13-10.8c-0.6-1.1-0.9-2.9-0.3-3.9c6.5-11.7,4.9-24.7,6.2-37.3
		c0.1-1.2,0.2-2.4,0.4-3.6c1-5.7,3-7.1,8.3-4.6c3.7,1.7,7.2,4.5,9.7,7.8c2.9,3.8,4.8,8.4,6.8,12.8c1.7,3.8,0.2,6.4-3.6,7.8
		c-4.8,1.7-7,5.8-8.4,10.1c-2,6-3.4,12.3-5.1,18.4C425.8,548,425.5,549,425.1,550.3z"/>
	<path id="XMLID_405_" d="M799,348.1c-0.6,2.3-0.8,4.2-1.6,5.8c-3,6-3,6.6,2.4,10.3c4.3,3,8.8,5.7,13.4,8.6c0.3,7.1-2.5,13.2-9,17.2
		c-2.1,1.3-4.6,2.4-7.1,2.8c-8.8,1.6-11-0.6-11.8-9.4c-0.3-3.5-2-6.8-3.3-10.1c-0.5-1.2-1.5-2.2-2.3-3.4c-6.6-10-3.8-17,7.8-19.5
		C790.9,349.7,794.1,349.1,799,348.1z"/>
	<path id="XMLID_404_" d="M936.4,457.7c-0.6-6.1-1.3-12.5,4.1-17.2c1.1-1,3.2-1.6,4.6-1.3c1.2,0.3,3,1.9,3.1,3.1
		c0.6,6.4,4.4,10.4,9.4,13.6c8.5,5.4,10.6,9.1,8.4,15.3c-2.7,7.6-10.2,12.2-18.6,11.3c-3.7-0.4-6.6-1.7-8.3-5.4
		c-1.6-3.4-3.6-6.6-5.4-10C930.6,461.4,930.8,460.9,936.4,457.7z"/>
	<path id="XMLID_403_" d="M548,528.8c-0.1,0.9-0.1,2.1-0.3,3.2c-1,5.7-5.6,7.6-9.3,3.3c-6.1-7.2-11.7-15-16.8-23
		c-2.7-4.2-4.1-9.4-5.6-14.2c-0.7-2.4-0.8-5.2-0.3-7.6c1.3-6.5,4.1-7.5,9.3-3.5C538.8,497.5,546.9,511,548,528.8z"/>
	<path id="XMLID_402_" d="M501.1,472.4c1,8.8-2.6,15.5-6.6,21.9c-1.8,2.8-4.2,2.7-6.7,1.2c-6.5-3.7-10.1-11.5-7.5-18.6
		c3.7-10.1,6-20.1,3.5-31c-0.4-1.6,1.2-4.5,2.7-5.3c2.9-1.6,5.7,0.3,6.6,3c2.9,8.5,5.3,17.3,7.8,25.9
		C501.2,470.8,501.1,472,501.1,472.4z"/>
	<path id="XMLID_401_" d="M410.3,362.7c-0.6-0.2-1.8-0.4-2.5-1c-5.1-4.8-10.6-9.4-15-14.9c-1.8-2.2-2.4-6.9-1.2-9.6
		c1.9-4.4,6.9-7.1,11.3-5.8c9.3,2.7,18.3,6.8,27.3,10.6c0.8,0.3,1.6,3.5,1.1,4c-6.3,5.6-12.7,11-19.2,16.4
		C411.8,362.6,411.2,362.6,410.3,362.7z"/>
	<path id="XMLID_400_" d="M434.4,421.5c1-3.7,1.6-7.1,2.8-10.3c1.5-4.1,6-6.4,10.3-5.6c0.9,0.2,2,0.9,2.3,1.7
		c2.2,5.7,6.6,9.2,11.7,12.1c4,2.4,8.5,4.6,7.3,10.6c-1.1,5.8-7.1,11.8-12.6,12.3c-1.4,0.1-3.2-0.2-4.2-1.1
		c-5.3-4.7-10.4-9.6-15.4-14.6C435.4,425.4,435.1,423.2,434.4,421.5z"/>
	<path id="XMLID_399_" d="M119.6,351.9c0.2,2.7,0.7,5,0.4,7.4c-0.1,1.1-1.6,3-2.4,3c-6.6-0.1-11-4.2-11.1-10.7
		c0-5.1,0.6-10.3,1.7-15.2c0.9-4.4,3.5-8.1,8.2-9.5c0.3-0.1,0.6-0.2,0.8-0.5c4-4,7.5-3.2,11.4,0.6c4.6,4.4,8.1,8.9,6.7,15.7
		c-0.2,1-0.6,2-1,3c-2.6,7.8-2.6,7.8-10.7,6.2c-0.6-0.1-1.2-0.2-1.8-0.2C121.3,351.6,120.9,351.7,119.6,351.9z"/>
	<path id="XMLID_398_" d="M753.8,480.1c7.6,0.5,12.2,4.4,15.4,10c2.9,5.2,0.9,10.2-2.8,14.1c-3.2,3.5-6.9,6.6-10.9,9.1
		c-3.3,2-7.1,1.6-9.4-2.3c-2.1-3.4-4.7-6.7-5.9-10.5c-1.6-5,4-16.6,8.7-19.1C750.5,480.5,752.6,480.4,753.8,480.1z"/>
	<path id="XMLID_397_" d="M850,576.1c-8,0-11.8-5.3-8.8-12.1c4-9.2,11.5-15.4,19.6-20.8c0.6-0.4,1.4-0.7,2.1-0.7
		c3.2,0,11.2,9.8,9.9,12.8c-4.1,9.6-9.9,17.6-20.7,20.7C851.3,576.1,850.4,576.1,850,576.1z"/>
	<path id="XMLID_396_" d="M727.6,371.2c-0.5,2.1-1.3,4.1-1.3,6.2c0,3.1,0.5,6.3,0.8,9.4c0.8,9-3.7,13.9-12.8,14
		c-6.4,0.1-13-4.8-14.7-10.7c-1.1-4-0.2-6.9,3.9-8.4c5.9-2.2,9.7-6.3,12-12.2c2.5-6.4,5.2-6.8,10.3-1.9c1.1,1,2.4,1.9,3.6,2.8
		C728.7,370.7,728.1,370.9,727.6,371.2z"/>
	<path id="XMLID_395_" d="M282.8,687.5c0.2-0.8,0.3-3.1,1.5-4.7c3.8-5.3,7.4-10.7,12-15.3c5.9-5.9,17.5-0.8,20.9,5.5
		c0.4,0.7-0.1,2.5-0.8,3.1c-8.7,6.7-17.4,13.5-26.5,19.8C286.2,698.5,282.7,694.9,282.8,687.5z"/>
	<path id="XMLID_394_" d="M857.3,517.3c-5.7,0-8.9-4-7.3-8.9c3.2-9.5,9.3-17,18.3-21.7c2.2-1.1,5.9-1,8,0.1c1.5,0.8,2.6,4.7,2,6.7
		c-2.6,10.1-8.4,18-17.8,22.9C859.5,517.1,858,517.1,857.3,517.3z"/>
	<path id="XMLID_393_" d="M651.4,419.2c-7.2,0.1-13.2-6-13.2-13.3c0-7,6-12.8,13.1-12.8c7.7,0,13.1,5.4,13.1,13.1
		C664.4,413.4,658.6,419.1,651.4,419.2z"/>
	<path id="XMLID_392_" d="M1014.5,605c0,7.7-5.3,13.5-12.2,13.5c-6.9,0-12.1-6.2-11.9-14.2c0.1-7.4,5.5-13.4,11.9-13.4
		C1009.2,590.8,1014.6,597,1014.5,605z"/>
	<path id="XMLID_391_" d="M549,347.1c-4.9-2-10.1-3.5-14.6-6.1c-4.2-2.4-5.3-7.1-3.7-11.1c1.7-4.2,5-5.6,9.4-5.6
		c6.6,0,12.1,2.2,16.9,6.5c3.1,2.8,5.1,6,3.4,10.4c-1.7,4.2-5.4,4.3-9,4.6c-0.6,0.1-1.2,0-1.8,0C549.4,346.2,549.2,346.6,549,347.1z
		"/>
	<path id="XMLID_390_" d="M44.1,406.4c-4.1-1.3-6.6-5.7-14.1-24.7c-1.7-4.4-1-8.8,0.7-12.7c3.2,0.8,6.1,1.5,8.9,2.1
		c5.7,1.2,9.5,4.8,10.5,10.1c1.3,6.6,3.1,13.8-4.7,18.6C44.1,400.5,44.5,404.1,44.1,406.4z"/>
	<path id="XMLID_389_" d="M511.3,520c-2,3.7-3.4,7.9-6.1,11c-3.9,4.5-11.1,2.7-14.2-3.3c-2.7-5.2-2.9-10.8-0.5-16.2
		c1.7-3.8,4.5-6.5,9-6.5c4.5,0,7.4,2.6,9,6.4c1,2.4,1.4,5.2,2.1,7.8C510.8,519.5,511.1,519.8,511.3,520z"/>
	<path id="XMLID_388_" d="M848.7,393.4c-2.6-0.9-5.4-1.6-7.9-2.8c-3.8-1.9-6.3-5-5.8-9.4c0.5-4.4,3.3-7.8,7.5-8.7
		c3.8-0.8,8-1.1,11.9-0.4c5.1,0.9,8.9,6.3,8.5,10.4c-0.4,4.6-5.9,9.6-11.3,10.2c-0.9,0.1-1.8,0-2.7,0
		C848.9,392.9,848.8,393.2,848.7,393.4z"/>
	<path id="XMLID_387_" d="M927.1,475.9c7.4,0,13.1,4.8,13.1,11c0,6.6-6,11.7-13.6,11.6c-6.7-0.1-13.2-5.7-13.1-11.4
		C913.4,481,919.7,475.8,927.1,475.9z"/>
	<path id="XMLID_386_" d="M697.5,377.6c-1.4,4.6-2.3,9.5-4.3,13.7c-2.3,4.7-7,4.6-9.5,0.1c-4.8-8.9-4.8-18-0.2-26.9
		c2.4-4.8,7.5-4.8,9.9,0C695.3,368.3,696.1,372.9,697.5,377.6z"/>
	<path id="XMLID_385_" d="M989.1,476.3c-0.1-7.3,4-14.1,9.6-16.2c5.5-2.1,10.2,0.6,9.2,6.3c-1.1,6.4-3.7,12.6-6,18.8
		c-1,2.7-3.8,3.9-6.4,2.6c-2.1-1-4.2-2.9-5.3-4.9C989.1,480.9,989.4,478.2,989.1,476.3z"/>
	<path id="XMLID_384_" d="M767.4,368.6c0,6.9-4.4,11.4-11.2,11.4c-6.2,0-11.1-4.9-11.2-11.2c-0.1-6.2,5.2-11.5,11.5-11.5
		C762.7,357.3,767.4,362.1,767.4,368.6z"/>
	<path id="XMLID_383_" d="M782.4,444.2c2.1-0.1,4.2-0.1,6.2-0.5c5.1-0.8,8.4,2.1,9.9,6.1c0.8,2-0.5,5.6-2,7.6c-2.6,3.5-6.1,6-11,3.6
		c-2.3-1.1-4.8-1.8-7-3c-5-2.7-8.6-8-6.5-10.5c2.2-2.5,6.4-3.3,9.7-4.9C782,443.2,782.2,443.7,782.4,444.2z"/>
	<path id="XMLID_382_" d="M456.5,342.8c-2.5-0.3-3.9-0.2-5.2-0.6c-5.2-1.3-8.4-4.8-8.3-8.8c0.1-4.1,3.3-7.5,8.5-8.6
		c4.6-1,9-0.7,12.8,2.4c5.4,4.4,5,10-1.3,13.3C460.8,341.8,458.1,342.3,456.5,342.8z"/>
	<path id="XMLID_381_" d="M658.3,364.2c4.6,1.6,8.9,2.6,12.6,4.6c3.5,1.8,3.3,5.1,0.3,7.8c-5.3,4.6-20.9,4.6-26.2-0.1
		c-2.6-2.4-2.8-5.9,0.4-7.5C649.4,366.9,653.8,365.8,658.3,364.2z"/>
	<path id="XMLID_380_" d="M594.9,545.7c0-6.1,4.1-9.8,10.5-9.8c5.9,0.1,10.1,4.2,10,9.9c-0.1,5.7-4.8,10.2-10.6,10.1
		C599.3,555.8,594.9,551.2,594.9,545.7z"/>
	<path id="XMLID_379_" d="M940.1,405.5c5.9,0,10.1,4.1,10.1,9.9c0,5.6-4.4,10-10,10.1c-5.9,0-10.5-4.6-10.4-10.3
		C929.9,409.7,934.3,405.5,940.1,405.5z"/>
	<path id="XMLID_378_" d="M871.2,581.1c5.9,0,10.1,4.1,10.1,9.9c0,5.9-4.4,10.1-10.4,10.1c-5.7,0-9.7-4.2-9.7-10.2
		C861.2,585.1,865.3,581.1,871.2,581.1z"/>
	<path id="XMLID_377_" d="M583.4,514c0.6-6.7,3.9-11.6,8.4-11.7c4.4-0.1,7.9,4.2,7.9,10.9c0,3.2-0.8,6.7-2.3,9.5
		c-2.7,4.9-8.5,4.7-11.3-0.2C584.7,520,584.3,516.9,583.4,514z"/>
	<path id="XMLID_376_" d="M603.2,753.2c-6.6,0-10.6-3.3-10.5-8.7c0.1-6.3,4.2-10.7,9.9-10.6c5.8,0.1,9.3,4.6,9.2,11.6
		C611.7,751.1,609.4,753.2,603.2,753.2z"/>
	<path id="XMLID_375_" d="M850.5,415.6c5.4,0,9.8,4.3,9.9,9.7c0.1,5.3-4.4,9.8-9.8,9.8c-5.6,0-9.7-4.1-9.8-9.7
		C840.7,420,844.9,415.7,850.5,415.6z"/>
	<path id="XMLID_374_" d="M915.1,692.3c-2.8-1.5-6.4-2.2-6.7-3.7c-0.5-2.1,0.7-5.6,2.5-7.1c4.7-4,10.2-7.4,16.9-5.9
		c2.2,0.5,5.3,2.1,5.9,3.8c0.5,1.6-1.4,5-3.2,6C925.6,688.2,920.4,690.1,915.1,692.3z"/>
	<path id="XMLID_373_" d="M373,366.2c5.9,0,9.4,3.4,9.4,9.2c0,5.4-3.9,9.5-9.3,9.6c-5.1,0.1-9.4-4.2-9.5-9.5
		C363.5,370.1,367.4,366.2,373,366.2z"/>
	<path id="XMLID_372_" d="M1105,179.4c-2.5-1.9-6.1-3.3-7.2-5.8c-1.8-4.1-2.5-9-2.5-13.5c0.1-4.6,4.1-6,7.8-3
		c5.3,4.3,8.2,10,8.5,16.8C1111.8,178.1,1108.9,178.5,1105,179.4z"/>
	<path id="XMLID_371_" d="M542.1,454.6c-0.4,0.7-1.3,3.5-2.3,3.5c-2.7,0.1-6.2-0.1-8-1.7c-5.2-4.7-5.6-11.6-5.9-18
		c-0.1-3.1,3.4-4,6.7-1.8C538.5,440.6,541.7,446.2,542.1,454.6z"/>
	<path id="XMLID_370_" d="M896.6,366.5c-2-0.9-3.5-1.4-4.9-2.1c-3.4-1.8-6.9-3.4-9.9-5.8c-1.3-1.1-2.2-3.9-1.9-5.6
		c0.3-1.4,3.2-3.7,4.2-3.3c6.3,2,12.4,4.4,18.4,7.3c3.1,1.5,2.3,4.6,0.2,6.5C901.1,365,898.6,365.6,896.6,366.5z"/>
	<path id="XMLID_369_" d="M996.4,445.1c0,0.2,0.1,1.4-0.3,2.3c-1.2,3.6-2.9,6.9-7.4,6.7c-4.2-0.1-6-3.2-7-6.7
		c-1.2-4.2-0.5-8.5,2.8-11.2c1.6-1.3,5.1-1.8,7-1C995.3,436.7,996.5,440.4,996.4,445.1z"/>
	<path id="XMLID_368_" d="M870.6,615.4c4.9,0,8.8,3.7,8.8,8.4c0,4.6-4.1,8.5-8.8,8.4c-5-0.1-8.5-3.7-8.4-8.6
		C862.3,618.8,865.9,615.4,870.6,615.4z"/>
	<path id="XMLID_367_" d="M951.3,716.6c-5.8,0-7.8-2-7.9-7.9c-0.1-5.7,2.3-8,8.3-8.1c5.4,0,8.2,2.5,8.2,7.3
		C959.8,713.7,957,716.6,951.3,716.6z"/>
	<path id="XMLID_366_" d="M900,572.9c0-4.5,3.8-8.2,8.4-8.1c4.5,0,8.4,3.9,8.4,8.3c0,4.3-4.2,8.5-8.5,8.4
		C904,581.4,900,577.3,900,572.9z"/>
	<path id="XMLID_365_" d="M636.8,358c-2.5-1.3-5-2.5-7.3-3.9c-3.6-2.2-7.1-4.4-10.5-6.8c-1.2-0.9-1.9-2.6-2.8-4
		c1.4-0.6,2.9-1.8,4.1-1.6c7.9,1.3,14.2,5.6,20,10.8c0.7,0.6,1.2,2.7,0.8,3.2C640.2,356.7,638.7,357,636.8,358z"/>
	<path id="XMLID_364_" d="M976.6,147.3c-5.8,0-7.6-1.2-7.7-5.2c-0.1-3.9,3.1-6.8,7.8-7c1.2-0.1,2.4-0.1,3.6,0.1
		c3.8,0.5,7,3.6,6.7,6.8c-0.4,4-3.6,4.8-6.8,5.4C979.1,147.5,977.8,147.3,976.6,147.3z"/>
	<path id="XMLID_363_" d="M437.8,536.2c2.2,0.9,4.6,1.4,6.6,2.7c3.9,2.4,4.6,6.5,2,9.6c-2.4,2.8-7.4,3-10.1,0.2
		c-1.4-1.5-2.6-3.4-3.4-5.3C430.9,538.7,432.5,536.6,437.8,536.2z"/>
	<path id="XMLID_362_" d="M983.9,377.7c4.6,0.2,7.3,3.2,6.9,7.7c-0.3,3.7-3.5,6.5-7.4,6.4c-4-0.1-7.2-3.4-7-7.4
		C976.5,380.3,979.6,377.5,983.9,377.7z"/>
	<path id="XMLID_361_" d="M567,511.2c4.5-0.1,6,3,7.1,6.4c1.2,3.6,2.2,7.4-0.7,10.6c-2.3,2.6-4.4,1.3-5.7-1.2
		C565.1,521.9,564.9,516.6,567,511.2z"/>
	<path id="XMLID_360_" d="M922.6,371.2c-3.3,0.1-6.1-2.7-6.1-5.9c0.1-3.5,2.5-5.9,5.9-5.9c3.9,0,5.7,2.4,6.1,5.8
		C929,368.4,926,371.2,922.6,371.2z"/>
	<path id="XMLID_359_" d="M351,580.7c3.1,0.4,5.7,1.6,5.6,5.3c-0.1,3.2-2,4.8-5.3,4.9c-4.1,0.1-4.8-2.7-4.9-5.7
		C346.3,582.2,348,580.8,351,580.7z"/>
</g>
</svg>